<svg width="58" height="58" viewBox="0 0 58 58" fill="none" xmlns="http://www.w3.org/2000/svg">
<circle cx="29" cy="29" r="29" fill="#DBFF00"/>
<path d="M18.3929 36.1818V20.9138H23.9045L21.7998 22.8227L21.3915 23.1931L21.7998 23.5635L23.4498 25.06L23.7857 25.3647L24.1216 25.06L30.0145 19.7152L30.4228 19.3448L30.0145 18.9745L24.1216 13.6296L23.7857 13.325L23.4498 13.6296L21.7998 15.1262L21.3915 15.4966L21.7998 15.8669L23.9045 17.7759H17.8929C16.3673 17.7759 15.0357 18.917 15.0357 20.4138V36.1672C13.0211 36.7682 11.5 38.5699 11.5 40.7241C11.5 43.3968 13.8923 45.5 16.7143 45.5C19.026 45.5 20.9012 44.1444 21.6596 42.2931H35.0714V42.8621C35.0714 44.3589 36.403 45.5 37.9286 45.5H42.6429C44.1684 45.5 45.5 44.3589 45.5 42.8621V30.0345C45.5 28.5377 44.1684 27.3966 42.6429 27.3966H41.9643V20.4138C41.9643 18.917 40.6327 17.7759 39.1071 17.7759H32.0357H31.5357V18.2759V20.4138V20.9138H32.0357H38.6071V27.3966H37.9286C36.403 27.3966 35.0714 28.5377 35.0714 30.0345V39.1552H21.6621C21.0998 37.7634 19.8928 36.6801 18.3929 36.1818ZM16.7143 42.3621C15.647 42.3621 14.8571 41.5791 14.8571 40.7241C14.8571 39.8692 15.647 39.0862 16.7143 39.0862C17.7816 39.0862 18.5714 39.8692 18.5714 40.7241C18.5714 41.5791 17.7816 42.3621 16.7143 42.3621ZM38.4286 42.3621V30.5345H42.1429V42.3621H38.4286Z" fill="#0852BF" stroke="white"/>
<path d="M2.40276 25.1274L7.55875 25.7535L7.48539 26.3577L3.09597 28.6758L3.08986 28.7261L7.13813 29.2177L7.06231 29.842L1.90632 29.216L1.97968 28.6118L6.38039 26.2849L6.3865 26.2345L2.32817 25.7417L2.40276 25.1274Z" fill="#0852BF"/>
<path d="M8.72517 22.7672C8.60046 23.096 8.4128 23.3548 8.16217 23.5436C7.91214 23.7309 7.62005 23.8407 7.2859 23.8731C6.95235 23.9039 6.59745 23.848 6.22121 23.7053C5.84181 23.5614 5.5367 23.367 5.30589 23.1222C5.07568 22.8758 4.92908 22.5996 4.86611 22.2936C4.80373 21.9861 4.8349 21.6679 4.9596 21.3391C5.0843 21.0102 5.27167 20.7522 5.5217 20.565C5.77233 20.3761 6.06521 20.2666 6.40034 20.2364C6.73607 20.2046 7.09364 20.2606 7.47304 20.4045C7.84928 20.5472 8.15172 20.7415 8.38035 20.9873C8.60958 21.2315 8.75538 21.5074 8.81776 21.815C8.88073 22.1209 8.84987 22.4383 8.72517 22.7672ZM8.22246 22.5765C8.31719 22.3267 8.3311 22.0969 8.26421 21.8871C8.19731 21.6773 8.07421 21.4941 7.89492 21.3375C7.71563 21.1809 7.50425 21.0565 7.2608 20.9641C7.01736 20.8718 6.77582 20.8245 6.53619 20.8222C6.29656 20.8199 6.08135 20.8748 5.89057 20.9869C5.69979 21.099 5.55703 21.2799 5.46231 21.5297C5.36758 21.7795 5.35446 22.0096 5.42293 22.22C5.49141 22.4304 5.61608 22.6142 5.79696 22.7714C5.97783 22.9286 6.19 23.0534 6.43345 23.1457C6.6769 23.238 6.91765 23.285 7.15569 23.2867C7.39374 23.2884 7.60737 23.2329 7.79657 23.1202C7.98577 23.0075 8.12773 22.8263 8.22246 22.5765Z" fill="#0852BF"/>
<path d="M9.35077 15.4358L9.17059 15.9647C9.07763 15.9416 8.97764 15.9332 8.87061 15.9395C8.76315 15.9434 8.65477 15.9754 8.54546 16.0355C8.43616 16.0957 8.33204 16.1974 8.23312 16.3407C8.0977 16.5369 8.03007 16.7316 8.03023 16.9248C8.02996 17.1157 8.0987 17.2587 8.23645 17.3538C8.3589 17.4383 8.48634 17.4605 8.61877 17.4204C8.7512 17.3804 8.90638 17.282 9.0843 17.1255L9.52965 16.7303C9.79707 16.4916 10.0509 16.3515 10.2913 16.3099C10.5302 16.2674 10.7617 16.3234 10.9857 16.478C11.1694 16.6048 11.2971 16.771 11.3688 16.9766C11.4414 17.1809 11.4547 17.4057 11.4085 17.6512C11.3623 17.8967 11.2533 18.1439 11.0814 18.393C10.8557 18.72 10.5979 18.9416 10.3081 19.058C10.0183 19.1743 9.71729 19.1668 9.40519 19.0356L9.61101 18.4874C9.81428 18.562 10.0018 18.5671 10.1735 18.5029C10.3462 18.4372 10.5022 18.3035 10.6415 18.1017C10.8 17.8721 10.8771 17.6562 10.8728 17.454C10.8682 17.2495 10.797 17.0997 10.6592 17.0046C10.5479 16.9277 10.4278 16.9023 10.2989 16.9284C10.1686 16.9535 10.0289 17.0338 9.87993 17.1693L9.38589 17.6171C9.11367 17.8627 8.85696 18.0039 8.61578 18.0408C8.37417 18.0754 8.14274 18.0163 7.9215 17.8636C7.74062 17.7387 7.61566 17.5775 7.54663 17.3799C7.47856 17.1809 7.46586 16.9657 7.50852 16.7342C7.55214 16.5013 7.65175 16.2722 7.80734 16.0468C8.02632 15.7296 8.26781 15.5285 8.53181 15.4437C8.79677 15.3574 9.06976 15.3548 9.35077 15.4358Z" fill="#0852BF"/>
<path d="M19.4129 7.13122L18.856 7.4235C18.739 7.2806 18.6075 7.17013 18.4615 7.09208C18.317 7.01325 18.1648 6.96331 18.0048 6.94225C17.8455 6.91892 17.6845 6.92322 17.5218 6.95516C17.3591 6.9871 17.2014 7.04314 17.0487 7.12328C16.7702 7.26943 16.5549 7.47218 16.4027 7.73155C16.252 7.99013 16.1819 8.29136 16.1925 8.63525C16.2045 8.97835 16.315 9.34901 16.524 9.74723C16.733 10.1454 16.9753 10.447 17.2508 10.6518C17.5278 10.8558 17.8156 10.9693 18.114 10.9921C18.4139 11.0142 18.7031 10.9522 18.9815 10.806C19.1342 10.7259 19.2699 10.6279 19.3886 10.5122C19.5074 10.3964 19.6028 10.2671 19.6748 10.1242C19.7476 9.97912 19.7926 9.82471 19.8098 9.66102C19.8277 9.49505 19.8115 9.32408 19.7611 9.1481L20.318 8.85582C20.3995 9.11285 20.4335 9.36326 20.4201 9.60704C20.4068 9.85082 20.352 10.081 20.2556 10.2977C20.1585 10.5129 20.0251 10.708 19.8554 10.883C19.6871 11.0572 19.487 11.2052 19.2549 11.327C18.8627 11.5329 18.4636 11.6201 18.0576 11.5888C17.6517 11.5574 17.2684 11.4111 16.9078 11.1497C16.5472 10.8883 16.2397 10.5151 15.9851 10.0301C15.7305 9.54504 15.5981 9.0799 15.5878 8.63467C15.5775 8.18944 15.6748 7.79087 15.8797 7.43896C16.0845 7.08705 16.383 6.80817 16.7752 6.60231C17.0073 6.48053 17.2428 6.39989 17.4817 6.3604C17.7222 6.32012 17.9589 6.32189 18.192 6.36571C18.4242 6.40803 18.6444 6.49293 18.8526 6.62042C19.0601 6.74642 19.2468 6.91668 19.4129 7.13122Z" fill="#0852BF"/>
<path d="M23.0034 9.80325L22.0712 6.02104L22.6326 5.88266L22.7734 6.45393L22.8128 6.44422C22.8356 6.24009 22.923 6.05749 23.0748 5.89643C23.2266 5.73537 23.4158 5.62692 23.6424 5.57109C23.6851 5.56057 23.7386 5.54824 23.803 5.5341C23.8675 5.51996 23.9165 5.51049 23.9501 5.50568L24.0958 6.09665C24.0749 6.09658 24.0279 6.10032 23.9549 6.10787C23.8831 6.11337 23.8087 6.12563 23.7315 6.14465C23.5476 6.18996 23.393 6.269 23.2676 6.38176C23.1433 6.49248 23.056 6.62546 23.0054 6.7807C22.9561 6.9339 22.9525 7.09586 22.9946 7.26659L23.5845 9.66001L23.0034 9.80325Z" fill="#0852BF"/>
<path d="M29.3703 9.08115C28.995 9.08115 28.6712 8.99831 28.399 8.83262C28.1285 8.66524 27.9197 8.43192 27.7726 8.13266C27.6272 7.83172 27.5545 7.48174 27.5545 7.08273C27.5545 6.68372 27.6272 6.33206 27.7726 6.02773C27.9197 5.72171 28.1242 5.48332 28.3863 5.31256C28.65 5.1401 28.9578 5.05388 29.3094 5.05388C29.5123 5.05388 29.7127 5.08769 29.9105 5.15532C30.1083 5.22295 30.2883 5.33285 30.4507 5.48501C30.613 5.63548 30.7423 5.83499 30.8387 6.08352C30.935 6.33206 30.9832 6.63808 30.9832 7.00158V7.25519L27.9805 7.25519V6.73783L30.3746 6.73783C30.3746 6.51803 30.3306 6.32191 30.2427 6.14946C30.1565 5.97701 30.033 5.8409 29.8724 5.74115C29.7135 5.6414 29.5258 5.59152 29.3094 5.59152C29.071 5.59152 28.8648 5.6507 28.6906 5.76905C28.5182 5.88571 28.3854 6.03787 28.2925 6.22554C28.1995 6.41321 28.153 6.61441 28.153 6.82913V7.17403C28.153 7.46821 28.2037 7.71759 28.3051 7.92217C28.4083 8.12506 28.5511 8.27976 28.7337 8.38627C28.9163 8.4911 29.1285 8.54351 29.3703 8.54351C29.5275 8.54351 29.6695 8.52153 29.7963 8.47757C29.9248 8.43192 30.0356 8.36429 30.1286 8.27468C30.2216 8.18339 30.2934 8.07011 30.3441 7.93485L30.9224 8.09716C30.8615 8.29328 30.7592 8.46573 30.6155 8.61452C30.4718 8.76161 30.2943 8.87658 30.0829 8.95942C29.8716 9.04058 29.634 9.08115 29.3703 9.08115Z" fill="#0852BF"/>
<path d="M34.3759 9.78866C34.1363 9.72959 33.9299 9.63083 33.7568 9.4924C33.5841 9.35232 33.4615 9.18193 33.3891 8.98125C33.3171 8.77891 33.3114 8.55463 33.3721 8.30839C33.4255 8.0917 33.5115 7.92657 33.63 7.813C33.749 7.69779 33.8894 7.61921 34.0512 7.57726C34.213 7.5353 34.3848 7.51669 34.5665 7.52142C34.7502 7.52491 34.9327 7.53681 35.114 7.55712C35.3511 7.58422 35.5429 7.60798 35.6894 7.62841C35.8379 7.6476 35.9496 7.64641 36.0246 7.62484C36.1012 7.60367 36.151 7.5463 36.1741 7.45273L36.1789 7.43303C36.2388 7.19008 36.2189 6.98491 36.1191 6.81753C36.0209 6.65055 35.8381 6.53408 35.5705 6.46813C35.2931 6.39975 35.0606 6.40688 34.873 6.48951C34.6855 6.57215 34.5427 6.67452 34.4447 6.79663L33.9417 6.46369C34.0968 6.25815 34.2723 6.11158 34.468 6.024C34.6658 5.93518 34.8686 5.8894 35.0765 5.88666C35.2864 5.88269 35.4866 5.90417 35.677 5.9511C35.7985 5.98104 35.9344 6.03021 36.0847 6.0986C36.2371 6.16575 36.3762 6.26186 36.5021 6.38692C36.6296 6.51239 36.7206 6.67673 36.775 6.87994C36.8294 7.08314 36.8195 7.33495 36.7455 7.63536L36.1313 10.1273L35.5502 9.98405L35.6764 9.47188L35.6469 9.4646C35.5872 9.53697 35.4999 9.60861 35.3849 9.67952C35.2699 9.75043 35.128 9.7999 34.9592 9.82794C34.7903 9.85597 34.5959 9.84288 34.3759 9.78866ZM34.5932 9.28849C34.8231 9.34513 35.0279 9.34773 35.2077 9.29629C35.3892 9.24525 35.5378 9.15823 35.6534 9.03524C35.7707 8.91266 35.8488 8.77257 35.8876 8.61497L36.0187 8.0831C35.9868 8.10658 35.9259 8.12031 35.8362 8.1243C35.7484 8.12705 35.6481 8.12411 35.5354 8.11546C35.4246 8.10557 35.3167 8.09466 35.2117 8.0827C35.1087 8.06951 35.0251 8.05933 34.9606 8.05217C34.8048 8.03464 34.6557 8.03185 34.5134 8.04381C34.3732 8.05452 34.2522 8.09347 34.1503 8.16065C34.0505 8.22659 33.9824 8.33343 33.9459 8.48117C33.8962 8.68309 33.9332 8.85417 34.0571 8.99441C34.1831 9.13341 34.3618 9.23144 34.5932 9.28849Z" fill="#0852BF"/>
<path d="M41.9641 8.63124L41.7284 9.08036L39.9409 8.14222L40.1766 7.6931L41.9641 8.63124ZM41.1313 7.14016L41.6612 7.4183L39.9358 10.7058C39.8572 10.8555 39.82 10.9792 39.8241 11.0768C39.8306 11.1738 39.8615 11.253 39.917 11.3146C39.9748 11.3755 40.0426 11.4264 40.1205 11.4672C40.1789 11.4979 40.2283 11.52 40.2689 11.5337C40.3103 11.5458 40.3433 11.5556 40.3682 11.5629L40.2261 12.0955C40.1831 12.0901 40.1259 12.0773 40.0544 12.0569C39.9822 12.0381 39.8967 12.0028 39.7979 11.9509C39.6482 11.8724 39.5183 11.7632 39.4084 11.6234C39.3 11.4844 39.2332 11.3242 39.208 11.143C39.1843 10.9625 39.2251 10.772 39.3304 10.5714L41.1313 7.14016Z" fill="#0852BF"/>
<path d="M43.1805 14.3165L45.7636 11.4008L46.2116 11.7977L43.6285 14.7134L43.1805 14.3165ZM46.422 11.1166C46.3346 11.0393 46.2857 10.9428 46.2751 10.8273C46.2658 10.7129 46.2981 10.6139 46.3721 10.5304C46.4461 10.4469 46.5405 10.4028 46.6552 10.3983C46.7711 10.3949 46.8728 10.4318 46.9601 10.5092C47.0474 10.5865 47.0957 10.6824 47.1051 10.7968C47.1156 10.9124 47.0839 11.0119 47.0099 11.0954C46.9359 11.179 46.841 11.2224 46.725 11.2259C46.6103 11.2304 46.5093 11.194 46.422 11.1166Z" fill="#0852BF"/>
<path d="M46.9907 18.7581C46.791 18.4687 46.6846 18.1672 46.6715 17.8537C46.6595 17.5415 46.735 17.2387 46.8982 16.9453C47.0623 16.6533 47.3099 16.393 47.6411 16.1645C47.975 15.9339 48.3083 15.7933 48.6409 15.7424C48.9745 15.6929 49.2851 15.7292 49.5727 15.8512C49.8612 15.9745 50.1054 16.1809 50.3051 16.4703C50.5049 16.7598 50.6108 17.0605 50.6229 17.3727C50.6359 17.6862 50.5597 17.9895 50.3942 18.2825C50.2296 18.5768 49.9804 18.8392 49.6465 19.0698C49.3153 19.2983 48.9836 19.4369 48.6514 19.4854C48.3202 19.5353 48.0103 19.4986 47.7218 19.3752C47.4342 19.2532 47.1905 19.0475 46.9907 18.7581ZM47.4332 18.4527C47.585 18.6725 47.7662 18.8145 47.9768 18.8786C48.1875 18.9428 48.4082 18.9455 48.6389 18.8869C48.8697 18.8283 49.0922 18.7251 49.3065 18.5772C49.5207 18.4293 49.6969 18.2574 49.8349 18.0615C49.9729 17.8655 50.0499 17.6572 50.0661 17.4366C50.0822 17.2159 50.0144 16.9956 49.8627 16.7758C49.7109 16.5559 49.529 16.4144 49.3169 16.3512C49.1049 16.2881 48.8828 16.2863 48.6507 16.3458C48.4185 16.4054 48.1953 16.5091 47.9811 16.657C47.7668 16.8049 47.5913 16.9764 47.4547 17.1713C47.3181 17.3663 47.2424 17.5736 47.2277 17.7933C47.213 18.0131 47.2815 18.2328 47.4332 18.4527Z" fill="#0852BF"/>
<path d="M51.2813 21.6945L49.0902 22.5255L48.878 21.9658L52.5202 20.5845L52.7253 21.1252L52.1562 21.341L52.1742 21.3884C52.3915 21.4036 52.5892 21.4769 52.7674 21.6082C52.9472 21.739 53.0893 21.9419 53.1936 22.2169C53.2871 22.4635 53.3183 22.6985 53.2873 22.9218C53.2579 23.1446 53.1607 23.346 52.9957 23.5261C52.8323 23.7056 52.5957 23.8541 52.2859 23.9716L49.9715 24.8493L49.7593 24.2897L52.0357 23.4264C52.3218 23.3178 52.5166 23.159 52.6199 22.9499C52.7248 22.7401 52.728 22.5056 52.6297 22.2463C52.562 22.0677 52.4627 21.9227 52.3319 21.8114C52.2016 21.7017 52.0469 21.6347 51.8678 21.6104C51.6886 21.5861 51.4931 21.6142 51.2813 21.6945Z" fill="#0852BF"/>
<path d="M53.7417 29.3375L53.5259 28.8221C53.6107 28.7777 53.6912 28.7177 53.7671 28.6421C53.845 28.5679 53.9049 28.4721 53.9468 28.3546C53.9887 28.2371 53.9992 28.0919 53.9782 27.919C53.9495 27.6824 53.871 27.4918 53.7427 27.3473C53.6164 27.2042 53.4701 27.1428 53.304 27.163C53.1563 27.1809 53.0461 27.2488 52.9736 27.3666C52.901 27.4844 52.8501 27.6609 52.8207 27.8961L52.7494 28.4872C52.7075 28.8431 52.6104 29.1164 52.4581 29.3069C52.3075 29.4972 52.0971 29.6087 51.8268 29.6415C51.6053 29.6684 51.3995 29.6287 51.2095 29.5223C51.0196 29.4177 50.8606 29.2581 50.7324 29.0438C50.6042 28.8294 50.5218 28.572 50.4853 28.2716C50.4375 27.8772 50.4834 27.5403 50.6232 27.2611C50.763 26.9818 50.9932 26.7878 51.3139 26.6791L51.5233 27.2259C51.3217 27.3049 51.178 27.4254 51.092 27.5874C51.0063 27.7511 50.9782 27.9546 51.0078 28.1979C51.0414 28.4749 51.1268 28.6876 51.2641 28.8362C51.4032 28.9862 51.5559 29.0511 51.722 29.0309C51.8563 29.0146 51.9631 28.954 52.0423 28.849C52.1232 28.7438 52.1745 28.5911 52.1961 28.3909L52.2689 27.728C52.3099 27.3637 52.4083 27.0878 52.5644 26.9002C52.7223 26.7141 52.9347 26.6049 53.2016 26.5725C53.4198 26.546 53.6202 26.5838 53.803 26.6859C53.9859 26.7898 54.1381 26.9424 54.2597 27.144C54.3814 27.3472 54.4588 27.5848 54.4918 27.8567C54.5383 28.2393 54.4908 28.55 54.3495 28.7885C54.2084 29.0288 54.0058 29.2118 53.7417 29.3375Z" fill="#0852BF"/>
</svg>
