<svg width="59" height="58" viewBox="0 0 59 58" fill="none" xmlns="http://www.w3.org/2000/svg">
<circle cx="29" cy="29" r="29" fill="#DBFF00"/>
<mask id="path-2-outside-1_41_391" maskUnits="userSpaceOnUse" x="11" y="13" width="35" height="32" fill="black">
<rect fill="white" x="11" y="13" width="35" height="32"/>
<path d="M45 32.7502V44H28.5V32.7502H32.625V29.0002H40.875V32.7502H45ZM34.6875 32.7502H38.8125V30.8752H34.6875V32.7502ZM42.9375 38.3751H40.875V40.2501H38.8125V38.3751H34.6875V40.2501H32.625V38.3751H30.5625V42.125H42.9375V38.3751ZM42.9375 34.6251H30.5625V36.5001H42.9375V34.6251ZM37.2173 27.1253C36.6372 26.5296 35.9497 26.0706 35.1548 25.7483C34.3599 25.4261 33.5166 25.2601 32.625 25.2503C31.7656 25.2503 30.9653 25.3968 30.2241 25.6897C29.4829 25.9827 28.8276 26.3831 28.2583 26.8909C27.689 27.3987 27.2432 27.9993 26.9209 28.6926C26.5986 29.386 26.4375 30.1135 26.4375 30.8752C26.4375 31.7736 26.2173 32.6183 25.7769 33.4093C25.3364 34.2003 24.7134 34.8644 23.9077 35.4015C24.3911 35.6261 24.8423 35.8849 25.2612 36.1779C25.6802 36.4708 26.0723 36.8028 26.4375 37.1739V42.125C26.4375 41.3536 26.2764 40.626 25.9541 39.9424C25.6318 39.2589 25.1914 38.6632 24.6328 38.1554C24.0742 37.6476 23.4136 37.2423 22.6509 36.9396C21.8882 36.6368 21.0879 36.4903 20.25 36.5001C19.3906 36.5001 18.5903 36.6466 17.8491 36.9396C17.1079 37.2325 16.4526 37.6329 15.8833 38.1407C15.314 38.6485 14.8682 39.2491 14.5459 39.9424C14.2236 40.6358 14.0625 41.3633 14.0625 42.125H12C12 41.4121 12.1074 40.7237 12.3223 40.0596C12.5371 39.3956 12.8433 38.7657 13.2407 38.17C13.6382 37.5743 14.1216 37.047 14.6909 36.588C15.2603 36.129 15.894 35.7335 16.5923 35.4015C15.7974 34.8742 15.1797 34.215 14.7393 33.424C14.2988 32.633 14.0732 31.7834 14.0625 30.8752C14.0625 30.1037 14.2236 29.3762 14.5459 28.6926C14.8682 28.009 15.3086 27.4133 15.8672 26.9055C16.4258 26.3977 17.0811 25.9925 17.833 25.6897C18.585 25.387 19.3906 25.2405 20.25 25.2503C21.2383 25.2503 22.1675 25.4505 23.0376 25.8509C23.9077 26.2512 24.6382 26.8176 25.229 27.5501C25.6372 26.8176 26.1582 26.1634 26.792 25.5872C27.4258 25.011 28.1509 24.5325 28.9673 24.1517C28.1724 23.6243 27.5547 22.9652 27.1143 22.1742C26.6738 21.3832 26.4482 20.5336 26.4375 19.6254C26.4375 18.8539 26.5986 18.1264 26.9209 17.4428C27.2432 16.7592 27.6836 16.1635 28.2422 15.6557C28.8008 15.1479 29.4561 14.7426 30.208 14.4399C30.96 14.1372 31.7656 13.9907 32.625 14.0005C33.4736 14.0005 34.2739 14.1469 35.0259 14.4399C35.7778 14.7329 36.4331 15.1333 36.9917 15.6411C37.5503 16.1489 37.9961 16.7494 38.3291 17.4428C38.6621 18.1361 38.8232 18.8637 38.8125 19.6254C38.8125 20.5238 38.5923 21.3685 38.1519 22.1595C37.7114 22.9505 37.0884 23.6146 36.2827 24.1517C37.0132 24.4837 37.6738 24.8987 38.2647 25.3968C38.8555 25.8948 39.355 26.471 39.7632 27.1253H37.2173ZM20.25 34.6251C20.8193 34.6251 21.3511 34.5275 21.8452 34.3322C22.3394 34.1369 22.7798 33.8683 23.1665 33.5265C23.5532 33.1847 23.8486 32.7892 24.0527 32.34C24.2568 31.8908 24.3643 31.4025 24.375 30.8752C24.375 30.3576 24.2676 29.8742 24.0527 29.425C23.8379 28.9758 23.5425 28.5754 23.1665 28.2239C22.7905 27.8723 22.3555 27.6038 21.8613 27.4182C21.3672 27.2327 20.8301 27.135 20.25 27.1253C19.6807 27.1253 19.1489 27.2229 18.6548 27.4182C18.1606 27.6135 17.7202 27.8821 17.3335 28.2239C16.9468 28.5657 16.6514 28.9612 16.4473 29.4104C16.2432 29.8596 16.1357 30.3479 16.125 30.8752C16.125 31.3928 16.2324 31.8762 16.4473 32.3254C16.6621 32.7746 16.9575 33.175 17.3335 33.5265C17.7095 33.8781 18.1445 34.1466 18.6387 34.3322C19.1328 34.5177 19.6699 34.6154 20.25 34.6251ZM28.5 19.6254C28.5 20.1429 28.6074 20.6263 28.8223 21.0755C29.0371 21.5248 29.3325 21.9251 29.7085 22.2767C30.0845 22.6283 30.5195 22.8968 31.0137 23.0824C31.5078 23.2679 32.0449 23.3655 32.625 23.3753C33.1943 23.3753 33.7261 23.2777 34.2202 23.0824C34.7144 22.887 35.1548 22.6185 35.5415 22.2767C35.9282 21.9349 36.2236 21.5394 36.4277 21.0902C36.6318 20.641 36.7393 20.1527 36.75 19.6254C36.75 19.1078 36.6426 18.6244 36.4277 18.1752C36.2129 17.726 35.9175 17.3256 35.5415 16.974C35.1655 16.6225 34.7305 16.3539 34.2363 16.1684C33.7422 15.9828 33.2051 15.8852 32.625 15.8754C32.0557 15.8754 31.5239 15.9731 31.0298 16.1684C30.5356 16.3637 30.0952 16.6323 29.7085 16.974C29.3218 17.3158 29.0264 17.7113 28.8223 18.1606C28.6182 18.6098 28.5107 19.098 28.5 19.6254Z"/>
</mask>
<path d="M45 32.7502V44H28.5V32.7502H32.625V29.0002H40.875V32.7502H45ZM34.6875 32.7502H38.8125V30.8752H34.6875V32.7502ZM42.9375 38.3751H40.875V40.2501H38.8125V38.3751H34.6875V40.2501H32.625V38.3751H30.5625V42.125H42.9375V38.3751ZM42.9375 34.6251H30.5625V36.5001H42.9375V34.6251ZM37.2173 27.1253C36.6372 26.5296 35.9497 26.0706 35.1548 25.7483C34.3599 25.4261 33.5166 25.2601 32.625 25.2503C31.7656 25.2503 30.9653 25.3968 30.2241 25.6897C29.4829 25.9827 28.8276 26.3831 28.2583 26.8909C27.689 27.3987 27.2432 27.9993 26.9209 28.6926C26.5986 29.386 26.4375 30.1135 26.4375 30.8752C26.4375 31.7736 26.2173 32.6183 25.7769 33.4093C25.3364 34.2003 24.7134 34.8644 23.9077 35.4015C24.3911 35.6261 24.8423 35.8849 25.2612 36.1779C25.6802 36.4708 26.0723 36.8028 26.4375 37.1739V42.125C26.4375 41.3536 26.2764 40.626 25.9541 39.9424C25.6318 39.2589 25.1914 38.6632 24.6328 38.1554C24.0742 37.6476 23.4136 37.2423 22.6509 36.9396C21.8882 36.6368 21.0879 36.4903 20.25 36.5001C19.3906 36.5001 18.5903 36.6466 17.8491 36.9396C17.1079 37.2325 16.4526 37.6329 15.8833 38.1407C15.314 38.6485 14.8682 39.2491 14.5459 39.9424C14.2236 40.6358 14.0625 41.3633 14.0625 42.125H12C12 41.4121 12.1074 40.7237 12.3223 40.0596C12.5371 39.3956 12.8433 38.7657 13.2407 38.17C13.6382 37.5743 14.1216 37.047 14.6909 36.588C15.2603 36.129 15.894 35.7335 16.5923 35.4015C15.7974 34.8742 15.1797 34.215 14.7393 33.424C14.2988 32.633 14.0732 31.7834 14.0625 30.8752C14.0625 30.1037 14.2236 29.3762 14.5459 28.6926C14.8682 28.009 15.3086 27.4133 15.8672 26.9055C16.4258 26.3977 17.0811 25.9925 17.833 25.6897C18.585 25.387 19.3906 25.2405 20.25 25.2503C21.2383 25.2503 22.1675 25.4505 23.0376 25.8509C23.9077 26.2512 24.6382 26.8176 25.229 27.5501C25.6372 26.8176 26.1582 26.1634 26.792 25.5872C27.4258 25.011 28.1509 24.5325 28.9673 24.1517C28.1724 23.6243 27.5547 22.9652 27.1143 22.1742C26.6738 21.3832 26.4482 20.5336 26.4375 19.6254C26.4375 18.8539 26.5986 18.1264 26.9209 17.4428C27.2432 16.7592 27.6836 16.1635 28.2422 15.6557C28.8008 15.1479 29.4561 14.7426 30.208 14.4399C30.96 14.1372 31.7656 13.9907 32.625 14.0005C33.4736 14.0005 34.2739 14.1469 35.0259 14.4399C35.7778 14.7329 36.4331 15.1333 36.9917 15.6411C37.5503 16.1489 37.9961 16.7494 38.3291 17.4428C38.6621 18.1361 38.8232 18.8637 38.8125 19.6254C38.8125 20.5238 38.5923 21.3685 38.1519 22.1595C37.7114 22.9505 37.0884 23.6146 36.2827 24.1517C37.0132 24.4837 37.6738 24.8987 38.2647 25.3968C38.8555 25.8948 39.355 26.471 39.7632 27.1253H37.2173ZM20.25 34.6251C20.8193 34.6251 21.3511 34.5275 21.8452 34.3322C22.3394 34.1369 22.7798 33.8683 23.1665 33.5265C23.5532 33.1847 23.8486 32.7892 24.0527 32.34C24.2568 31.8908 24.3643 31.4025 24.375 30.8752C24.375 30.3576 24.2676 29.8742 24.0527 29.425C23.8379 28.9758 23.5425 28.5754 23.1665 28.2239C22.7905 27.8723 22.3555 27.6038 21.8613 27.4182C21.3672 27.2327 20.8301 27.135 20.25 27.1253C19.6807 27.1253 19.1489 27.2229 18.6548 27.4182C18.1606 27.6135 17.7202 27.8821 17.3335 28.2239C16.9468 28.5657 16.6514 28.9612 16.4473 29.4104C16.2432 29.8596 16.1357 30.3479 16.125 30.8752C16.125 31.3928 16.2324 31.8762 16.4473 32.3254C16.6621 32.7746 16.9575 33.175 17.3335 33.5265C17.7095 33.8781 18.1445 34.1466 18.6387 34.3322C19.1328 34.5177 19.6699 34.6154 20.25 34.6251ZM28.5 19.6254C28.5 20.1429 28.6074 20.6263 28.8223 21.0755C29.0371 21.5248 29.3325 21.9251 29.7085 22.2767C30.0845 22.6283 30.5195 22.8968 31.0137 23.0824C31.5078 23.2679 32.0449 23.3655 32.625 23.3753C33.1943 23.3753 33.7261 23.2777 34.2202 23.0824C34.7144 22.887 35.1548 22.6185 35.5415 22.2767C35.9282 21.9349 36.2236 21.5394 36.4277 21.0902C36.6318 20.641 36.7393 20.1527 36.75 19.6254C36.75 19.1078 36.6426 18.6244 36.4277 18.1752C36.2129 17.726 35.9175 17.3256 35.5415 16.974C35.1655 16.6225 34.7305 16.3539 34.2363 16.1684C33.7422 15.9828 33.2051 15.8852 32.625 15.8754C32.0557 15.8754 31.5239 15.9731 31.0298 16.1684C30.5356 16.3637 30.0952 16.6323 29.7085 16.974C29.3218 17.3158 29.0264 17.7113 28.8223 18.1606C28.6182 18.6098 28.5107 19.098 28.5 19.6254Z" fill="#0852BF"/>
<path d="M45 32.7502V44H28.5V32.7502H32.625V29.0002H40.875V32.7502H45ZM34.6875 32.7502H38.8125V30.8752H34.6875V32.7502ZM42.9375 38.3751H40.875V40.2501H38.8125V38.3751H34.6875V40.2501H32.625V38.3751H30.5625V42.125H42.9375V38.3751ZM42.9375 34.6251H30.5625V36.5001H42.9375V34.6251ZM37.2173 27.1253C36.6372 26.5296 35.9497 26.0706 35.1548 25.7483C34.3599 25.4261 33.5166 25.2601 32.625 25.2503C31.7656 25.2503 30.9653 25.3968 30.2241 25.6897C29.4829 25.9827 28.8276 26.3831 28.2583 26.8909C27.689 27.3987 27.2432 27.9993 26.9209 28.6926C26.5986 29.386 26.4375 30.1135 26.4375 30.8752C26.4375 31.7736 26.2173 32.6183 25.7769 33.4093C25.3364 34.2003 24.7134 34.8644 23.9077 35.4015C24.3911 35.6261 24.8423 35.8849 25.2612 36.1779C25.6802 36.4708 26.0723 36.8028 26.4375 37.1739V42.125C26.4375 41.3536 26.2764 40.626 25.9541 39.9424C25.6318 39.2589 25.1914 38.6632 24.6328 38.1554C24.0742 37.6476 23.4136 37.2423 22.6509 36.9396C21.8882 36.6368 21.0879 36.4903 20.25 36.5001C19.3906 36.5001 18.5903 36.6466 17.8491 36.9396C17.1079 37.2325 16.4526 37.6329 15.8833 38.1407C15.314 38.6485 14.8682 39.2491 14.5459 39.9424C14.2236 40.6358 14.0625 41.3633 14.0625 42.125H12C12 41.4121 12.1074 40.7237 12.3223 40.0596C12.5371 39.3956 12.8433 38.7657 13.2407 38.17C13.6382 37.5743 14.1216 37.047 14.6909 36.588C15.2603 36.129 15.894 35.7335 16.5923 35.4015C15.7974 34.8742 15.1797 34.215 14.7393 33.424C14.2988 32.633 14.0732 31.7834 14.0625 30.8752C14.0625 30.1037 14.2236 29.3762 14.5459 28.6926C14.8682 28.009 15.3086 27.4133 15.8672 26.9055C16.4258 26.3977 17.0811 25.9925 17.833 25.6897C18.585 25.387 19.3906 25.2405 20.25 25.2503C21.2383 25.2503 22.1675 25.4505 23.0376 25.8509C23.9077 26.2512 24.6382 26.8176 25.229 27.5501C25.6372 26.8176 26.1582 26.1634 26.792 25.5872C27.4258 25.011 28.1509 24.5325 28.9673 24.1517C28.1724 23.6243 27.5547 22.9652 27.1143 22.1742C26.6738 21.3832 26.4482 20.5336 26.4375 19.6254C26.4375 18.8539 26.5986 18.1264 26.9209 17.4428C27.2432 16.7592 27.6836 16.1635 28.2422 15.6557C28.8008 15.1479 29.4561 14.7426 30.208 14.4399C30.96 14.1372 31.7656 13.9907 32.625 14.0005C33.4736 14.0005 34.2739 14.1469 35.0259 14.4399C35.7778 14.7329 36.4331 15.1333 36.9917 15.6411C37.5503 16.1489 37.9961 16.7494 38.3291 17.4428C38.6621 18.1361 38.8232 18.8637 38.8125 19.6254C38.8125 20.5238 38.5923 21.3685 38.1519 22.1595C37.7114 22.9505 37.0884 23.6146 36.2827 24.1517C37.0132 24.4837 37.6738 24.8987 38.2647 25.3968C38.8555 25.8948 39.355 26.471 39.7632 27.1253H37.2173ZM20.25 34.6251C20.8193 34.6251 21.3511 34.5275 21.8452 34.3322C22.3394 34.1369 22.7798 33.8683 23.1665 33.5265C23.5532 33.1847 23.8486 32.7892 24.0527 32.34C24.2568 31.8908 24.3643 31.4025 24.375 30.8752C24.375 30.3576 24.2676 29.8742 24.0527 29.425C23.8379 28.9758 23.5425 28.5754 23.1665 28.2239C22.7905 27.8723 22.3555 27.6038 21.8613 27.4182C21.3672 27.2327 20.8301 27.135 20.25 27.1253C19.6807 27.1253 19.1489 27.2229 18.6548 27.4182C18.1606 27.6135 17.7202 27.8821 17.3335 28.2239C16.9468 28.5657 16.6514 28.9612 16.4473 29.4104C16.2432 29.8596 16.1357 30.3479 16.125 30.8752C16.125 31.3928 16.2324 31.8762 16.4473 32.3254C16.6621 32.7746 16.9575 33.175 17.3335 33.5265C17.7095 33.8781 18.1445 34.1466 18.6387 34.3322C19.1328 34.5177 19.6699 34.6154 20.25 34.6251ZM28.5 19.6254C28.5 20.1429 28.6074 20.6263 28.8223 21.0755C29.0371 21.5248 29.3325 21.9251 29.7085 22.2767C30.0845 22.6283 30.5195 22.8968 31.0137 23.0824C31.5078 23.2679 32.0449 23.3655 32.625 23.3753C33.1943 23.3753 33.7261 23.2777 34.2202 23.0824C34.7144 22.887 35.1548 22.6185 35.5415 22.2767C35.9282 21.9349 36.2236 21.5394 36.4277 21.0902C36.6318 20.641 36.7393 20.1527 36.75 19.6254C36.75 19.1078 36.6426 18.6244 36.4277 18.1752C36.2129 17.726 35.9175 17.3256 35.5415 16.974C35.1655 16.6225 34.7305 16.3539 34.2363 16.1684C33.7422 15.9828 33.2051 15.8852 32.625 15.8754C32.0557 15.8754 31.5239 15.9731 31.0298 16.1684C30.5356 16.3637 30.0952 16.6323 29.7085 16.974C29.3218 17.3158 29.0264 17.7113 28.8223 18.1606C28.6182 18.6098 28.5107 19.098 28.5 19.6254Z" stroke="white" stroke-width="2" mask="url(#path-2-outside-1_41_391)"/>
<path d="M2.80613 27.3639H8V27.9726L3.922 30.8029V30.8536L8 30.8536V31.4825L2.80613 31.4825L2.80613 30.8739L6.89427 28.0335V27.9827H2.80613L2.80613 27.3639Z" fill="#0852BF"/>
<path d="M8.91384 23.8369C8.82282 24.1766 8.66212 24.4529 8.43174 24.666C8.2018 24.8775 7.92223 25.0161 7.59303 25.0819C7.26427 25.1461 6.90555 25.1261 6.51687 25.022C6.12492 24.917 5.80182 24.7542 5.54757 24.5338C5.29375 24.3118 5.12014 24.0517 5.02672 23.7536C4.93375 23.4539 4.93277 23.1342 5.02379 22.7945C5.11481 22.4548 5.27529 22.1793 5.50523 21.9678C5.7356 21.7548 6.01599 21.6164 6.34639 21.5526C6.67722 21.4872 7.03861 21.507 7.43055 21.6121C7.81923 21.7162 8.13966 21.8791 8.39185 22.1007C8.64447 22.3207 8.81727 22.5805 8.91025 22.8802C9.00366 23.1783 9.00486 23.4972 8.91384 23.8369ZM8.39451 23.6977C8.46365 23.4397 8.4544 23.2097 8.36675 23.0076C8.2791 22.8056 8.13821 22.6357 7.94409 22.4979C7.74996 22.3601 7.52715 22.2576 7.27565 22.1902C7.02415 22.1228 6.77908 22.1 6.54043 22.1218C6.30179 22.1436 6.09319 22.2199 5.91464 22.3506C5.7361 22.4813 5.61225 22.6757 5.54311 22.9337C5.47397 23.1917 5.48405 23.422 5.57333 23.6244C5.66261 23.8269 5.80513 23.9972 6.00089 24.1354C6.19665 24.2737 6.42028 24.3765 6.67178 24.4439C6.92327 24.5112 7.16753 24.5338 7.40454 24.5115C7.64155 24.4893 7.84851 24.4126 8.02543 24.2815C8.20234 24.1503 8.32537 23.9557 8.39451 23.6977Z" fill="#0852BF"/>
<path d="M8.17492 15.8681L8.61418 16.1217L7.60483 17.87L7.16557 17.6164L8.17492 15.8681ZM6.65151 16.6402L6.95077 16.1219L10.1661 17.9783C10.3126 18.0628 10.4346 18.105 10.5324 18.1048C10.6295 18.1023 10.7099 18.0745 10.7737 18.0216C10.8369 17.9663 10.8904 17.9006 10.9344 17.8244C10.9673 17.7673 10.9915 17.7188 11.0067 17.6788C11.0206 17.6379 11.0316 17.6053 11.0399 17.5808L11.5664 17.7442C11.5593 17.7869 11.5441 17.8436 11.5209 17.9142C11.4992 17.9856 11.4605 18.0696 11.4047 18.1662C11.3202 18.3127 11.2058 18.438 11.0617 18.5422C10.9184 18.6449 10.7558 18.7052 10.5737 18.7231C10.3924 18.7395 10.2037 18.691 10.0075 18.5778L6.65151 16.6402Z" fill="#0852BF"/>
<path d="M13.8848 14.8878L11.1304 12.1333L11.5392 11.7245L11.9553 12.1405L11.984 12.1118C11.8979 11.9253 11.8781 11.7239 11.9248 11.5075C11.9714 11.2911 12.0772 11.1004 12.2422 10.9354C12.2733 10.9043 12.3127 10.8661 12.3605 10.8206C12.4084 10.7752 12.4454 10.7417 12.4717 10.7202L12.9021 11.1506C12.8842 11.1614 12.8459 11.1889 12.7873 11.2331C12.7288 11.2749 12.6714 11.324 12.6152 11.3801C12.4813 11.514 12.3898 11.6617 12.3408 11.8231C12.2918 11.9821 12.2858 12.1411 12.3229 12.3001C12.3599 12.4567 12.4406 12.5972 12.565 12.7215L14.308 14.4646L13.8848 14.8878Z" fill="#0852BF"/>
<path d="M19.3412 10.7614C19.0162 10.9491 18.6944 11.0392 18.3758 11.0318C18.0578 11.0221 17.7603 10.9245 17.4833 10.7388C17.2069 10.5509 16.969 10.2842 16.7695 9.93863C16.57 9.59308 16.4571 9.25218 16.4308 8.91592C16.4052 8.57735 16.4632 8.26861 16.6048 7.9897C16.7469 7.70847 16.9703 7.47995 17.2749 7.30411C17.4506 7.20267 17.641 7.13178 17.8461 7.09144C18.0512 7.0511 18.2621 7.05624 18.4788 7.10687C18.6946 7.15603 18.9063 7.26413 19.1141 7.43118C19.3218 7.59824 19.5165 7.83916 19.6983 8.15397L19.8251 8.3736L17.2247 9.87495L16.966 9.4269L19.0393 8.22988C18.9294 8.03953 18.7933 7.89167 18.6309 7.78628C18.47 7.68004 18.2951 7.62388 18.1061 7.6178C17.9186 7.61088 17.7311 7.66152 17.5437 7.76973C17.3372 7.88892 17.1882 8.0433 17.0966 8.23287C17.0055 8.42012 16.9667 8.61826 16.98 8.82728C16.9933 9.0363 17.0536 9.23379 17.161 9.41974L17.3334 9.71844C17.4805 9.97321 17.6491 10.1638 17.8393 10.2903C18.03 10.4144 18.2311 10.4769 18.4425 10.4779C18.6531 10.4774 18.863 10.4167 19.0724 10.2958C19.2086 10.2172 19.3206 10.1271 19.4084 10.0257C19.4969 9.92187 19.559 9.80793 19.5947 9.68384C19.6296 9.55828 19.6352 9.42425 19.6114 9.28175L20.1934 9.1332C20.2387 9.33348 20.2364 9.53397 20.1863 9.73468C20.1354 9.93392 20.0391 10.1222 19.8975 10.2997C19.7551 10.4756 19.5696 10.6295 19.3412 10.7614Z" fill="#0852BF"/>
<path d="M28.6567 8V2.80613L31.7913 2.80613V3.36407L29.2857 3.36407V5.11903L31.629 5.11903V5.67696L29.2857 5.67696V7.44207L31.8319 7.44207V8H28.6567Z" fill="#0852BF"/>
<path d="M36.4095 10.513L36.9425 8.52384L36.8935 8.51072C36.8327 8.56793 36.749 8.63829 36.6426 8.72181C36.5367 8.80369 36.4001 8.86598 36.2329 8.90869C36.0661 8.94977 35.8618 8.93793 35.6201 8.87316C35.3066 8.78915 35.051 8.63577 34.8534 8.41303C34.6562 8.18866 34.5288 7.91297 34.4711 7.58596C34.4139 7.25732 34.4387 6.89375 34.5454 6.49528C34.6513 6.10007 34.811 5.77527 35.0244 5.5209C35.2379 5.26653 35.4867 5.09252 35.7708 4.99887C36.055 4.90522 36.3555 4.90085 36.6723 4.98574C36.9172 5.05138 37.0998 5.14406 37.22 5.26378C37.3423 5.38231 37.4272 5.50309 37.4748 5.6261C37.5244 5.74792 37.5617 5.84718 37.5866 5.92388L37.6552 5.94226L37.8154 5.34454L38.3739 5.4942L36.9876 10.6679L36.4095 10.513ZM35.8377 8.37484C36.0696 8.43698 36.2817 8.42906 36.4742 8.3511C36.667 8.2715 36.834 8.13507 36.975 7.94182C37.1165 7.74694 37.2253 7.50741 37.3015 7.22325C37.3767 6.94236 37.4018 6.68564 37.3766 6.45309C37.3518 6.2189 37.2751 6.02158 37.1466 5.86111C37.0185 5.69901 36.8369 5.58646 36.6017 5.52344C36.3567 5.45781 36.1358 5.46598 35.9388 5.54797C35.7438 5.62877 35.5769 5.76519 35.4379 5.95725C35.301 6.14811 35.1971 6.37582 35.1262 6.64038C35.0544 6.90821 35.0301 7.16249 35.0531 7.4032C35.0782 7.64272 35.1543 7.84865 35.2814 8.02098C35.4105 8.19213 35.596 8.31008 35.8377 8.37484Z" fill="#0852BF"/>
<path d="M42.616 10.1846L43.7674 8.19038L44.2857 8.48964L42.338 11.8632L41.8197 11.5639L42.1494 10.9929L42.1143 10.9726C41.9363 11.0982 41.7292 11.1729 41.4929 11.1966C41.2575 11.2188 41.0125 11.1564 40.7577 11.0093C40.5468 10.8876 40.3861 10.7333 40.2753 10.5463C40.1654 10.3579 40.1177 10.143 40.1322 9.90147C40.1476 9.65848 40.2381 9.3935 40.4038 9.10652L41.6414 6.96293L42.1597 7.26218L40.9424 9.37063C40.8004 9.61662 40.7559 9.85255 40.809 10.0784C40.8636 10.3052 40.9985 10.4807 41.2137 10.6049C41.3426 10.6793 41.4926 10.722 41.6639 10.7331C41.8367 10.745 42.0077 10.709 42.1771 10.6253C42.348 10.5423 42.4943 10.3955 42.616 10.1846Z" fill="#0852BF"/>
<path d="M45.0443 14.2083L47.7988 11.4538L48.222 11.877L45.4675 14.6315L45.0443 14.2083ZM48.473 11.2099C48.3906 11.1274 48.3475 11.0282 48.3439 10.9122C48.3415 10.7975 48.3798 10.7006 48.4587 10.6217C48.5376 10.5428 48.6344 10.5046 48.7492 10.507C48.8652 10.5105 48.9644 10.5536 49.0469 10.6361C49.1294 10.7186 49.1718 10.8172 49.1742 10.932C49.1778 11.0479 49.1401 11.1454 49.0612 11.2243C48.9823 11.3032 48.8849 11.3408 48.7689 11.3372C48.6542 11.3349 48.5555 11.2924 48.473 11.2099Z" fill="#0852BF"/>
<path d="M46.7871 18.5322L51.4257 15.8541L51.7148 16.3548L51.1789 16.6642L51.2144 16.7257C51.295 16.73 51.4001 16.7396 51.5298 16.7545C51.6617 16.7701 51.8004 16.8209 51.9457 16.9068C52.0933 16.9934 52.2305 17.1465 52.3573 17.3661C52.5213 17.6502 52.5948 17.9416 52.5779 18.2403C52.561 18.539 52.4573 18.8243 52.2668 19.0963C52.0764 19.3683 51.804 19.6066 51.4496 19.8112C51.0924 20.0175 50.7476 20.1355 50.4154 20.1653C50.0846 20.1942 49.7853 20.1425 49.5175 20.0101C49.2512 19.8769 49.0369 19.6697 48.8746 19.3886C48.7495 19.1719 48.6852 18.9776 48.6817 18.8059C48.6797 18.6333 48.7045 18.4853 48.7562 18.3617C48.8093 18.2373 48.8556 18.1384 48.8952 18.0648L48.8698 18.0209L47.0864 19.0505L46.7871 18.5322ZM50.0332 17.3375C49.7784 17.4846 49.5752 17.6517 49.4236 17.8388C49.2734 18.025 49.1848 18.2216 49.1579 18.4285C49.1324 18.6346 49.1796 18.8415 49.2997 19.0495C49.4248 19.2662 49.5863 19.414 49.7842 19.493C49.9844 19.5727 50.203 19.5929 50.44 19.5537C50.6793 19.5151 50.919 19.4264 51.1592 19.2878C51.3964 19.1508 51.589 18.9908 51.7371 18.8077C51.8875 18.6252 51.976 18.4287 52.0028 18.218C52.0318 18.0079 51.983 17.7931 51.8562 17.5735C51.7344 17.3626 51.5787 17.2163 51.389 17.1345C51.2007 17.0519 50.9903 17.0289 50.7576 17.0656C50.5265 17.1015 50.285 17.1921 50.0332 17.3375Z" fill="#0852BF"/>
<path d="M50.9063 24.6265C50.8091 24.2639 50.8054 23.9298 50.8949 23.6239C50.9866 23.3193 51.1579 23.0573 51.4089 22.8377C51.662 22.6194 51.9812 22.4586 52.3666 22.3553C52.752 22.252 53.1105 22.2312 53.4421 22.2929C53.7758 22.3558 54.059 22.4917 54.2918 22.7006C54.5266 22.9108 54.6895 23.1857 54.7806 23.5254C54.8331 23.7213 54.8523 23.9236 54.8381 24.1322C54.824 24.3408 54.7645 24.5431 54.6595 24.7393C54.5562 24.935 54.3969 25.1116 54.1818 25.269C53.9667 25.4264 53.6836 25.5522 53.3324 25.6462L53.0875 25.7119L52.3103 22.8115L52.8101 22.6776L53.4297 24.9901C53.642 24.9332 53.82 24.8399 53.9639 24.7104C54.1081 24.5825 54.2076 24.428 54.2624 24.2471C54.3176 24.0677 54.3173 23.8736 54.2612 23.6645C54.1995 23.4342 54.089 23.2503 53.9296 23.1127C53.7723 22.9764 53.591 22.8875 53.3856 22.8463C53.1803 22.805 52.9739 22.8122 52.7665 22.8678L52.4333 22.9571C52.1492 23.0332 51.9214 23.1467 51.7501 23.2977C51.5808 23.4498 51.4683 23.6278 51.4127 23.8318C51.3587 24.0353 51.363 24.2538 51.4256 24.4873C51.4663 24.6392 51.5243 24.7707 51.5996 24.8818C51.6769 24.9941 51.7709 25.0836 51.8815 25.1502C51.9938 25.2164 52.1218 25.2565 52.2656 25.2705L52.2584 25.871C52.0532 25.863 51.8602 25.8088 51.6793 25.7085C51.5 25.6077 51.343 25.466 51.2083 25.2833C51.0752 25.1002 50.9745 24.8813 50.9063 24.6265Z" fill="#0852BF"/>
</svg>
