<svg width="58" height="58" viewBox="0 0 58 58" fill="none" xmlns="http://www.w3.org/2000/svg">
<circle cx="29" cy="29" r="29" fill="#DBFF00"/>
<mask id="path-2-outside-1_41_392" maskUnits="userSpaceOnUse" x="11.6724" y="12" width="36" height="33" fill="black">
<rect fill="white" x="11.6724" y="12" width="36" height="33"/>
<path d="M21.2228 14.5249C22.6347 13.5323 24.3583 12.9969 26.1294 13.0008C26.7411 12.9881 27.3463 13.1188 27.8891 13.3808C28.432 13.6429 28.8948 14.0278 29.2349 14.4999C29.5749 14.0278 30.0378 13.6429 30.5806 13.3808C31.1234 13.1188 31.7287 12.9881 32.3403 13.0008C34.1114 12.9969 35.8351 13.5323 37.247 14.5249C38.3339 15.309 39.1724 16.3949 39.4684 17.7075C40.1475 17.7556 40.7686 18.0169 41.2903 18.4109C42.0812 19.0067 42.6567 19.9004 43.019 20.8459C43.5863 22.3162 43.7395 24.19 43.1515 25.7852C43.3006 25.8505 43.4476 25.9274 43.5904 26.0158C44.1597 26.3675 44.5924 26.871 44.9113 27.4649C45.5386 28.6276 45.7974 30.2497 45.7974 32.2196C45.7974 34.4125 44.8968 35.8846 43.754 36.7937C43.122 37.2967 42.3762 37.6612 41.5719 37.8603C41.3648 38.9327 40.7851 40.1742 39.8763 41.2274C38.6962 42.6016 36.866 43.7509 34.4106 43.7509C32.4646 43.7509 30.916 42.7515 29.9098 41.7713C29.6692 41.5373 29.4439 41.2902 29.2349 41.0314C29.0259 41.2902 28.8005 41.5373 28.5599 41.7713C27.5538 42.7515 26.0072 43.7509 24.0591 43.7509C21.6037 43.7509 19.7756 42.6016 18.5935 41.2274C17.7441 40.2483 17.1624 39.0932 16.8979 37.8603C16.0935 37.6612 15.3477 37.2967 14.7158 36.7937C13.5729 35.8846 12.6724 34.4105 12.6724 32.2196C12.6724 30.2497 12.9332 28.6257 13.5585 27.4649C13.8548 26.8825 14.3102 26.3822 14.8793 26.0139C15.0191 25.9279 15.1659 25.8521 15.3182 25.7871C14.7303 24.1881 14.8835 22.3162 15.4507 20.8459C15.813 19.9004 16.3886 19.0067 17.1794 18.4109C17.7012 18.0169 18.3222 17.7575 19.0013 17.7075C19.2994 16.3949 20.1358 15.309 21.2228 14.5249ZM28.1997 17.8055V17.7863L28.1956 17.6902C28.1651 17.1892 28.0577 16.6948 27.8767 16.2219C27.7479 15.8649 27.5285 15.542 27.237 15.2802C26.9312 15.033 26.5344 14.9049 26.1294 14.9227C24.8188 14.9186 23.5424 15.3112 22.4939 16.0413C21.5333 16.7351 20.9536 17.6748 20.9536 18.7665C20.9535 18.9187 20.9144 19.0686 20.8397 19.2041C20.7649 19.3395 20.6565 19.4565 20.5235 19.5454C20.3905 19.6344 20.2366 19.6927 20.0746 19.7157C19.9125 19.7386 19.7469 19.7255 19.5913 19.6774C19.2021 19.5583 18.8543 19.6256 18.4837 19.9023C18.0779 20.2098 17.6825 20.7556 17.3989 21.4917C16.8213 22.9946 16.8813 24.8146 17.6742 25.9216C17.7875 26.0793 17.848 26.2645 17.8481 26.454H19.4009C20.6363 26.454 21.8211 26.9096 22.6947 27.7205C23.5683 28.5315 24.0591 29.6313 24.0591 30.7782V31.422C24.7498 31.6487 25.3319 32.0947 25.7025 32.6813C26.0732 33.2679 26.2085 33.9572 26.0847 34.6275C25.9608 35.2977 25.5857 35.9057 25.0256 36.344C24.4655 36.7824 23.7565 37.0228 23.0239 37.0228C22.2914 37.0228 21.5824 36.7824 21.0223 36.344C20.4622 35.9057 20.0871 35.2977 19.9632 34.6275C19.8393 33.9572 19.9747 33.2679 20.3453 32.6813C20.716 32.0947 21.2981 31.6487 21.9888 31.422V30.7782C21.9888 29.4521 20.8294 28.3758 19.4009 28.3758H15.7778C15.6541 28.3757 15.5314 28.3548 15.4155 28.3144L15.4093 28.3259C14.9994 29.085 14.7427 30.3458 14.7427 32.2196C14.7427 33.8705 15.3948 34.8007 16.0635 35.333C16.7819 35.9058 17.579 36.0634 17.8481 36.0634C18.1227 36.0634 18.386 36.1646 18.5801 36.3448C18.7742 36.525 18.8833 36.7694 18.8833 37.0243C18.8833 37.7315 19.2974 38.9673 20.2083 40.0282C21.0965 41.0564 22.3738 41.829 24.0591 41.829C25.2185 41.829 26.2578 41.2274 27.061 40.4452C27.4565 40.0609 27.7649 39.663 27.9658 39.3363C28.0572 39.1914 28.1354 39.0397 28.1997 38.8827V23.5712H25.9534C25.7092 24.2123 25.2287 24.7527 24.5969 25.0968C23.965 25.4409 23.2224 25.5665 22.5004 25.4515C21.7784 25.3365 21.1234 24.9883 20.6512 24.4684C20.1791 23.9484 19.9201 23.2903 19.9201 22.6102C19.9201 21.9302 20.1791 21.272 20.6512 20.7521C21.1234 20.2322 21.7784 19.8839 22.5004 19.7689C23.2224 19.6539 23.965 19.7796 24.5969 20.1237C25.2287 20.4678 25.7092 21.0081 25.9534 21.6493H28.1997V17.8055ZM30.27 37.0224V38.8808C30.3343 39.0378 30.4126 39.1895 30.504 39.3344C30.7069 39.6611 31.0133 40.0589 31.4066 40.4433C32.212 41.2255 33.2533 41.8271 34.4106 41.8271C36.0959 41.8271 37.3733 41.0545 38.2614 40.0263C39.1724 38.9654 39.5864 37.7296 39.5864 37.0224C39.5864 36.7675 39.6955 36.5231 39.8896 36.3429C40.0837 36.1627 40.347 36.0614 40.6216 36.0614C40.8907 36.0614 41.6878 35.9038 42.4062 35.3311C43.0749 34.7988 43.7271 33.8686 43.7271 32.2177C43.7271 30.3438 43.4683 29.085 43.0604 28.324C42.924 28.0406 42.7098 27.7954 42.4393 27.6129C42.2062 27.4745 41.9332 27.4055 41.6567 27.4149C41.4695 27.4148 41.2858 27.3676 41.1252 27.2782C40.9646 27.1889 40.8331 27.0608 40.7447 26.9075C40.6563 26.7543 40.6144 26.5817 40.6233 26.4081C40.6322 26.2344 40.6918 26.0663 40.7955 25.9216C41.5905 24.8146 41.6485 22.9946 41.0708 21.4917C40.7872 20.7556 40.3918 20.2079 39.986 19.9023C39.6154 19.6256 39.2676 19.5564 38.8784 19.6774C38.7228 19.7255 38.5572 19.7386 38.3952 19.7157C38.2331 19.6927 38.0792 19.6344 37.9462 19.5454C37.8132 19.4565 37.7048 19.3395 37.6301 19.2041C37.5553 19.0686 37.5162 18.9187 37.5161 18.7665C37.5161 17.6748 36.9364 16.7351 35.9737 16.0413C34.9258 15.3116 33.6503 14.919 32.3403 14.9227C31.9353 14.9049 31.5385 15.033 31.2327 15.2802C30.9404 15.5417 30.7202 15.8647 30.5909 16.2219C30.3938 16.7239 30.2855 17.2522 30.27 17.7863V35.1024H31.8228C33.2513 35.1024 34.4106 34.0262 34.4106 32.7001V29.1734C33.72 28.9467 33.1379 28.5007 32.7672 27.9141C32.3965 27.3276 32.2612 26.6382 32.3851 25.968C32.5089 25.2977 32.8841 24.6897 33.4442 24.2514C34.0043 23.8131 34.7132 23.5727 35.4458 23.5727C36.1784 23.5727 36.8874 23.8131 37.4474 24.2514C38.0075 24.6897 38.3827 25.2977 38.5065 25.968C38.6304 26.6382 38.4951 27.3276 38.1244 27.9141C37.7537 28.5007 37.1716 28.9467 36.481 29.1734V32.7001C36.481 33.8469 35.9902 34.9468 35.1166 35.7578C34.243 36.5687 33.0582 37.0243 31.8228 37.0243H30.27V37.0224ZM21.9888 22.6102C21.9888 22.8651 22.0978 23.1095 22.292 23.2897C22.4861 23.4699 22.7494 23.5712 23.0239 23.5712C23.2985 23.5712 23.5618 23.4699 23.7559 23.2897C23.95 23.1095 24.0591 22.8651 24.0591 22.6102C24.0591 22.3554 23.95 22.1109 23.7559 21.9307C23.5618 21.7505 23.2985 21.6493 23.0239 21.6493C22.7494 21.6493 22.4861 21.7505 22.292 21.9307C22.0978 22.1109 21.9888 22.3554 21.9888 22.6102ZM35.4458 27.4149C35.7203 27.4149 35.9836 27.3137 36.1778 27.1335C36.3719 26.9532 36.481 26.7088 36.481 26.454C36.481 26.1991 36.3719 25.9547 36.1778 25.7745C35.9836 25.5943 35.7203 25.493 35.4458 25.493C35.1713 25.493 34.908 25.5943 34.7138 25.7745C34.5197 25.9547 34.4106 26.1991 34.4106 26.454C34.4106 26.7088 34.5197 26.9532 34.7138 27.1335C34.908 27.3137 35.1713 27.4149 35.4458 27.4149ZM23.0239 33.1805C22.7494 33.1805 22.4861 33.2818 22.292 33.462C22.0978 33.6422 21.9888 33.8866 21.9888 34.1415C21.9888 34.3963 22.0978 34.6408 22.292 34.821C22.4861 35.0012 22.7494 35.1024 23.0239 35.1024C23.2985 35.1024 23.5618 35.0012 23.7559 34.821C23.95 34.6408 24.0591 34.3963 24.0591 34.1415C24.0591 33.8866 23.95 33.6422 23.7559 33.462C23.5618 33.2818 23.2985 33.1805 23.0239 33.1805Z"/>
</mask>
<path d="M21.2228 14.5249C22.6347 13.5323 24.3583 12.9969 26.1294 13.0008C26.7411 12.9881 27.3463 13.1188 27.8891 13.3808C28.432 13.6429 28.8948 14.0278 29.2349 14.4999C29.5749 14.0278 30.0378 13.6429 30.5806 13.3808C31.1234 13.1188 31.7287 12.9881 32.3403 13.0008C34.1114 12.9969 35.8351 13.5323 37.247 14.5249C38.3339 15.309 39.1724 16.3949 39.4684 17.7075C40.1475 17.7556 40.7686 18.0169 41.2903 18.4109C42.0812 19.0067 42.6567 19.9004 43.019 20.8459C43.5863 22.3162 43.7395 24.19 43.1515 25.7852C43.3006 25.8505 43.4476 25.9274 43.5904 26.0158C44.1597 26.3675 44.5924 26.871 44.9113 27.4649C45.5386 28.6276 45.7974 30.2497 45.7974 32.2196C45.7974 34.4125 44.8968 35.8846 43.754 36.7937C43.122 37.2967 42.3762 37.6612 41.5719 37.8603C41.3648 38.9327 40.7851 40.1742 39.8763 41.2274C38.6962 42.6016 36.866 43.7509 34.4106 43.7509C32.4646 43.7509 30.916 42.7515 29.9098 41.7713C29.6692 41.5373 29.4439 41.2902 29.2349 41.0314C29.0259 41.2902 28.8005 41.5373 28.5599 41.7713C27.5538 42.7515 26.0072 43.7509 24.0591 43.7509C21.6037 43.7509 19.7756 42.6016 18.5935 41.2274C17.7441 40.2483 17.1624 39.0932 16.8979 37.8603C16.0935 37.6612 15.3477 37.2967 14.7158 36.7937C13.5729 35.8846 12.6724 34.4105 12.6724 32.2196C12.6724 30.2497 12.9332 28.6257 13.5585 27.4649C13.8548 26.8825 14.3102 26.3822 14.8793 26.0139C15.0191 25.9279 15.1659 25.8521 15.3182 25.7871C14.7303 24.1881 14.8835 22.3162 15.4507 20.8459C15.813 19.9004 16.3886 19.0067 17.1794 18.4109C17.7012 18.0169 18.3222 17.7575 19.0013 17.7075C19.2994 16.3949 20.1358 15.309 21.2228 14.5249ZM28.1997 17.8055V17.7863L28.1956 17.6902C28.1651 17.1892 28.0577 16.6948 27.8767 16.2219C27.7479 15.8649 27.5285 15.542 27.237 15.2802C26.9312 15.033 26.5344 14.9049 26.1294 14.9227C24.8188 14.9186 23.5424 15.3112 22.4939 16.0413C21.5333 16.7351 20.9536 17.6748 20.9536 18.7665C20.9535 18.9187 20.9144 19.0686 20.8397 19.2041C20.7649 19.3395 20.6565 19.4565 20.5235 19.5454C20.3905 19.6344 20.2366 19.6927 20.0746 19.7157C19.9125 19.7386 19.7469 19.7255 19.5913 19.6774C19.2021 19.5583 18.8543 19.6256 18.4837 19.9023C18.0779 20.2098 17.6825 20.7556 17.3989 21.4917C16.8213 22.9946 16.8813 24.8146 17.6742 25.9216C17.7875 26.0793 17.848 26.2645 17.8481 26.454H19.4009C20.6363 26.454 21.8211 26.9096 22.6947 27.7205C23.5683 28.5315 24.0591 29.6313 24.0591 30.7782V31.422C24.7498 31.6487 25.3319 32.0947 25.7025 32.6813C26.0732 33.2679 26.2085 33.9572 26.0847 34.6275C25.9608 35.2977 25.5857 35.9057 25.0256 36.344C24.4655 36.7824 23.7565 37.0228 23.0239 37.0228C22.2914 37.0228 21.5824 36.7824 21.0223 36.344C20.4622 35.9057 20.0871 35.2977 19.9632 34.6275C19.8393 33.9572 19.9747 33.2679 20.3453 32.6813C20.716 32.0947 21.2981 31.6487 21.9888 31.422V30.7782C21.9888 29.4521 20.8294 28.3758 19.4009 28.3758H15.7778C15.6541 28.3757 15.5314 28.3548 15.4155 28.3144L15.4093 28.3259C14.9994 29.085 14.7427 30.3458 14.7427 32.2196C14.7427 33.8705 15.3948 34.8007 16.0635 35.333C16.7819 35.9058 17.579 36.0634 17.8481 36.0634C18.1227 36.0634 18.386 36.1646 18.5801 36.3448C18.7742 36.525 18.8833 36.7694 18.8833 37.0243C18.8833 37.7315 19.2974 38.9673 20.2083 40.0282C21.0965 41.0564 22.3738 41.829 24.0591 41.829C25.2185 41.829 26.2578 41.2274 27.061 40.4452C27.4565 40.0609 27.7649 39.663 27.9658 39.3363C28.0572 39.1914 28.1354 39.0397 28.1997 38.8827V23.5712H25.9534C25.7092 24.2123 25.2287 24.7527 24.5969 25.0968C23.965 25.4409 23.2224 25.5665 22.5004 25.4515C21.7784 25.3365 21.1234 24.9883 20.6512 24.4684C20.1791 23.9484 19.9201 23.2903 19.9201 22.6102C19.9201 21.9302 20.1791 21.272 20.6512 20.7521C21.1234 20.2322 21.7784 19.8839 22.5004 19.7689C23.2224 19.6539 23.965 19.7796 24.5969 20.1237C25.2287 20.4678 25.7092 21.0081 25.9534 21.6493H28.1997V17.8055ZM30.27 37.0224V38.8808C30.3343 39.0378 30.4126 39.1895 30.504 39.3344C30.7069 39.6611 31.0133 40.0589 31.4066 40.4433C32.212 41.2255 33.2533 41.8271 34.4106 41.8271C36.0959 41.8271 37.3733 41.0545 38.2614 40.0263C39.1724 38.9654 39.5864 37.7296 39.5864 37.0224C39.5864 36.7675 39.6955 36.5231 39.8896 36.3429C40.0837 36.1627 40.347 36.0614 40.6216 36.0614C40.8907 36.0614 41.6878 35.9038 42.4062 35.3311C43.0749 34.7988 43.7271 33.8686 43.7271 32.2177C43.7271 30.3438 43.4683 29.085 43.0604 28.324C42.924 28.0406 42.7098 27.7954 42.4393 27.6129C42.2062 27.4745 41.9332 27.4055 41.6567 27.4149C41.4695 27.4148 41.2858 27.3676 41.1252 27.2782C40.9646 27.1889 40.8331 27.0608 40.7447 26.9075C40.6563 26.7543 40.6144 26.5817 40.6233 26.4081C40.6322 26.2344 40.6918 26.0663 40.7955 25.9216C41.5905 24.8146 41.6485 22.9946 41.0708 21.4917C40.7872 20.7556 40.3918 20.2079 39.986 19.9023C39.6154 19.6256 39.2676 19.5564 38.8784 19.6774C38.7228 19.7255 38.5572 19.7386 38.3952 19.7157C38.2331 19.6927 38.0792 19.6344 37.9462 19.5454C37.8132 19.4565 37.7048 19.3395 37.6301 19.2041C37.5553 19.0686 37.5162 18.9187 37.5161 18.7665C37.5161 17.6748 36.9364 16.7351 35.9737 16.0413C34.9258 15.3116 33.6503 14.919 32.3403 14.9227C31.9353 14.9049 31.5385 15.033 31.2327 15.2802C30.9404 15.5417 30.7202 15.8647 30.5909 16.2219C30.3938 16.7239 30.2855 17.2522 30.27 17.7863V35.1024H31.8228C33.2513 35.1024 34.4106 34.0262 34.4106 32.7001V29.1734C33.72 28.9467 33.1379 28.5007 32.7672 27.9141C32.3965 27.3276 32.2612 26.6382 32.3851 25.968C32.5089 25.2977 32.8841 24.6897 33.4442 24.2514C34.0043 23.8131 34.7132 23.5727 35.4458 23.5727C36.1784 23.5727 36.8874 23.8131 37.4474 24.2514C38.0075 24.6897 38.3827 25.2977 38.5065 25.968C38.6304 26.6382 38.4951 27.3276 38.1244 27.9141C37.7537 28.5007 37.1716 28.9467 36.481 29.1734V32.7001C36.481 33.8469 35.9902 34.9468 35.1166 35.7578C34.243 36.5687 33.0582 37.0243 31.8228 37.0243H30.27V37.0224ZM21.9888 22.6102C21.9888 22.8651 22.0978 23.1095 22.292 23.2897C22.4861 23.4699 22.7494 23.5712 23.0239 23.5712C23.2985 23.5712 23.5618 23.4699 23.7559 23.2897C23.95 23.1095 24.0591 22.8651 24.0591 22.6102C24.0591 22.3554 23.95 22.1109 23.7559 21.9307C23.5618 21.7505 23.2985 21.6493 23.0239 21.6493C22.7494 21.6493 22.4861 21.7505 22.292 21.9307C22.0978 22.1109 21.9888 22.3554 21.9888 22.6102ZM35.4458 27.4149C35.7203 27.4149 35.9836 27.3137 36.1778 27.1335C36.3719 26.9532 36.481 26.7088 36.481 26.454C36.481 26.1991 36.3719 25.9547 36.1778 25.7745C35.9836 25.5943 35.7203 25.493 35.4458 25.493C35.1713 25.493 34.908 25.5943 34.7138 25.7745C34.5197 25.9547 34.4106 26.1991 34.4106 26.454C34.4106 26.7088 34.5197 26.9532 34.7138 27.1335C34.908 27.3137 35.1713 27.4149 35.4458 27.4149ZM23.0239 33.1805C22.7494 33.1805 22.4861 33.2818 22.292 33.462C22.0978 33.6422 21.9888 33.8866 21.9888 34.1415C21.9888 34.3963 22.0978 34.6408 22.292 34.821C22.4861 35.0012 22.7494 35.1024 23.0239 35.1024C23.2985 35.1024 23.5618 35.0012 23.7559 34.821C23.95 34.6408 24.0591 34.3963 24.0591 34.1415C24.0591 33.8866 23.95 33.6422 23.7559 33.462C23.5618 33.2818 23.2985 33.1805 23.0239 33.1805Z" fill="#0852BF"/>
<path d="M21.2228 14.5249C22.6347 13.5323 24.3583 12.9969 26.1294 13.0008C26.7411 12.9881 27.3463 13.1188 27.8891 13.3808C28.432 13.6429 28.8948 14.0278 29.2349 14.4999C29.5749 14.0278 30.0378 13.6429 30.5806 13.3808C31.1234 13.1188 31.7287 12.9881 32.3403 13.0008C34.1114 12.9969 35.8351 13.5323 37.247 14.5249C38.3339 15.309 39.1724 16.3949 39.4684 17.7075C40.1475 17.7556 40.7686 18.0169 41.2903 18.4109C42.0812 19.0067 42.6567 19.9004 43.019 20.8459C43.5863 22.3162 43.7395 24.19 43.1515 25.7852C43.3006 25.8505 43.4476 25.9274 43.5904 26.0158C44.1597 26.3675 44.5924 26.871 44.9113 27.4649C45.5386 28.6276 45.7974 30.2497 45.7974 32.2196C45.7974 34.4125 44.8968 35.8846 43.754 36.7937C43.122 37.2967 42.3762 37.6612 41.5719 37.8603C41.3648 38.9327 40.7851 40.1742 39.8763 41.2274C38.6962 42.6016 36.866 43.7509 34.4106 43.7509C32.4646 43.7509 30.916 42.7515 29.9098 41.7713C29.6692 41.5373 29.4439 41.2902 29.2349 41.0314C29.0259 41.2902 28.8005 41.5373 28.5599 41.7713C27.5538 42.7515 26.0072 43.7509 24.0591 43.7509C21.6037 43.7509 19.7756 42.6016 18.5935 41.2274C17.7441 40.2483 17.1624 39.0932 16.8979 37.8603C16.0935 37.6612 15.3477 37.2967 14.7158 36.7937C13.5729 35.8846 12.6724 34.4105 12.6724 32.2196C12.6724 30.2497 12.9332 28.6257 13.5585 27.4649C13.8548 26.8825 14.3102 26.3822 14.8793 26.0139C15.0191 25.9279 15.1659 25.8521 15.3182 25.7871C14.7303 24.1881 14.8835 22.3162 15.4507 20.8459C15.813 19.9004 16.3886 19.0067 17.1794 18.4109C17.7012 18.0169 18.3222 17.7575 19.0013 17.7075C19.2994 16.3949 20.1358 15.309 21.2228 14.5249ZM28.1997 17.8055V17.7863L28.1956 17.6902C28.1651 17.1892 28.0577 16.6948 27.8767 16.2219C27.7479 15.8649 27.5285 15.542 27.237 15.2802C26.9312 15.033 26.5344 14.9049 26.1294 14.9227C24.8188 14.9186 23.5424 15.3112 22.4939 16.0413C21.5333 16.7351 20.9536 17.6748 20.9536 18.7665C20.9535 18.9187 20.9144 19.0686 20.8397 19.2041C20.7649 19.3395 20.6565 19.4565 20.5235 19.5454C20.3905 19.6344 20.2366 19.6927 20.0746 19.7157C19.9125 19.7386 19.7469 19.7255 19.5913 19.6774C19.2021 19.5583 18.8543 19.6256 18.4837 19.9023C18.0779 20.2098 17.6825 20.7556 17.3989 21.4917C16.8213 22.9946 16.8813 24.8146 17.6742 25.9216C17.7875 26.0793 17.848 26.2645 17.8481 26.454H19.4009C20.6363 26.454 21.8211 26.9096 22.6947 27.7205C23.5683 28.5315 24.0591 29.6313 24.0591 30.7782V31.422C24.7498 31.6487 25.3319 32.0947 25.7025 32.6813C26.0732 33.2679 26.2085 33.9572 26.0847 34.6275C25.9608 35.2977 25.5857 35.9057 25.0256 36.344C24.4655 36.7824 23.7565 37.0228 23.0239 37.0228C22.2914 37.0228 21.5824 36.7824 21.0223 36.344C20.4622 35.9057 20.0871 35.2977 19.9632 34.6275C19.8393 33.9572 19.9747 33.2679 20.3453 32.6813C20.716 32.0947 21.2981 31.6487 21.9888 31.422V30.7782C21.9888 29.4521 20.8294 28.3758 19.4009 28.3758H15.7778C15.6541 28.3757 15.5314 28.3548 15.4155 28.3144L15.4093 28.3259C14.9994 29.085 14.7427 30.3458 14.7427 32.2196C14.7427 33.8705 15.3948 34.8007 16.0635 35.333C16.7819 35.9058 17.579 36.0634 17.8481 36.0634C18.1227 36.0634 18.386 36.1646 18.5801 36.3448C18.7742 36.525 18.8833 36.7694 18.8833 37.0243C18.8833 37.7315 19.2974 38.9673 20.2083 40.0282C21.0965 41.0564 22.3738 41.829 24.0591 41.829C25.2185 41.829 26.2578 41.2274 27.061 40.4452C27.4565 40.0609 27.7649 39.663 27.9658 39.3363C28.0572 39.1914 28.1354 39.0397 28.1997 38.8827V23.5712H25.9534C25.7092 24.2123 25.2287 24.7527 24.5969 25.0968C23.965 25.4409 23.2224 25.5665 22.5004 25.4515C21.7784 25.3365 21.1234 24.9883 20.6512 24.4684C20.1791 23.9484 19.9201 23.2903 19.9201 22.6102C19.9201 21.9302 20.1791 21.272 20.6512 20.7521C21.1234 20.2322 21.7784 19.8839 22.5004 19.7689C23.2224 19.6539 23.965 19.7796 24.5969 20.1237C25.2287 20.4678 25.7092 21.0081 25.9534 21.6493H28.1997V17.8055ZM30.27 37.0224V38.8808C30.3343 39.0378 30.4126 39.1895 30.504 39.3344C30.7069 39.6611 31.0133 40.0589 31.4066 40.4433C32.212 41.2255 33.2533 41.8271 34.4106 41.8271C36.0959 41.8271 37.3733 41.0545 38.2614 40.0263C39.1724 38.9654 39.5864 37.7296 39.5864 37.0224C39.5864 36.7675 39.6955 36.5231 39.8896 36.3429C40.0837 36.1627 40.347 36.0614 40.6216 36.0614C40.8907 36.0614 41.6878 35.9038 42.4062 35.3311C43.0749 34.7988 43.7271 33.8686 43.7271 32.2177C43.7271 30.3438 43.4683 29.085 43.0604 28.324C42.924 28.0406 42.7098 27.7954 42.4393 27.6129C42.2062 27.4745 41.9332 27.4055 41.6567 27.4149C41.4695 27.4148 41.2858 27.3676 41.1252 27.2782C40.9646 27.1889 40.8331 27.0608 40.7447 26.9075C40.6563 26.7543 40.6144 26.5817 40.6233 26.4081C40.6322 26.2344 40.6918 26.0663 40.7955 25.9216C41.5905 24.8146 41.6485 22.9946 41.0708 21.4917C40.7872 20.7556 40.3918 20.2079 39.986 19.9023C39.6154 19.6256 39.2676 19.5564 38.8784 19.6774C38.7228 19.7255 38.5572 19.7386 38.3952 19.7157C38.2331 19.6927 38.0792 19.6344 37.9462 19.5454C37.8132 19.4565 37.7048 19.3395 37.6301 19.2041C37.5553 19.0686 37.5162 18.9187 37.5161 18.7665C37.5161 17.6748 36.9364 16.7351 35.9737 16.0413C34.9258 15.3116 33.6503 14.919 32.3403 14.9227C31.9353 14.9049 31.5385 15.033 31.2327 15.2802C30.9404 15.5417 30.7202 15.8647 30.5909 16.2219C30.3938 16.7239 30.2855 17.2522 30.27 17.7863V35.1024H31.8228C33.2513 35.1024 34.4106 34.0262 34.4106 32.7001V29.1734C33.72 28.9467 33.1379 28.5007 32.7672 27.9141C32.3965 27.3276 32.2612 26.6382 32.3851 25.968C32.5089 25.2977 32.8841 24.6897 33.4442 24.2514C34.0043 23.8131 34.7132 23.5727 35.4458 23.5727C36.1784 23.5727 36.8874 23.8131 37.4474 24.2514C38.0075 24.6897 38.3827 25.2977 38.5065 25.968C38.6304 26.6382 38.4951 27.3276 38.1244 27.9141C37.7537 28.5007 37.1716 28.9467 36.481 29.1734V32.7001C36.481 33.8469 35.9902 34.9468 35.1166 35.7578C34.243 36.5687 33.0582 37.0243 31.8228 37.0243H30.27V37.0224ZM21.9888 22.6102C21.9888 22.8651 22.0978 23.1095 22.292 23.2897C22.4861 23.4699 22.7494 23.5712 23.0239 23.5712C23.2985 23.5712 23.5618 23.4699 23.7559 23.2897C23.95 23.1095 24.0591 22.8651 24.0591 22.6102C24.0591 22.3554 23.95 22.1109 23.7559 21.9307C23.5618 21.7505 23.2985 21.6493 23.0239 21.6493C22.7494 21.6493 22.4861 21.7505 22.292 21.9307C22.0978 22.1109 21.9888 22.3554 21.9888 22.6102ZM35.4458 27.4149C35.7203 27.4149 35.9836 27.3137 36.1778 27.1335C36.3719 26.9532 36.481 26.7088 36.481 26.454C36.481 26.1991 36.3719 25.9547 36.1778 25.7745C35.9836 25.5943 35.7203 25.493 35.4458 25.493C35.1713 25.493 34.908 25.5943 34.7138 25.7745C34.5197 25.9547 34.4106 26.1991 34.4106 26.454C34.4106 26.7088 34.5197 26.9532 34.7138 27.1335C34.908 27.3137 35.1713 27.4149 35.4458 27.4149ZM23.0239 33.1805C22.7494 33.1805 22.4861 33.2818 22.292 33.462C22.0978 33.6422 21.9888 33.8866 21.9888 34.1415C21.9888 34.3963 22.0978 34.6408 22.292 34.821C22.4861 35.0012 22.7494 35.1024 23.0239 35.1024C23.2985 35.1024 23.5618 35.0012 23.7559 34.821C23.95 34.6408 24.0591 34.3963 24.0591 34.1415C24.0591 33.8866 23.95 33.6422 23.7559 33.462C23.5618 33.2818 23.2985 33.1805 23.0239 33.1805Z" stroke="white" stroke-width="2" mask="url(#path-2-outside-1_41_392)"/>
<path d="M1.80613 27.3639H7V27.9726L2.922 30.8029V30.8536L7 30.8536L7 31.4825L1.80613 31.4825L1.80613 30.8739L5.89427 28.0335V27.9827H1.80613L1.80613 27.3639Z" fill="#0852BF"/>
<path d="M8.25483 22.7518C8.14615 23.0862 7.97121 23.3538 7.73 23.5545C7.4893 23.7537 7.20286 23.8775 6.87067 23.926C6.539 23.9729 6.18181 23.9342 5.79912 23.8098C5.41321 23.6844 5.09907 23.505 4.85669 23.2716C4.61485 23.0366 4.45508 22.7678 4.37739 22.4652C4.30023 22.161 4.31599 21.8417 4.42466 21.5073C4.53333 21.1728 4.70801 20.906 4.9487 20.7069C5.18992 20.5062 5.47716 20.3826 5.81044 20.3363C6.14424 20.2883 6.5041 20.327 6.89001 20.4524C7.27271 20.5767 7.58418 20.7561 7.82442 20.9906C8.06518 21.2235 8.22414 21.4921 8.30131 21.7962C8.37899 22.0988 8.3635 22.4173 8.25483 22.7518ZM7.74349 22.5856C7.82604 22.3316 7.82884 22.1014 7.75188 21.895C7.67493 21.6887 7.54313 21.5117 7.35648 21.3639C7.16983 21.2162 6.95269 21.1021 6.70506 21.0216C6.45744 20.9411 6.21389 20.9056 5.97443 20.9149C5.73497 20.9242 5.52267 20.9894 5.33753 21.1106C5.15238 21.2317 5.01854 21.4194 4.93599 21.6734C4.85344 21.9275 4.85145 22.1579 4.93001 22.3648C5.00857 22.5716 5.14198 22.7492 5.33024 22.8975C5.5185 23.0458 5.73644 23.1601 5.98407 23.2406C6.2317 23.321 6.47443 23.3564 6.71229 23.3465C6.95014 23.3367 7.16083 23.271 7.34437 23.1493C7.5279 23.0276 7.66094 22.8397 7.74349 22.5856Z" fill="#0852BF"/>
<path d="M9.62188 13.9677L9.42897 14.4921C9.3366 14.4668 9.23684 14.456 9.12969 14.4596C9.02217 14.4609 8.91304 14.4903 8.80232 14.5478C8.69159 14.6053 8.58505 14.7044 8.48269 14.8453C8.34257 15.0382 8.27025 15.2312 8.26574 15.4244C8.26086 15.6152 8.32613 15.7598 8.46154 15.8582C8.58191 15.9456 8.70877 15.9709 8.84213 15.934C8.97549 15.8972 9.133 15.8026 9.31466 15.6504L9.76943 15.2661C10.0425 15.034 10.2997 14.9001 10.541 14.8643C10.7809 14.8275 11.0109 14.8891 11.2311 15.0491C11.4117 15.1803 11.5353 15.3495 11.6021 15.5568C11.6698 15.7628 11.6776 15.9879 11.6255 16.2322C11.5734 16.4764 11.4584 16.721 11.2805 16.9658C11.047 17.2873 10.7839 17.5026 10.4914 17.6119C10.1988 17.7212 9.89813 17.7065 9.5893 17.5678L9.80831 17.0247C10.0097 17.1042 10.197 17.1139 10.3703 17.0537C10.5445 16.9922 10.7037 16.8623 10.8478 16.664C11.0118 16.4383 11.0941 16.2243 11.0947 16.0221C11.095 15.8175 11.0275 15.666 10.892 15.5676C10.7826 15.4881 10.6631 15.4598 10.5336 15.4828C10.4027 15.5047 10.2612 15.5816 10.109 15.7134L9.60428 16.1492C9.3262 16.3881 9.06616 16.5231 8.82416 16.5542C8.58178 16.5829 8.35185 16.5183 8.13437 16.3603C7.95655 16.2311 7.83553 16.0669 7.77129 15.8676C7.70805 15.667 7.70055 15.4516 7.74879 15.2212C7.79803 14.9895 7.90314 14.7628 8.06414 14.5412C8.29072 14.2294 8.53699 14.0342 8.80297 13.9558C9.06993 13.876 9.3429 13.8799 9.62188 13.9677Z" fill="#0852BF"/>
<path d="M23.8058 5.77138C23.9751 6.29236 24.0273 6.77316 23.9625 7.21377C23.8977 7.65437 23.7347 8.03088 23.4735 8.34328C23.2124 8.65568 22.8712 8.88032 22.4499 9.0172C22.0286 9.15409 21.6205 9.17291 21.2256 9.07367C20.8307 8.97444 20.4775 8.76564 20.1661 8.44729C19.8547 8.12894 19.6143 7.70927 19.445 7.18829C19.2758 6.66731 19.2235 6.18652 19.2884 5.74591C19.3532 5.30531 19.5162 4.9288 19.7773 4.6164C20.0385 4.304 20.3797 4.07936 20.801 3.94247C21.2223 3.80559 21.6304 3.78677 22.0253 3.886C22.4202 3.98524 22.7733 4.19404 23.0848 4.51239C23.3962 4.83074 23.6365 5.2504 23.8058 5.77138ZM23.227 5.95947C23.088 5.53175 22.8991 5.19401 22.6604 4.94626C22.4233 4.69797 22.1588 4.53771 21.8669 4.46545C21.5766 4.39267 21.2819 4.40487 20.9828 4.50204C20.6837 4.59922 20.4373 4.76283 20.2436 4.99287C20.0516 5.22239 19.9318 5.50752 19.8843 5.84828C19.8384 6.18851 19.8849 6.57249 20.0239 7.00021C20.1629 7.42793 20.3509 7.76593 20.588 8.01421C20.8267 8.26196 21.0913 8.42223 21.3816 8.49501C21.6735 8.56727 21.969 8.55481 22.2681 8.45763C22.5671 8.36046 22.8127 8.19711 23.0048 7.96759C23.1985 7.73755 23.3183 7.45241 23.3642 7.11218C23.4117 6.77142 23.3659 6.38719 23.227 5.95947Z" fill="#0852BF"/>
<path d="M30.1097 4.1046V4.61181H28.0099V4.1046H30.1097ZM28.6388 8L28.6388 3.56695C28.6388 3.34378 28.6912 3.1578 28.7961 3.00902C28.9009 2.86024 29.037 2.74865 29.2044 2.67426C29.3717 2.59987 29.5484 2.56267 29.7344 2.56267C29.8815 2.56267 30.0015 2.5745 30.0945 2.59817C30.1875 2.62184 30.2568 2.64382 30.3025 2.66411L30.13 3.18147C30.0996 3.17133 30.0573 3.15865 30.0032 3.14343C29.9508 3.12821 29.8815 3.1206 29.7953 3.1206C29.5975 3.1206 29.4546 3.17048 29.3667 3.27023C29.2804 3.36998 29.2373 3.51623 29.2373 3.70897V8H28.6388Z" fill="#0852BF"/>
<path d="M37.9874 5.76586L37.8307 6.24825L35.8336 5.59936L35.9904 5.11697L37.9874 5.76586ZM35.3848 9.01607L36.7547 4.79999C36.8236 4.58774 36.9309 4.42706 37.0766 4.31795C37.2223 4.20884 37.3862 4.14478 37.5684 4.12575C37.7506 4.10672 37.9301 4.12594 38.107 4.18341C38.2469 4.22887 38.3574 4.27722 38.4385 4.32847C38.5196 4.37971 38.5787 4.42204 38.6159 4.45544L38.292 4.89418C38.2662 4.87513 38.2299 4.85001 38.1832 4.81882C38.138 4.78815 38.0744 4.7595 37.9924 4.73285C37.8043 4.67172 37.653 4.67501 37.5386 4.74271C37.4257 4.81094 37.3395 4.9367 37.28 5.12001L35.954 9.20102L35.3848 9.01607Z" fill="#0852BF"/>
<path d="M41.0467 11.7475L43.3364 8.59603L43.8042 8.93591L43.4583 9.41191L43.4911 9.43576C43.6619 9.32156 43.8578 9.27057 44.0788 9.28277C44.2998 9.29497 44.5047 9.36964 44.6934 9.50678C44.729 9.53262 44.773 9.5656 44.8253 9.60573C44.8777 9.64585 44.9165 9.67722 44.9419 9.69983L44.5841 10.1922C44.5707 10.1762 44.5376 10.1427 44.4847 10.0918C44.4342 10.0405 44.3768 9.99147 44.3125 9.94476C44.1593 9.83346 43.9992 9.76622 43.8321 9.74306C43.6674 9.71952 43.5094 9.73849 43.3582 9.79997C43.2093 9.86107 43.0832 9.96275 42.9798 10.105L41.5309 12.0993L41.0467 11.7475Z" fill="#0852BF"/>
<path d="M46.6492 17.4081C46.4286 17.1044 46.3053 16.7938 46.2794 16.4762C46.2558 16.159 46.3218 15.8529 46.4774 15.558C46.6354 15.2635 46.8758 14.9989 47.1986 14.7644C47.5215 14.5299 47.8487 14.382 48.1804 14.3208C48.5144 14.2599 48.8275 14.2853 49.1197 14.3969C49.4142 14.5089 49.6649 14.7072 49.8716 14.9917C49.9908 15.1558 50.0812 15.3378 50.1428 15.5376C50.2043 15.7373 50.2213 15.9476 50.1936 16.1684C50.1672 16.3881 50.0819 16.61 49.9374 16.8341C49.793 17.0581 49.5738 17.277 49.2797 17.4906L49.0745 17.6397L47.3096 15.2105L47.7281 14.9064L49.1353 16.8432C49.3131 16.714 49.4459 16.5632 49.5338 16.3907C49.6226 16.2196 49.6602 16.0397 49.6465 15.8511C49.6338 15.6639 49.5638 15.4828 49.4366 15.3077C49.2965 15.1148 49.1274 14.9827 48.9293 14.9114C48.7335 14.8405 48.5324 14.8225 48.3259 14.8576C48.1194 14.8927 47.9293 14.9733 47.7556 15.0996L47.4766 15.3023C47.2386 15.4752 47.0666 15.6628 46.9608 15.8651C46.8572 16.0678 46.8161 16.2743 46.8372 16.4847C46.8597 16.694 46.9421 16.8965 47.0842 17.0921C47.1766 17.2193 47.2779 17.3213 47.3879 17.398C47.5004 17.4751 47.6202 17.525 47.7474 17.5475C47.8759 17.5691 48.0098 17.5606 48.149 17.5222L48.3576 18.0854C48.1631 18.1514 47.9635 18.17 47.7586 18.1412C47.5552 18.1114 47.3578 18.0354 47.1666 17.9131C46.9767 17.7898 46.8042 17.6215 46.6492 17.4081Z" fill="#0852BF"/>
<path d="M52.8915 23.5941L52.5806 23.1298C52.6554 23.0699 52.7228 22.9956 52.7828 22.9067C52.8449 22.819 52.8853 22.7134 52.9039 22.5901C52.9225 22.4667 52.9049 22.3222 52.851 22.1566C52.7774 21.9299 52.6637 21.7579 52.5101 21.6407C52.3586 21.5246 52.2033 21.4924 52.0441 21.5441C51.9026 21.5901 51.8075 21.6779 51.759 21.8074C51.7104 21.937 51.6943 22.12 51.7107 22.3564L51.7543 22.9503C51.7815 23.3076 51.7387 23.5944 51.6259 23.8106C51.5146 24.0263 51.3296 24.1762 51.0707 24.2603C50.8584 24.3293 50.6488 24.3299 50.4419 24.262C50.2355 24.1957 50.0488 24.0697 49.8818 23.884C49.7148 23.6983 49.5845 23.4615 49.491 23.1737C49.3682 22.7958 49.3486 22.4564 49.4321 22.1555C49.5157 21.8546 49.7043 21.6199 49.9981 21.4516L50.3087 21.948C50.126 22.0642 50.0081 22.2101 49.9549 22.3856C49.9022 22.5627 49.9138 22.7679 49.9895 23.001C50.0757 23.2663 50.2004 23.4587 50.3637 23.5781C50.529 23.6986 50.6913 23.733 50.8505 23.6812C50.9791 23.6394 51.0723 23.5594 51.1298 23.4411C51.189 23.3224 51.21 23.1627 51.1928 22.962L51.1369 22.2975C51.1071 21.9321 51.1507 21.6424 51.2678 21.4284C51.3871 21.2154 51.5745 21.0674 51.8302 20.9843C52.0392 20.9164 52.2432 20.915 52.4421 20.9802C52.6416 21.0469 52.8203 21.1675 52.9783 21.3419C53.1369 21.518 53.2584 21.7362 53.3431 21.9967C53.4622 22.3633 53.4753 22.6773 53.3824 22.9386C53.2901 23.2014 53.1264 23.4199 52.8915 23.5941Z" fill="#0852BF"/>
</svg>
