<svg width="33" height="41" viewBox="0 0 33 41" fill="none" xmlns="http://www.w3.org/2000/svg">
<path d="M20.7075 12.0433C17.5969 11.3848 14.2826 11.7295 11.4937 13.0016C8.70486 14.2737 6.66984 16.3689 5.83636 18.8264L3.14266 26.7686C2.30918 29.226 2.74551 31.8444 4.35567 34.0477C5.96584 36.251 8.61793 37.8588 11.7285 38.5172C14.8391 39.1757 18.1534 38.831 20.9423 37.5589C23.7312 36.2868 25.7662 34.1916 26.5997 31.7341L29.2934 23.792C30.1269 21.3345 29.6905 18.7161 28.0804 16.5128C26.4702 14.3095 23.8181 12.7018 20.7075 12.0433ZM9.18736 19.5358C9.70445 18.0099 10.873 16.6721 12.4951 15.7487C14.1173 14.8252 16.0935 14.373 18.0892 14.4684L15.4404 22.2782L8.73841 20.8595L9.18736 19.5358ZM23.2487 31.0248C22.6533 32.7801 21.1998 34.2767 19.2077 35.1853C17.2156 36.094 14.8483 36.3402 12.6264 35.8698C10.4046 35.3995 8.51022 34.2511 7.3601 32.6773C6.20999 31.1035 5.89832 29.2333 6.49366 27.4779L7.84051 23.5068L24.5955 27.0537L23.2487 31.0248ZM25.4934 24.4063L18.7914 22.9876L21.4402 15.1777C23.229 15.8835 24.6542 17.0558 25.4746 18.4962C26.295 19.9367 26.4603 21.5569 25.9424 23.0826L25.4934 24.4063Z" fill="#DBFF00"/>
<path d="M20.8165 12.5823C21.0409 11.9205 21.9388 9.2731 19.8745 7.41738C17.8102 5.56166 18.9326 2.25242 20.2193 1.10606" stroke="#DBFF00"/>
</svg>
