<svg width="99" height="47" viewBox="0 0 99 47" fill="none" xmlns="http://www.w3.org/2000/svg">
<path d="M0 47V30H69.217C68 32 68 35 68 35H72H81H82.5V37H90V41.5V47H0Z" fill="#0852BF"/>
<path d="M14.5419 29L12.9908 24.1948H5.14433L3.59328 29H1.0082L7.88148 8.31931H10.3753L17.279 29H14.5419ZM7.06034 18.2339L5.90465 21.7922H12.2001L11.0444 18.2339L9.06758 11.8472L7.06034 18.2339ZM32.0946 29L30.5435 24.1948H22.697L21.146 29H18.5609L25.4342 8.31931H27.928L34.8317 29H32.0946ZM24.613 18.2339L23.4573 21.7922H29.7528L28.5971 18.2339L26.6203 11.8472L24.613 18.2339ZM36.296 29.2129V26.6886C37.9383 26.6886 39.1346 26.3541 39.8848 25.685C40.6552 25.0159 41.0404 23.8501 41.0404 22.1875V8.31931H43.6863V22.1875C43.6863 23.5663 43.4633 24.7929 43.0173 25.8675C42.5915 26.9218 41.8413 27.7429 40.7667 28.3309C39.7124 28.9189 38.2222 29.2129 36.296 29.2129ZM60.2501 29L58.6991 24.1948H50.8526L49.3015 29H46.7165L53.5897 8.31931H56.0836L62.9873 29H60.2501ZM52.7686 18.2339L51.6129 21.7922H57.9084L56.7527 18.2339L54.7758 11.8472L52.7686 18.2339Z" fill="#0852BF"/>
<path d="M2.10465 42.5738L1.67596 45H0.882415L1.97696 38.7976H3.81944C4.20861 38.7976 4.53393 38.8736 4.7954 39.0256C5.05688 39.1776 5.24538 39.3905 5.36092 39.6641C5.47645 39.9317 5.50381 40.2418 5.44301 40.5945L5.37916 40.9867C5.31835 41.3394 5.18457 41.6434 4.97783 41.8988C4.77108 42.1542 4.50048 42.3366 4.16604 42.4461C4.52481 43.267 4.81669 44.1183 5.04167 45H4.18428C4.08699 44.5865 3.97146 44.1791 3.83768 43.7778C3.7039 43.3703 3.55492 42.969 3.39074 42.5738H2.10465ZM3.79207 39.5273H2.6428L2.23235 41.8441H3.38162C3.69782 41.8441 3.95929 41.7681 4.16604 41.616C4.37887 41.464 4.50961 41.2482 4.55825 40.9684L4.63122 40.5762C4.68595 40.2418 4.6373 39.9833 4.48528 39.8009C4.33326 39.6185 4.10219 39.5273 3.79207 39.5273ZM9.52552 44.8176C9.26405 44.9149 9.01169 44.9848 8.76846 45.0274C8.52523 45.0699 8.29416 45.0912 8.07525 45.0912C7.58879 45.0912 7.2057 44.9939 6.92598 44.7993C6.65235 44.5987 6.46992 44.3281 6.37871 43.9875C6.2875 43.647 6.27534 43.2639 6.34223 42.8383L6.42432 42.3731C6.52161 41.7772 6.74964 41.2998 7.10841 40.9411C7.47325 40.5762 7.93235 40.3938 8.48571 40.3938C8.75934 40.3938 9.01473 40.4424 9.25188 40.5397C9.49512 40.637 9.6897 40.7891 9.83564 40.9958C9.98158 41.2025 10.0545 41.4671 10.0545 41.7893C10.0545 41.9657 10.0272 42.1542 9.97246 42.3549C9.92381 42.5494 9.82956 42.7623 9.6897 42.9933H7.05368C6.99895 43.4129 7.0476 43.7565 7.19962 44.024C7.35164 44.2855 7.6648 44.4162 8.1391 44.4162C8.30936 44.4162 8.50395 44.398 8.72286 44.3615C8.94176 44.319 9.16979 44.2581 9.40694 44.1791L9.52552 44.8176ZM8.45834 41.0596C8.11174 41.0596 7.82594 41.1752 7.60095 41.4063C7.37596 41.6312 7.23002 41.9474 7.16313 42.3549H9.20628C9.25492 42.2515 9.28533 42.1542 9.29749 42.063C9.31573 41.9718 9.32485 41.8866 9.32485 41.8076C9.32485 41.5522 9.24276 41.3637 9.07858 41.2421C8.9144 41.1205 8.70765 41.0596 8.45834 41.0596ZM12.0145 44.4254C12.3672 44.4254 12.6196 44.3646 12.7716 44.2429C12.9297 44.1213 13.0087 43.9632 13.0087 43.7686C13.0087 43.6105 12.9601 43.4828 12.8628 43.3856C12.7655 43.2883 12.6013 43.197 12.3703 43.1119L11.9324 42.9386C11.6223 42.8231 11.3882 42.668 11.2301 42.4734C11.0781 42.2788 11.0021 42.0326 11.0021 41.7346C11.0021 41.4914 11.0538 41.2694 11.1571 41.0688C11.2666 40.8681 11.4399 40.707 11.6771 40.5853C11.9142 40.4577 12.2243 40.3938 12.6074 40.3938C13.0756 40.3938 13.5499 40.5033 14.0303 40.7222L13.7932 41.3606C13.5743 41.2573 13.3675 41.1843 13.1729 41.1417C12.9783 41.0931 12.7838 41.0688 12.5892 41.0688C12.2912 41.0688 12.0753 41.1235 11.9416 41.233C11.8139 41.3424 11.75 41.4914 11.75 41.6799C11.75 41.8137 11.7895 41.9292 11.8686 42.0265C11.9537 42.1238 12.0966 42.212 12.2973 42.291L12.7442 42.4552C13.0787 42.5768 13.331 42.7349 13.5013 42.9295C13.6715 43.1241 13.7567 43.3764 13.7567 43.6865C13.7567 43.9237 13.6989 44.1517 13.5834 44.3706C13.4678 44.5835 13.2793 44.7568 13.0179 44.8905C12.7625 45.0243 12.4219 45.0912 11.9963 45.0912C11.4916 45.0912 10.9838 44.9787 10.4731 44.7537L10.7102 44.1244C10.9474 44.2277 11.1723 44.3037 11.3852 44.3524C11.598 44.401 11.8078 44.4254 12.0145 44.4254ZM15.9605 44.4254C16.3132 44.4254 16.5656 44.3646 16.7176 44.2429C16.8757 44.1213 16.9547 43.9632 16.9547 43.7686C16.9547 43.6105 16.9061 43.4828 16.8088 43.3856C16.7115 43.2883 16.5473 43.197 16.3162 43.1119L15.8784 42.9386C15.5683 42.8231 15.3342 42.668 15.1761 42.4734C15.0241 42.2788 14.9481 42.0326 14.9481 41.7346C14.9481 41.4914 14.9997 41.2694 15.1031 41.0688C15.2126 40.8681 15.3859 40.707 15.623 40.5853C15.8602 40.4577 16.1703 40.3938 16.5534 40.3938C17.0216 40.3938 17.4959 40.5033 17.9763 40.7222L17.7391 41.3606C17.5202 41.2573 17.3135 41.1843 17.1189 41.1417C16.9243 41.0931 16.7297 41.0688 16.5351 41.0688C16.2372 41.0688 16.0213 41.1235 15.8875 41.233C15.7598 41.3424 15.696 41.4914 15.696 41.6799C15.696 41.8137 15.7355 41.9292 15.8146 42.0265C15.8997 42.1238 16.0426 42.212 16.2433 42.291L16.6902 42.4552C17.0247 42.5768 17.277 42.7349 17.4473 42.9295C17.6175 43.1241 17.7027 43.3764 17.7027 43.6865C17.7027 43.9237 17.6449 44.1517 17.5294 44.3706C17.4138 44.5835 17.2253 44.7568 16.9638 44.8905C16.7085 45.0243 16.3679 45.0912 15.9423 45.0912C15.4376 45.0912 14.9298 44.9787 14.419 44.7537L14.6562 44.1244C14.8933 44.2277 15.1183 44.3037 15.3312 44.3524C15.544 44.401 15.7538 44.4254 15.9605 44.4254ZM22.6976 42.6467L22.6246 43.1028C22.5273 43.7474 22.2962 44.2399 21.9314 44.5804C21.5726 44.9209 21.1044 45.0912 20.5267 45.0912C20.1011 45.0912 19.7484 44.9939 19.4687 44.7993C19.195 44.6047 19.0035 44.3372 18.894 43.9967C18.7846 43.6561 18.7633 43.27 18.8302 42.8383L18.9032 42.3731C19.0065 41.7529 19.2346 41.2694 19.5873 40.9228C19.946 40.5701 20.4173 40.3938 21.001 40.3938C21.4328 40.3938 21.7855 40.4941 22.0591 40.6948C22.3327 40.8955 22.5243 41.1661 22.6337 41.5066C22.7432 41.841 22.7645 42.2211 22.6976 42.6467ZM21.9223 42.6285C21.9952 42.1724 21.9527 41.8015 21.7946 41.5157C21.6365 41.2238 21.3689 41.0779 20.9919 41.0779C20.6392 41.0779 20.3474 41.1904 20.1163 41.4154C19.8913 41.6404 19.7454 41.9596 19.6785 42.3731L19.6055 42.8565C19.5325 43.3247 19.5751 43.7018 19.7332 43.9875C19.8974 44.2733 20.1649 44.4162 20.5359 44.4162C20.8885 44.4162 21.1774 44.3068 21.4024 44.0879C21.6334 43.8629 21.7824 43.5345 21.8493 43.1028L21.9223 42.6285ZM26.4279 45L26.5738 44.1791C26.2211 44.55 25.9079 44.7963 25.6343 44.9179C25.3668 45.0334 25.1235 45.0912 24.9046 45.0912C24.4972 45.0912 24.1992 44.9422 24.0107 44.6443C23.8283 44.3463 23.7797 43.9571 23.8648 43.4768L24.3938 40.485H25.1418L24.631 43.4038C24.5702 43.7382 24.5823 43.9875 24.6675 44.1517C24.7587 44.3098 24.9016 44.3889 25.0962 44.3889C25.2117 44.3889 25.3424 44.3646 25.4884 44.3159C25.6343 44.2612 25.8046 44.1609 25.9992 44.0149C26.1937 43.869 26.4187 43.6592 26.6741 43.3856L27.1849 40.485H27.9328L27.1393 45H26.4279ZM31.7965 41.1509C31.6567 41.1509 31.4894 41.1752 31.2949 41.2238C31.1003 41.2664 30.8905 41.3576 30.6655 41.4975C30.4466 41.6373 30.2216 41.8502 29.9905 42.1359L29.4889 45H28.7409L29.5436 40.485H30.2459L30.1 41.3333C30.4466 40.9502 30.775 40.6978 31.0851 40.5762C31.4013 40.4546 31.681 40.3938 31.9242 40.3938L31.7965 41.1509ZM34.343 41.087C34.0086 41.087 33.7289 41.1995 33.5039 41.4245C33.2789 41.6434 33.133 41.9596 33.0661 42.3731L32.984 42.8656C32.911 43.3156 32.9384 43.6865 33.0661 43.9784C33.1999 44.2642 33.4857 44.4071 33.9235 44.4071C34.2458 44.4071 34.6136 44.3311 35.0271 44.1791L35.1548 44.8267C34.6744 45.003 34.2427 45.0912 33.8596 45.0912C33.4096 45.0912 33.0539 44.9939 32.7924 44.7993C32.531 44.5987 32.3577 44.3281 32.2725 43.9875C32.1874 43.647 32.1783 43.2639 32.2452 42.8383L32.3181 42.3731C32.4215 41.7589 32.6465 41.2755 32.9931 40.9228C33.3458 40.5701 33.7897 40.3938 34.3248 40.3938C34.5437 40.3938 34.7657 40.4242 34.9906 40.485C35.2156 40.5458 35.4406 40.631 35.6656 40.7404L35.4011 41.3789C35.2126 41.2877 35.0271 41.2177 34.8447 41.1691C34.6684 41.1144 34.5011 41.087 34.343 41.087ZM39.49 44.8176C39.2286 44.9149 38.9762 44.9848 38.733 45.0274C38.4897 45.0699 38.2587 45.0912 38.0398 45.0912C37.5533 45.0912 37.1702 44.9939 36.8905 44.7993C36.6169 44.5987 36.4344 44.3281 36.3432 43.9875C36.252 43.647 36.2398 43.2639 36.3067 42.8383L36.3888 42.3731C36.4861 41.7772 36.7141 41.2998 37.0729 40.9411C37.4378 40.5762 37.8969 40.3938 38.4502 40.3938C38.7238 40.3938 38.9792 40.4424 39.2164 40.5397C39.4596 40.637 39.6542 40.7891 39.8001 40.9958C39.9461 41.2025 40.0191 41.4671 40.0191 41.7893C40.0191 41.9657 39.9917 42.1542 39.937 42.3549C39.8883 42.5494 39.7941 42.7623 39.6542 42.9933H37.0182C36.9635 43.4129 37.0121 43.7565 37.1641 44.024C37.3161 44.2855 37.6293 44.4162 38.1036 44.4162C38.2739 44.4162 38.4685 44.398 38.6874 44.3615C38.9063 44.319 39.1343 44.2581 39.3715 44.1791L39.49 44.8176ZM38.4228 41.0596C38.0762 41.0596 37.7904 41.1752 37.5655 41.4063C37.3405 41.6312 37.1945 41.9474 37.1276 42.3549H39.1708C39.2194 42.2515 39.2498 42.1542 39.262 42.063C39.2802 41.9718 39.2894 41.8866 39.2894 41.8076C39.2894 41.5522 39.2073 41.3637 39.0431 41.2421C38.8789 41.1205 38.6722 41.0596 38.4228 41.0596ZM41.979 44.4254C42.3317 44.4254 42.5841 44.3646 42.7361 44.2429C42.8942 44.1213 42.9733 43.9632 42.9733 43.7686C42.9733 43.6105 42.9246 43.4828 42.8273 43.3856C42.73 43.2883 42.5658 43.197 42.3348 43.1119L41.897 42.9386C41.5868 42.8231 41.3527 42.668 41.1946 42.4734C41.0426 42.2788 40.9666 42.0326 40.9666 41.7346C40.9666 41.4914 41.0183 41.2694 41.1217 41.0688C41.2311 40.8681 41.4044 40.707 41.6416 40.5853C41.8787 40.4577 42.1888 40.3938 42.5719 40.3938C43.0401 40.3938 43.5144 40.5033 43.9948 40.7222L43.7577 41.3606C43.5388 41.2573 43.332 41.1843 43.1374 41.1417C42.9428 41.0931 42.7483 41.0688 42.5537 41.0688C42.2557 41.0688 42.0399 41.1235 41.9061 41.233C41.7784 41.3424 41.7145 41.4914 41.7145 41.6799C41.7145 41.8137 41.7541 41.9292 41.8331 42.0265C41.9182 42.1238 42.0611 42.212 42.2618 42.291L42.7087 42.4552C43.0432 42.5768 43.2955 42.7349 43.4658 42.9295C43.6361 43.1241 43.7212 43.3764 43.7212 43.6865C43.7212 43.9237 43.6634 44.1517 43.5479 44.3706C43.4324 44.5835 43.2438 44.7568 42.9824 44.8905C42.727 45.0243 42.3865 45.0912 41.9608 45.0912C41.4561 45.0912 40.9483 44.9787 40.4376 44.7537L40.6747 44.1244C40.9119 44.2277 41.1369 44.3037 41.3497 44.3524C41.5625 44.401 41.7723 44.4254 41.979 44.4254ZM50.365 45L50.8484 42.2363H48.1394L47.656 45H46.8624L47.957 38.7976H48.7505L48.2762 41.4883H50.9852L51.4595 38.7976H52.2531L51.1585 45H50.365ZM55.7065 45L55.8524 44.1791C55.4997 44.55 55.1866 44.7963 54.913 44.9179C54.6454 45.0334 54.4022 45.0912 54.1833 45.0912C53.7758 45.0912 53.4779 44.9422 53.2894 44.6443C53.107 44.3463 53.0583 43.9571 53.1434 43.4768L53.6725 40.485H54.4204L53.9096 43.4038C53.8488 43.7382 53.861 43.9875 53.9461 44.1517C54.0373 44.3098 54.1802 44.3889 54.3748 44.3889C54.4903 44.3889 54.6211 44.3646 54.767 44.3159C54.913 44.2612 55.0832 44.1609 55.2778 44.0149C55.4724 43.869 55.6974 43.6592 55.9528 43.3856L56.4636 40.485H57.2115L56.4179 45H55.7065ZM60.8654 41.0961C60.6951 41.0961 60.4823 41.163 60.2269 41.2968C59.9776 41.4245 59.6614 41.6951 59.2783 42.1086L58.7675 45H58.0196L58.8222 40.485H59.5246L59.3877 41.3059C59.7404 40.935 60.0536 40.6918 60.3272 40.5762C60.6009 40.4546 60.8471 40.3938 61.066 40.3938C61.364 40.3938 61.6042 40.4789 61.7866 40.6492C61.969 40.8195 62.0815 41.0505 62.1241 41.3424C62.4829 40.9593 62.8082 40.707 63.1001 40.5853C63.3919 40.4577 63.6504 40.3938 63.8754 40.3938C64.2828 40.3938 64.5777 40.5428 64.7601 40.8407C64.9486 41.1387 65.0003 41.5309 64.9152 42.0174L64.3862 45H63.6382L64.1581 42.0812C64.2189 41.7529 64.2037 41.5066 64.1125 41.3424C64.0213 41.1782 63.8754 41.0961 63.6747 41.0961C63.5652 41.0961 63.4345 41.1235 63.2825 41.1782C63.1366 41.233 62.9663 41.3333 62.7717 41.4792C62.5771 41.6191 62.3491 41.8289 62.0876 42.1086L61.5768 45H60.8289L61.3397 42.0812C61.4005 41.7529 61.3853 41.5066 61.2941 41.3424C61.2089 41.1782 61.066 41.0961 60.8654 41.0961ZM69.7051 45.0456C69.4071 45.0456 69.1852 44.9726 69.0392 44.8267C68.8994 44.6747 68.8234 44.4862 68.8112 44.2612C68.5254 44.5713 68.2518 44.7872 67.9903 44.9088C67.7288 45.0304 67.4826 45.0912 67.2515 45.0912C66.9535 45.0912 66.7073 44.997 66.5127 44.8085C66.3242 44.62 66.1934 44.3615 66.1205 44.0332C66.0475 43.7048 66.0414 43.3339 66.1022 42.9204L66.1661 42.4734C66.2634 41.8228 66.4914 41.315 66.8502 40.9502C67.2089 40.5793 67.6802 40.3938 68.2639 40.3938C68.568 40.3938 68.869 40.4455 69.1669 40.5489C69.471 40.6462 69.7629 40.786 70.0426 40.9684L69.55 43.7686C69.5196 43.9511 69.5257 44.097 69.5683 44.2065C69.6108 44.3098 69.7081 44.3615 69.8601 44.3615H69.9878L69.8601 45.0456H69.7051ZM66.8775 42.9204C66.8106 43.4008 66.8289 43.7717 66.9322 44.0332C67.0356 44.2885 67.2089 44.4162 67.4522 44.4162C67.6346 44.4162 67.8474 44.3372 68.0906 44.1791C68.3339 44.021 68.5953 43.7443 68.8751 43.3491L69.2308 41.3242C68.9024 41.16 68.5953 41.0779 68.3095 41.0779C67.9143 41.0779 67.6011 41.2086 67.3701 41.4701C67.1451 41.7255 67.0022 42.0599 66.9414 42.4734L66.8775 42.9204ZM72.75 39.3814H71.9108L72.0477 38.5422H72.8868L72.75 39.3814ZM71.7011 45H70.9531L71.7558 40.485H72.5037L71.7011 45ZM76.2139 41.0961C76.0984 41.0961 75.9646 41.1235 75.8126 41.1782C75.6606 41.2269 75.4842 41.3242 75.2835 41.4701C75.0829 41.61 74.8518 41.8197 74.5903 42.0995L74.0704 45H73.3225L74.1252 40.485H74.8275L74.6907 41.315C75.0494 40.938 75.3687 40.6918 75.6484 40.5762C75.9342 40.4546 76.1896 40.3938 76.4146 40.3938C76.8281 40.3938 77.1321 40.5458 77.3267 40.8499C77.5274 41.1478 77.5851 41.537 77.5 42.0174L76.971 45H76.223L76.7338 42.0812C76.8554 41.4245 76.6821 41.0961 76.2139 41.0961ZM81.8626 44.8176C81.6011 44.9149 81.3487 44.9848 81.1055 45.0274C80.8623 45.0699 80.6312 45.0912 80.4123 45.0912C79.9258 45.0912 79.5427 44.9939 79.263 44.7993C78.9894 44.5987 78.807 44.3281 78.7157 43.9875C78.6245 43.647 78.6124 43.2639 78.6793 42.8383L78.7614 42.3731C78.8586 41.7772 79.0867 41.2998 79.4454 40.9411C79.8103 40.5762 80.2694 40.3938 80.8227 40.3938C81.0964 40.3938 81.3518 40.4424 81.5889 40.5397C81.8321 40.637 82.0267 40.7891 82.1727 40.9958C82.3186 41.2025 82.3916 41.4671 82.3916 41.7893C82.3916 41.9657 82.3642 42.1542 82.3095 42.3549C82.2608 42.5494 82.1666 42.7623 82.0267 42.9933H79.3907C79.336 43.4129 79.3846 43.7565 79.5367 44.024C79.6887 44.2855 80.0018 44.4162 80.4761 44.4162C80.6464 44.4162 80.841 44.398 81.0599 44.3615C81.2788 44.319 81.5068 44.2581 81.744 44.1791L81.8626 44.8176ZM80.7954 41.0596C80.4488 41.0596 80.163 41.1752 79.938 41.4063C79.713 41.6312 79.5671 41.9474 79.5002 42.3549H81.5433C81.592 42.2515 81.6224 42.1542 81.6345 42.063C81.6528 41.9718 81.6619 41.8866 81.6619 41.8076C81.6619 41.5522 81.5798 41.3637 81.4156 41.2421C81.2514 41.1205 81.0447 41.0596 80.7954 41.0596ZM84.3516 44.4254C84.7043 44.4254 84.9566 44.3646 85.1086 44.2429C85.2667 44.1213 85.3458 43.9632 85.3458 43.7686C85.3458 43.6105 85.2971 43.4828 85.1998 43.3856C85.1025 43.2883 84.9384 43.197 84.7073 43.1119L84.2695 42.9386C83.9594 42.8231 83.7252 42.668 83.5671 42.4734C83.4151 42.2788 83.3391 42.0326 83.3391 41.7346C83.3391 41.4914 83.3908 41.2694 83.4942 41.0688C83.6036 40.8681 83.7769 40.707 84.0141 40.5853C84.2512 40.4577 84.5614 40.3938 84.9444 40.3938C85.4127 40.3938 85.887 40.5033 86.3674 40.7222L86.1302 41.3606C85.9113 41.2573 85.7045 41.1843 85.51 41.1417C85.3154 41.0931 85.1208 41.0688 84.9262 41.0688C84.6282 41.0688 84.4124 41.1235 84.2786 41.233C84.1509 41.3424 84.0871 41.4914 84.0871 41.6799C84.0871 41.8137 84.1266 41.9292 84.2056 42.0265C84.2908 42.1238 84.4337 42.212 84.6343 42.291L85.0813 42.4552C85.4157 42.5768 85.6681 42.7349 85.8383 42.9295C86.0086 43.1241 86.0937 43.3764 86.0937 43.6865C86.0937 43.9237 86.0359 44.1517 85.9204 44.3706C85.8049 44.5835 85.6164 44.7568 85.3549 44.8905C85.0995 45.0243 84.759 45.0912 84.3333 45.0912C83.8286 45.0912 83.3209 44.9787 82.8101 44.7537L83.0472 44.1244C83.2844 44.2277 83.5094 44.3037 83.7222 44.3524C83.935 44.401 84.1448 44.4254 84.3516 44.4254Z" fill="#DBFF00"/>
<path d="M98.4998 24.6247V35.4995H83.7021V24.6247H87.4016V20.9998H94.8004V24.6247H98.4998ZM89.2513 24.6247H92.9507V22.8122H89.2513V24.6247ZM96.6501 30.0621H94.8004V31.8746H92.9507V30.0621H89.2513V31.8746H87.4016V30.0621H85.5519V33.6871H96.6501V30.0621ZM96.6501 26.4372H85.5519V28.2496H96.6501V26.4372Z" fill="#0852BF"/>
<circle cx="86.5" cy="11.5" r="4.5" stroke="#0852BF" stroke-width="2"/>
<circle cx="76.5" cy="22.5" r="4.5" stroke="#0852BF" stroke-width="2"/>
<path d="M91.5 20C91.5 15.4998 82.5 14.5 80 20.5002" stroke="#0852BF" stroke-width="2"/>
<path d="M82 33C82 26 70 24.5 70 34" stroke="#0852BF" stroke-width="2"/>
</svg>
