<svg width="35" height="32" viewBox="0 0 35 32" fill="none" xmlns="http://www.w3.org/2000/svg">
<mask id="path-1-outside-1_26_327" maskUnits="userSpaceOnUse" x="0" y="0" width="35" height="32" fill="black">
<rect fill="white" width="35" height="32"/>
<path d="M34 19.7502V31H17.5V19.7502H21.625V16.0002H29.875V19.7502H34ZM23.6875 19.7502H27.8125V17.8752H23.6875V19.7502ZM31.9375 25.3751H29.875V27.2501H27.8125V25.3751H23.6875V27.2501H21.625V25.3751H19.5625V29.125H31.9375V25.3751ZM31.9375 21.6251H19.5625V23.5001H31.9375V21.6251ZM26.2173 14.1253C25.6372 13.5296 24.9497 13.0706 24.1548 12.7483C23.3599 12.4261 22.5166 12.2601 21.625 12.2503C20.7656 12.2503 19.9653 12.3968 19.2241 12.6897C18.4829 12.9827 17.8276 13.3831 17.2583 13.8909C16.689 14.3987 16.2432 14.9993 15.9209 15.6926C15.5986 16.386 15.4375 17.1135 15.4375 17.8752C15.4375 18.7736 15.2173 19.6183 14.7769 20.4093C14.3364 21.2003 13.7134 21.8644 12.9077 22.4015C13.3911 22.6261 13.8423 22.8849 14.2612 23.1779C14.6802 23.4708 15.0723 23.8028 15.4375 24.1739V29.125C15.4375 28.3536 15.2764 27.626 14.9541 26.9424C14.6318 26.2589 14.1914 25.6632 13.6328 25.1554C13.0742 24.6476 12.4136 24.2423 11.6509 23.9396C10.8882 23.6368 10.0879 23.4903 9.25 23.5001C8.39063 23.5001 7.59033 23.6466 6.84912 23.9396C6.10791 24.2325 5.45264 24.6329 4.8833 25.1407C4.31397 25.6485 3.86816 26.2491 3.5459 26.9424C3.22363 27.6358 3.0625 28.3633 3.0625 29.125H1C1 28.4121 1.10742 27.7237 1.32227 27.0596C1.53711 26.3956 1.84326 25.7657 2.24072 25.17C2.63818 24.5743 3.12158 24.047 3.69092 23.588C4.26025 23.129 4.89404 22.7335 5.59229 22.4015C4.79736 21.8742 4.17969 21.215 3.73926 20.424C3.29883 19.633 3.07324 18.7834 3.0625 17.8752C3.0625 17.1037 3.22363 16.3762 3.5459 15.6926C3.86816 15.009 4.30859 14.4133 4.86719 13.9055C5.42578 13.3977 6.08105 12.9925 6.83301 12.6897C7.58496 12.387 8.39063 12.2405 9.25 12.2503C10.2383 12.2503 11.1675 12.4505 12.0376 12.8509C12.9077 13.2512 13.6382 13.8176 14.229 14.5501C14.6372 13.8176 15.1582 13.1634 15.792 12.5872C16.4258 12.011 17.1509 11.5325 17.9673 11.1517C17.1724 10.6243 16.5547 9.96516 16.1143 9.17416C15.6738 8.38316 15.4482 7.53356 15.4375 6.62537C15.4375 5.8539 15.5986 5.12637 15.9209 4.44279C16.2432 3.7592 16.6836 3.16351 17.2422 2.65571C17.8008 2.1479 18.4561 1.74263 19.208 1.4399C19.96 1.13717 20.7656 0.990692 21.625 1.00046C22.4736 1.00046 23.2739 1.14694 24.0259 1.4399C24.7778 1.73287 25.4331 2.13325 25.9917 2.64106C26.5503 3.14886 26.9961 3.74944 27.3291 4.44279C27.6621 5.13614 27.8232 5.86366 27.8125 6.62537C27.8125 7.5238 27.5923 8.36851 27.1519 9.15951C26.7114 9.95052 26.0884 10.6146 25.2827 11.1517C26.0132 11.4837 26.6738 11.8987 27.2647 12.3968C27.8555 12.8948 28.355 13.471 28.7632 14.1253H26.2173ZM9.25 21.6251C9.81934 21.6251 10.3511 21.5275 10.8452 21.3322C11.3394 21.1369 11.7798 20.8683 12.1665 20.5265C12.5532 20.1847 12.8486 19.7892 13.0527 19.34C13.2568 18.8908 13.3643 18.4025 13.375 17.8752C13.375 17.3576 13.2676 16.8742 13.0527 16.425C12.8379 15.9758 12.5425 15.5754 12.1665 15.2239C11.7905 14.8723 11.3555 14.6038 10.8613 14.4182C10.3672 14.2327 9.83008 14.135 9.25 14.1253C8.68066 14.1253 8.14893 14.2229 7.65479 14.4182C7.16064 14.6135 6.72022 14.8821 6.3335 15.2239C5.94678 15.5657 5.65137 15.9612 5.44727 16.4104C5.24316 16.8596 5.13574 17.3479 5.125 17.8752C5.125 18.3928 5.23242 18.8762 5.44727 19.3254C5.66211 19.7746 5.95752 20.175 6.3335 20.5265C6.70947 20.8781 7.14453 21.1466 7.63867 21.3322C8.13281 21.5177 8.66992 21.6154 9.25 21.6251ZM17.5 6.62537C17.5 7.14294 17.6074 7.62633 17.8223 8.07554C18.0371 8.52476 18.3325 8.92514 18.7085 9.2767C19.0845 9.62826 19.5195 9.89681 20.0137 10.0824C20.5078 10.2679 21.0449 10.3655 21.625 10.3753C22.1943 10.3753 22.7261 10.2777 23.2202 10.0824C23.7144 9.88704 24.1548 9.61849 24.5415 9.2767C24.9282 8.93491 25.2236 8.53941 25.4277 8.09019C25.6318 7.64098 25.7393 7.15271 25.75 6.62537C25.75 6.1078 25.6426 5.62441 25.4277 5.1752C25.2129 4.72599 24.9175 4.3256 24.5415 3.97405C24.1655 3.62249 23.7305 3.35394 23.2363 3.16839C22.7422 2.98285 22.2051 2.88519 21.625 2.87543C21.0557 2.87543 20.5239 2.97308 20.0298 3.16839C19.5356 3.3637 19.0952 3.63225 18.7085 3.97405C18.3218 4.31584 18.0264 4.71134 17.8223 5.16055C17.6182 5.60976 17.5107 6.09804 17.5 6.62537Z"/>
</mask>
<path d="M34 19.7502V31H17.5V19.7502H21.625V16.0002H29.875V19.7502H34ZM23.6875 19.7502H27.8125V17.8752H23.6875V19.7502ZM31.9375 25.3751H29.875V27.2501H27.8125V25.3751H23.6875V27.2501H21.625V25.3751H19.5625V29.125H31.9375V25.3751ZM31.9375 21.6251H19.5625V23.5001H31.9375V21.6251ZM26.2173 14.1253C25.6372 13.5296 24.9497 13.0706 24.1548 12.7483C23.3599 12.4261 22.5166 12.2601 21.625 12.2503C20.7656 12.2503 19.9653 12.3968 19.2241 12.6897C18.4829 12.9827 17.8276 13.3831 17.2583 13.8909C16.689 14.3987 16.2432 14.9993 15.9209 15.6926C15.5986 16.386 15.4375 17.1135 15.4375 17.8752C15.4375 18.7736 15.2173 19.6183 14.7769 20.4093C14.3364 21.2003 13.7134 21.8644 12.9077 22.4015C13.3911 22.6261 13.8423 22.8849 14.2612 23.1779C14.6802 23.4708 15.0723 23.8028 15.4375 24.1739V29.125C15.4375 28.3536 15.2764 27.626 14.9541 26.9424C14.6318 26.2589 14.1914 25.6632 13.6328 25.1554C13.0742 24.6476 12.4136 24.2423 11.6509 23.9396C10.8882 23.6368 10.0879 23.4903 9.25 23.5001C8.39063 23.5001 7.59033 23.6466 6.84912 23.9396C6.10791 24.2325 5.45264 24.6329 4.8833 25.1407C4.31397 25.6485 3.86816 26.2491 3.5459 26.9424C3.22363 27.6358 3.0625 28.3633 3.0625 29.125H1C1 28.4121 1.10742 27.7237 1.32227 27.0596C1.53711 26.3956 1.84326 25.7657 2.24072 25.17C2.63818 24.5743 3.12158 24.047 3.69092 23.588C4.26025 23.129 4.89404 22.7335 5.59229 22.4015C4.79736 21.8742 4.17969 21.215 3.73926 20.424C3.29883 19.633 3.07324 18.7834 3.0625 17.8752C3.0625 17.1037 3.22363 16.3762 3.5459 15.6926C3.86816 15.009 4.30859 14.4133 4.86719 13.9055C5.42578 13.3977 6.08105 12.9925 6.83301 12.6897C7.58496 12.387 8.39063 12.2405 9.25 12.2503C10.2383 12.2503 11.1675 12.4505 12.0376 12.8509C12.9077 13.2512 13.6382 13.8176 14.229 14.5501C14.6372 13.8176 15.1582 13.1634 15.792 12.5872C16.4258 12.011 17.1509 11.5325 17.9673 11.1517C17.1724 10.6243 16.5547 9.96516 16.1143 9.17416C15.6738 8.38316 15.4482 7.53356 15.4375 6.62537C15.4375 5.8539 15.5986 5.12637 15.9209 4.44279C16.2432 3.7592 16.6836 3.16351 17.2422 2.65571C17.8008 2.1479 18.4561 1.74263 19.208 1.4399C19.96 1.13717 20.7656 0.990692 21.625 1.00046C22.4736 1.00046 23.2739 1.14694 24.0259 1.4399C24.7778 1.73287 25.4331 2.13325 25.9917 2.64106C26.5503 3.14886 26.9961 3.74944 27.3291 4.44279C27.6621 5.13614 27.8232 5.86366 27.8125 6.62537C27.8125 7.5238 27.5923 8.36851 27.1519 9.15951C26.7114 9.95052 26.0884 10.6146 25.2827 11.1517C26.0132 11.4837 26.6738 11.8987 27.2647 12.3968C27.8555 12.8948 28.355 13.471 28.7632 14.1253H26.2173ZM9.25 21.6251C9.81934 21.6251 10.3511 21.5275 10.8452 21.3322C11.3394 21.1369 11.7798 20.8683 12.1665 20.5265C12.5532 20.1847 12.8486 19.7892 13.0527 19.34C13.2568 18.8908 13.3643 18.4025 13.375 17.8752C13.375 17.3576 13.2676 16.8742 13.0527 16.425C12.8379 15.9758 12.5425 15.5754 12.1665 15.2239C11.7905 14.8723 11.3555 14.6038 10.8613 14.4182C10.3672 14.2327 9.83008 14.135 9.25 14.1253C8.68066 14.1253 8.14893 14.2229 7.65479 14.4182C7.16064 14.6135 6.72022 14.8821 6.3335 15.2239C5.94678 15.5657 5.65137 15.9612 5.44727 16.4104C5.24316 16.8596 5.13574 17.3479 5.125 17.8752C5.125 18.3928 5.23242 18.8762 5.44727 19.3254C5.66211 19.7746 5.95752 20.175 6.3335 20.5265C6.70947 20.8781 7.14453 21.1466 7.63867 21.3322C8.13281 21.5177 8.66992 21.6154 9.25 21.6251ZM17.5 6.62537C17.5 7.14294 17.6074 7.62633 17.8223 8.07554C18.0371 8.52476 18.3325 8.92514 18.7085 9.2767C19.0845 9.62826 19.5195 9.89681 20.0137 10.0824C20.5078 10.2679 21.0449 10.3655 21.625 10.3753C22.1943 10.3753 22.7261 10.2777 23.2202 10.0824C23.7144 9.88704 24.1548 9.61849 24.5415 9.2767C24.9282 8.93491 25.2236 8.53941 25.4277 8.09019C25.6318 7.64098 25.7393 7.15271 25.75 6.62537C25.75 6.1078 25.6426 5.62441 25.4277 5.1752C25.2129 4.72599 24.9175 4.3256 24.5415 3.97405C24.1655 3.62249 23.7305 3.35394 23.2363 3.16839C22.7422 2.98285 22.2051 2.88519 21.625 2.87543C21.0557 2.87543 20.5239 2.97308 20.0298 3.16839C19.5356 3.3637 19.0952 3.63225 18.7085 3.97405C18.3218 4.31584 18.0264 4.71134 17.8223 5.16055C17.6182 5.60976 17.5107 6.09804 17.5 6.62537Z" fill="#0852BF"/>
<path d="M34 19.7502V31H17.5V19.7502H21.625V16.0002H29.875V19.7502H34ZM23.6875 19.7502H27.8125V17.8752H23.6875V19.7502ZM31.9375 25.3751H29.875V27.2501H27.8125V25.3751H23.6875V27.2501H21.625V25.3751H19.5625V29.125H31.9375V25.3751ZM31.9375 21.6251H19.5625V23.5001H31.9375V21.6251ZM26.2173 14.1253C25.6372 13.5296 24.9497 13.0706 24.1548 12.7483C23.3599 12.4261 22.5166 12.2601 21.625 12.2503C20.7656 12.2503 19.9653 12.3968 19.2241 12.6897C18.4829 12.9827 17.8276 13.3831 17.2583 13.8909C16.689 14.3987 16.2432 14.9993 15.9209 15.6926C15.5986 16.386 15.4375 17.1135 15.4375 17.8752C15.4375 18.7736 15.2173 19.6183 14.7769 20.4093C14.3364 21.2003 13.7134 21.8644 12.9077 22.4015C13.3911 22.6261 13.8423 22.8849 14.2612 23.1779C14.6802 23.4708 15.0723 23.8028 15.4375 24.1739V29.125C15.4375 28.3536 15.2764 27.626 14.9541 26.9424C14.6318 26.2589 14.1914 25.6632 13.6328 25.1554C13.0742 24.6476 12.4136 24.2423 11.6509 23.9396C10.8882 23.6368 10.0879 23.4903 9.25 23.5001C8.39063 23.5001 7.59033 23.6466 6.84912 23.9396C6.10791 24.2325 5.45264 24.6329 4.8833 25.1407C4.31397 25.6485 3.86816 26.2491 3.5459 26.9424C3.22363 27.6358 3.0625 28.3633 3.0625 29.125H1C1 28.4121 1.10742 27.7237 1.32227 27.0596C1.53711 26.3956 1.84326 25.7657 2.24072 25.17C2.63818 24.5743 3.12158 24.047 3.69092 23.588C4.26025 23.129 4.89404 22.7335 5.59229 22.4015C4.79736 21.8742 4.17969 21.215 3.73926 20.424C3.29883 19.633 3.07324 18.7834 3.0625 17.8752C3.0625 17.1037 3.22363 16.3762 3.5459 15.6926C3.86816 15.009 4.30859 14.4133 4.86719 13.9055C5.42578 13.3977 6.08105 12.9925 6.83301 12.6897C7.58496 12.387 8.39063 12.2405 9.25 12.2503C10.2383 12.2503 11.1675 12.4505 12.0376 12.8509C12.9077 13.2512 13.6382 13.8176 14.229 14.5501C14.6372 13.8176 15.1582 13.1634 15.792 12.5872C16.4258 12.011 17.1509 11.5325 17.9673 11.1517C17.1724 10.6243 16.5547 9.96516 16.1143 9.17416C15.6738 8.38316 15.4482 7.53356 15.4375 6.62537C15.4375 5.8539 15.5986 5.12637 15.9209 4.44279C16.2432 3.7592 16.6836 3.16351 17.2422 2.65571C17.8008 2.1479 18.4561 1.74263 19.208 1.4399C19.96 1.13717 20.7656 0.990692 21.625 1.00046C22.4736 1.00046 23.2739 1.14694 24.0259 1.4399C24.7778 1.73287 25.4331 2.13325 25.9917 2.64106C26.5503 3.14886 26.9961 3.74944 27.3291 4.44279C27.6621 5.13614 27.8232 5.86366 27.8125 6.62537C27.8125 7.5238 27.5923 8.36851 27.1519 9.15951C26.7114 9.95052 26.0884 10.6146 25.2827 11.1517C26.0132 11.4837 26.6738 11.8987 27.2647 12.3968C27.8555 12.8948 28.355 13.471 28.7632 14.1253H26.2173ZM9.25 21.6251C9.81934 21.6251 10.3511 21.5275 10.8452 21.3322C11.3394 21.1369 11.7798 20.8683 12.1665 20.5265C12.5532 20.1847 12.8486 19.7892 13.0527 19.34C13.2568 18.8908 13.3643 18.4025 13.375 17.8752C13.375 17.3576 13.2676 16.8742 13.0527 16.425C12.8379 15.9758 12.5425 15.5754 12.1665 15.2239C11.7905 14.8723 11.3555 14.6038 10.8613 14.4182C10.3672 14.2327 9.83008 14.135 9.25 14.1253C8.68066 14.1253 8.14893 14.2229 7.65479 14.4182C7.16064 14.6135 6.72022 14.8821 6.3335 15.2239C5.94678 15.5657 5.65137 15.9612 5.44727 16.4104C5.24316 16.8596 5.13574 17.3479 5.125 17.8752C5.125 18.3928 5.23242 18.8762 5.44727 19.3254C5.66211 19.7746 5.95752 20.175 6.3335 20.5265C6.70947 20.8781 7.14453 21.1466 7.63867 21.3322C8.13281 21.5177 8.66992 21.6154 9.25 21.6251ZM17.5 6.62537C17.5 7.14294 17.6074 7.62633 17.8223 8.07554C18.0371 8.52476 18.3325 8.92514 18.7085 9.2767C19.0845 9.62826 19.5195 9.89681 20.0137 10.0824C20.5078 10.2679 21.0449 10.3655 21.625 10.3753C22.1943 10.3753 22.7261 10.2777 23.2202 10.0824C23.7144 9.88704 24.1548 9.61849 24.5415 9.2767C24.9282 8.93491 25.2236 8.53941 25.4277 8.09019C25.6318 7.64098 25.7393 7.15271 25.75 6.62537C25.75 6.1078 25.6426 5.62441 25.4277 5.1752C25.2129 4.72599 24.9175 4.3256 24.5415 3.97405C24.1655 3.62249 23.7305 3.35394 23.2363 3.16839C22.7422 2.98285 22.2051 2.88519 21.625 2.87543C21.0557 2.87543 20.5239 2.97308 20.0298 3.16839C19.5356 3.3637 19.0952 3.63225 18.7085 3.97405C18.3218 4.31584 18.0264 4.71134 17.8223 5.16055C17.6182 5.60976 17.5107 6.09804 17.5 6.62537Z" stroke="white" mask="url(#path-1-outside-1_26_327)"/>
</svg>
