<svg width="2189" height="338" viewBox="0 0 2189 338" fill="none" xmlns="http://www.w3.org/2000/svg">
<rect width="2189" height="338" fill="white"/>
<path d="M0 337.785V144.877C22.7848 144.877 70 167.626 138.225 108.075C164.668 84.995 175.5 77.9354 215.5 96.9375C164.5 120.214 188 144.876 261.706 144.876C283.016 144.876 294.686 141.212 326 133.285C405 113.285 426 81.3073 464.5 108.075C404.5 118.366 467.498 140.417 507.162 153.554C542.195 165.158 686.5 84.1119 743.5 99.3967C686 144.876 763.844 157.347 772.5 156.143C787.5 154.055 795.082 156.143 814.394 148.992C842.767 138.487 874.5 134.22 899.5 125.278C928 117.517 1019.9 95.0041 1048 99.3967C1022.98 113.782 935.844 182.988 1147.5 186C1221.99 187.06 1460.45 91.03 1594.5 76C1533 134.817 1549.98 209.754 1594.5 199C1594.5 199 2066.18 59.6532 2040 76C1835 204 2188.5 148.992 2188.5 148.992V337.785H0Z" fill="#0852BF"/>
</svg>
