<svg width="89" height="125" viewBox="0 0 89 125" fill="none" xmlns="http://www.w3.org/2000/svg">
<path d="M8.043 114.727L0 24.516H88.378L80.327 114.713L44.135 124.746L8.043 114.727Z" fill="#E44D26"/>
<path d="M44.189 117.077L73.433 108.969L80.314 31.893H44.189V117.077Z" fill="#F16529"/>
<path d="M44.1888 65.351H29.5478L28.5378 54.02H44.1888V42.956H16.4458L16.7098 45.925L19.4298 76.414H44.1888V65.351ZM44.1888 94.084L44.1398 94.097L31.8188 90.769L31.0308 81.946H19.9238L21.4738 99.318L44.1378 105.61L44.1888 105.595V94.084Z" fill="#EBEBEB"/>
<path d="M8.22314 0H13.8451V5.556H18.9891V0H24.6121V16.822H18.9891V11.189H13.8461V16.822H8.22314V0ZM32.0051 5.579H27.0551V0H42.5801V5.579H37.6281V16.822H32.0051V5.579ZM45.0441 0H50.9061L54.5131 5.911L58.1161 0H63.9811V16.822H58.3801V8.484L54.5131 14.465H54.4151L50.5451 8.484V16.822H45.0431V0H45.0441ZM66.7801 0H72.4041V11.262H80.3111V16.823H66.7801V0Z" fill="black"/>
<path d="M44.1509 65.351V76.414H57.7749L56.4909 90.763L44.1509 94.094V105.604L66.8329 99.318L66.9989 97.448L69.5989 68.321L69.8689 65.351H66.8869H44.1509ZM44.1509 42.956V54.02H70.8759L71.0969 51.533L71.6019 45.925L71.8669 42.956H44.1509Z" fill="white"/>
</svg>
