<svg width="101" height="101" viewBox="0 0 101 101" fill="none" xmlns="http://www.w3.org/2000/svg">
<path d="M0 0H101V101H0V0Z" fill="#F5DE19"/>
<path d="M67.8472 78.9063C68.7077 80.6543 70.0447 82.1235 71.7041 83.1446C73.3634 84.1658 75.2775 84.6972 77.2257 84.6777C81.1575 84.6777 83.6717 82.7118 83.6717 79.9884C83.6717 76.742 81.089 75.5805 76.7604 73.6867L74.3869 72.6695C67.5334 69.7513 62.9884 66.0973 62.9884 58.3708C62.9884 51.2539 68.3991 45.8324 76.8867 45.8324C79.6343 45.634 82.3794 46.2489 84.7798 47.6005C87.1802 48.952 89.1295 50.9804 90.3846 53.4326L82.9647 58.176C82.4814 56.9601 81.6399 55.9199 80.5519 55.1932C79.4638 54.4665 78.1805 54.0878 76.8723 54.1072C76.3015 54.05 75.725 54.1124 75.1797 54.2903C74.6343 54.4683 74.132 54.7579 73.7048 55.1407C73.2775 55.5235 72.9347 55.991 72.6982 56.5136C72.4616 57.0362 72.3365 57.6024 72.3309 58.176C72.3309 61.022 74.0947 62.1763 78.1672 63.9474L80.5407 64.9647C88.6063 68.4239 93.1657 71.9481 93.1657 79.873C93.1657 88.4183 86.4528 93.1004 77.4386 93.1004C73.9263 93.3242 70.4243 92.5267 67.3552 90.8043C64.2861 89.0819 61.7811 86.5081 60.1423 83.3935L67.8472 78.9063ZM34.3188 79.7287C35.8085 82.3727 37.1648 84.6091 40.4257 84.6091C43.5422 84.6091 45.5117 83.3899 45.5117 78.6465V46.3734H55.0021V78.7728C55.0021 88.5986 49.2307 93.0715 40.8297 93.0715C37.8601 93.2338 34.9109 92.4938 32.3698 90.9486C29.8287 89.4035 27.8146 87.1256 26.5923 84.4144L34.3188 79.7287Z" fill="black"/>
</svg>
