<svg width="99" height="47" viewBox="0 0 99 47" fill="none" xmlns="http://www.w3.org/2000/svg">
<path d="M0 47V30H67V32C57 39 71 48.5 75.5 39.5H88C88 40.5 88 42.5 90 42.5V47H0Z" fill="#0852BF"/>
<path d="M14.5419 29L12.9908 24.1948H5.14433L3.59328 29H1.0082L7.88148 8.31931H10.3753L17.279 29H14.5419ZM7.06034 18.2339L5.90465 21.7922H12.2001L11.0444 18.2339L9.06758 11.8472L7.06034 18.2339ZM32.0946 29L30.5435 24.1948H22.697L21.146 29H18.5609L25.4342 8.31931H27.928L34.8317 29H32.0946ZM24.613 18.2339L23.4573 21.7922H29.7528L28.5971 18.2339L26.6203 11.8472L24.613 18.2339ZM36.296 29.2129V26.6886C37.9383 26.6886 39.1346 26.3541 39.8848 25.685C40.6552 25.0159 41.0404 23.8501 41.0404 22.1875V8.31931H43.6863V22.1875C43.6863 23.5663 43.4633 24.7929 43.0173 25.8675C42.5915 26.9218 41.8413 27.7429 40.7667 28.3309C39.7124 28.9189 38.2222 29.2129 36.296 29.2129ZM60.2501 29L58.6991 24.1948H50.8526L49.3015 29H46.7165L53.5897 8.31931H56.0836L62.9873 29H60.2501ZM52.7686 18.2339L51.6129 21.7922H57.9084L56.7527 18.2339L54.7758 11.8472L52.7686 18.2339Z" fill="#0852BF"/>
<path d="M3.90633 41.4245L3.91545 43.8507L6.23223 38.7976H6.98017L7.50007 43.8599L8.39395 41.4245L9.39728 38.7976H10.2091L7.75547 45H6.93456L6.41465 39.9469L4.10699 45H3.28609L3.02157 38.7976H3.83336L3.90633 41.4245ZM14.1461 42.6467L14.0731 43.1028C13.9758 43.7474 13.7447 44.2399 13.3799 44.5804C13.0211 44.9209 12.5529 45.0912 11.9752 45.0912C11.5496 45.0912 11.1969 44.9939 10.9172 44.7993C10.6435 44.6047 10.452 44.3372 10.3425 43.9967C10.2331 43.6561 10.2118 43.27 10.2787 42.8383L10.3517 42.3731C10.455 41.7529 10.6831 41.2694 11.0357 40.9228C11.3945 40.5701 11.8658 40.3938 12.4495 40.3938C12.8813 40.3938 13.2339 40.4941 13.5076 40.6948C13.7812 40.8955 13.9728 41.1661 14.0822 41.5066C14.1917 41.841 14.213 42.2211 14.1461 42.6467ZM13.3708 42.6285C13.4437 42.1724 13.4012 41.8015 13.2431 41.5157C13.085 41.2238 12.8174 41.0779 12.4404 41.0779C12.0877 41.0779 11.7958 41.1904 11.5648 41.4154C11.3398 41.6404 11.1938 41.9596 11.127 42.3731L11.054 42.8565C10.981 43.3247 11.0236 43.7018 11.1817 43.9875C11.3459 44.2733 11.6134 44.4162 11.9843 44.4162C12.337 44.4162 12.6259 44.3068 12.8509 44.0879C13.0819 43.8629 13.2309 43.5345 13.2978 43.1028L13.3708 42.6285ZM18.15 41.1509C18.0101 41.1509 17.8429 41.1752 17.6483 41.2238C17.4537 41.2664 17.2439 41.3576 17.019 41.4975C16.8 41.6373 16.5751 41.8502 16.344 42.1359L15.8423 45H15.0944L15.897 40.485H16.5994L16.4534 41.3333C16.8 40.9502 17.1284 40.6978 17.4385 40.5762C17.7547 40.4546 18.0344 40.3938 18.2777 40.3938L18.15 41.1509ZM21.2438 45L20.3317 42.9021C20.1979 43.0177 20.055 43.1362 19.903 43.2579C19.7509 43.3734 19.5959 43.492 19.4378 43.6136L19.1915 45H18.4436L19.6384 38.2503H20.3864L19.5837 42.7744C20.0398 42.3974 20.4502 42.0295 20.8151 41.6708C21.186 41.3059 21.5296 40.9107 21.8458 40.485H22.7396C22.4599 40.8559 22.1741 41.1995 21.8823 41.5157C21.5904 41.8319 21.2772 42.1481 20.9428 42.4643L22.1103 45H21.2438ZM24.2885 44.4254C24.6412 44.4254 24.8936 44.3646 25.0456 44.2429C25.2037 44.1213 25.2827 43.9632 25.2827 43.7686C25.2827 43.6105 25.2341 43.4828 25.1368 43.3856C25.0395 43.2883 24.8753 43.197 24.6443 43.1119L24.2064 42.9386C23.8963 42.8231 23.6622 42.668 23.5041 42.4734C23.3521 42.2788 23.2761 42.0326 23.2761 41.7346C23.2761 41.4914 23.3278 41.2694 23.4311 41.0688C23.5406 40.8681 23.7139 40.707 23.9511 40.5853C24.1882 40.4577 24.4983 40.3938 24.8814 40.3938C25.3496 40.3938 25.8239 40.5033 26.3043 40.7222L26.0672 41.3606C25.8483 41.2573 25.6415 41.1843 25.4469 41.1417C25.2523 41.0931 25.0578 41.0688 24.8632 41.0688C24.5652 41.0688 24.3493 41.1235 24.2156 41.233C24.0879 41.3424 24.024 41.4914 24.024 41.6799C24.024 41.8137 24.0635 41.9292 24.1426 42.0265C24.2277 42.1238 24.3706 42.212 24.5713 42.291L25.0182 42.4552C25.3527 42.5768 25.605 42.7349 25.7753 42.9295C25.9455 43.1241 26.0307 43.3764 26.0307 43.6865C26.0307 43.9237 25.9729 44.1517 25.8574 44.3706C25.7418 44.5835 25.5533 44.7568 25.2919 44.8905C25.0365 45.0243 24.6959 45.0912 24.2703 45.0912C23.7656 45.0912 23.2578 44.9787 22.7471 44.7537L22.9842 44.1244C23.2214 44.2277 23.4463 44.3037 23.6592 44.3524C23.872 44.401 24.0818 44.4254 24.2885 44.4254ZM29.9128 41.0961C29.7973 41.0961 29.6605 41.1235 29.5024 41.1782C29.3503 41.2269 29.174 41.3242 28.9733 41.4701C28.7727 41.616 28.5416 41.8289 28.2801 42.1086L27.7693 45H27.0214L28.2072 38.2503H28.9551L28.4261 41.2694C28.7727 40.9107 29.0828 40.6766 29.3564 40.5671C29.6361 40.4516 29.8885 40.3938 30.1135 40.3938C30.5331 40.3938 30.8401 40.5428 31.0347 40.8407C31.2293 41.1387 31.284 41.5309 31.1989 42.0174L30.6699 45H29.9219L30.4327 42.0812C30.4996 41.7529 30.4844 41.5066 30.3871 41.3424C30.2959 41.1782 30.1378 41.0961 29.9128 41.0961ZM36.2364 42.6467L36.1635 43.1028C36.0662 43.7474 35.8351 44.2399 35.4703 44.5804C35.1115 44.9209 34.6433 45.0912 34.0656 45.0912C33.6399 45.0912 33.2872 44.9939 33.0075 44.7993C32.7339 44.6047 32.5424 44.3372 32.4329 43.9967C32.3234 43.6561 32.3022 43.27 32.369 42.8383L32.442 42.3731C32.5454 41.7529 32.7734 41.2694 33.1261 40.9228C33.4849 40.5701 33.9561 40.3938 34.5399 40.3938C34.9716 40.3938 35.3243 40.4941 35.5979 40.6948C35.8716 40.8955 36.0631 41.1661 36.1726 41.5066C36.282 41.841 36.3033 42.2211 36.2364 42.6467ZM35.4611 42.6285C35.5341 42.1724 35.4915 41.8015 35.3334 41.5157C35.1753 41.2238 34.9078 41.0779 34.5308 41.0779C34.1781 41.0779 33.8862 41.1904 33.6551 41.4154C33.4301 41.6404 33.2842 41.9596 33.2173 42.3731L33.1443 42.8565C33.0714 43.3247 33.1139 43.7018 33.272 43.9875C33.4362 44.2733 33.7038 44.4162 34.0747 44.4162C34.4274 44.4162 34.7162 44.3068 34.9412 44.0879C35.1723 43.8629 35.3213 43.5345 35.3882 43.1028L35.4611 42.6285ZM39.1093 45.0912C38.9026 45.0912 38.7049 45.0669 38.5164 45.0182C38.3279 44.9696 38.1425 44.9027 37.96 44.8176L37.5861 46.9428H36.8381L37.9874 40.485H38.6897L38.5438 41.3059C38.8357 40.9654 39.1124 40.7282 39.3738 40.5945C39.6353 40.4607 39.8816 40.3938 40.1126 40.3938C40.4167 40.3938 40.666 40.4881 40.8606 40.6766C41.0552 40.8651 41.1889 41.1235 41.2619 41.4519C41.341 41.7802 41.3501 42.1542 41.2893 42.5738L41.2254 43.0116C41.1281 43.6744 40.9001 44.1882 40.5413 44.5531C40.1826 44.9118 39.7052 45.0912 39.1093 45.0912ZM39.9029 41.0779C39.7144 41.0779 39.4954 41.163 39.2461 41.3333C38.9968 41.5035 38.7201 41.7985 38.4161 42.218L38.0786 44.1517C38.4131 44.3281 38.7384 44.4162 39.0546 44.4162C39.4681 44.4162 39.7873 44.2916 40.0123 44.0423C40.2434 43.7869 40.3893 43.4433 40.4501 43.0116L40.514 42.5738C40.5809 42.0934 40.5626 41.7255 40.4593 41.4701C40.3559 41.2086 40.1704 41.0779 39.9029 41.0779Z" fill="#DBFF00"/>
<path d="M96.5714 22.6897H95.3571V14.2414C95.3571 12.9138 94.2643 11.8276 92.9286 11.8276H85.6429V14.2414H92.9286V22.6897H91.7143C90.3786 22.6897 89.2857 23.7759 89.2857 25.1034V35.9655H74.5929C74.1071 34.2759 72.7714 32.9483 71.0714 32.4655V14.2414H78.6L75.4429 17.3793L77.1429 19.069L83.2143 13.0345L77.1429 7L75.4429 8.68966L78.6 11.8276H71.0714C69.7357 11.8276 68.6429 12.9138 68.6429 14.2414V32.4655C66.5786 32.9483 65 34.8793 65 37.1724C65 39.8276 67.1857 42 69.8571 42C72.1643 42 73.9857 40.431 74.5929 38.3793H89.2857V39.5862C89.2857 40.9138 90.3786 42 91.7143 42H96.5714C97.9071 42 99 40.9138 99 39.5862V25.1034C99 23.7759 97.9071 22.6897 96.5714 22.6897ZM69.8571 39.5862C68.5214 39.5862 67.4286 38.5 67.4286 37.1724C67.4286 35.8448 68.5214 34.7586 69.8571 34.7586C71.1929 34.7586 72.2857 35.8448 72.2857 37.1724C72.2857 38.5 71.1929 39.5862 69.8571 39.5862ZM91.7143 39.5862V25.1034H96.5714V39.5862H91.7143Z" fill="#0852BF"/>
</svg>
