<svg width="99" height="51" viewBox="0 0 99 51" fill="none" xmlns="http://www.w3.org/2000/svg">
<path d="M0 47V30H64C64 33 66.5 34.5 68 35C68.5 44 80.5 43 82 39.5C83.6 43.1 88 42.3333 90 41.5V47H0Z" fill="#0852BF"/>
<path d="M14.5419 29L12.9908 24.1948H5.14433L3.59328 29H1.0082L7.88148 8.31931H10.3753L17.279 29H14.5419ZM7.06034 18.2339L5.90465 21.7922H12.2001L11.0444 18.2339L9.06758 11.8472L7.06034 18.2339ZM32.0946 29L30.5435 24.1948H22.697L21.146 29H18.5609L25.4342 8.31931H27.928L34.8317 29H32.0946ZM24.613 18.2339L23.4573 21.7922H29.7528L28.5971 18.2339L26.6203 11.8472L24.613 18.2339ZM36.296 29.2129V26.6886C37.9383 26.6886 39.1346 26.3541 39.8848 25.685C40.6552 25.0159 41.0404 23.8501 41.0404 22.1875V8.31931H43.6863V22.1875C43.6863 23.5663 43.4633 24.7929 43.0173 25.8675C42.5915 26.9218 41.8413 27.7429 40.7667 28.3309C39.7124 28.9189 38.2222 29.2129 36.296 29.2129ZM60.2501 29L58.6991 24.1948H50.8526L49.3015 29H46.7165L53.5897 8.31931H56.0836L62.9873 29H60.2501ZM52.7686 18.2339L51.6129 21.7922H57.9084L56.7527 18.2339L54.7758 11.8472L52.7686 18.2339Z" fill="#0852BF"/>
<path d="M0.782709 45L1.87725 38.7976H3.64676C4.12714 38.7976 4.52543 38.907 4.84164 39.126C5.15784 39.3449 5.37978 39.6459 5.50748 40.029C5.63518 40.412 5.65342 40.8559 5.56221 41.3606L5.35242 42.592C5.21864 43.3399 4.93589 43.9298 4.50415 44.3615C4.07242 44.7872 3.50386 45 2.79849 45H0.782709ZM3.61028 39.5455H2.5431L1.70395 44.2612H2.82585C3.28191 44.2612 3.65588 44.1152 3.94776 43.8234C4.23964 43.5315 4.43422 43.121 4.53151 42.592L4.7413 41.3606C4.84468 40.8012 4.79907 40.3604 4.60448 40.0381C4.4099 39.7097 4.0785 39.5455 3.61028 39.5455ZM9.75539 44.8176C9.49391 44.9149 9.24156 44.9848 8.99833 45.0274C8.7551 45.0699 8.52403 45.0912 8.30512 45.0912C7.81866 45.0912 7.43557 44.9939 7.15585 44.7993C6.88221 44.5987 6.69979 44.3281 6.60858 43.9875C6.51737 43.647 6.50521 43.2639 6.57209 42.8383L6.65418 42.3731C6.75148 41.7772 6.97951 41.2998 7.33827 40.9411C7.70312 40.5762 8.16222 40.3938 8.71557 40.3938C8.98921 40.3938 9.2446 40.4424 9.48175 40.5397C9.72498 40.637 9.91957 40.7891 10.0655 40.9958C10.2114 41.2025 10.2844 41.4671 10.2844 41.7893C10.2844 41.9657 10.2571 42.1542 10.2023 42.3549C10.1537 42.5494 10.0594 42.7623 9.91957 42.9933H7.28355C7.22882 43.4129 7.27747 43.7565 7.42949 44.024C7.58151 44.2855 7.89467 44.4162 8.36897 44.4162C8.53923 44.4162 8.73381 44.398 8.95272 44.3615C9.17163 44.319 9.39966 44.2581 9.63681 44.1791L9.75539 44.8176ZM8.68821 41.0596C8.3416 41.0596 8.05581 41.1752 7.83082 41.4063C7.60583 41.6312 7.45989 41.9474 7.393 42.3549H9.43615C9.48479 42.2515 9.5152 42.1542 9.52736 42.063C9.5456 41.9718 9.55472 41.8866 9.55472 41.8076C9.55472 41.5522 9.47263 41.3637 9.30845 41.2421C9.14427 41.1205 8.93752 41.0596 8.68821 41.0596ZM9.29933 39.7188H8.60612L9.69154 38.2047L10.3939 38.5331L9.29933 39.7188ZM15.0911 40.485L12.7013 45H12.0081L11.1872 40.485H11.9169L12.2909 42.6832L12.5006 44.0788L13.203 42.6832L14.3249 40.485H15.0911ZM18.5826 44.8176C18.3212 44.9149 18.0688 44.9848 17.8256 45.0274C17.5823 45.0699 17.3513 45.0912 17.1324 45.0912C16.6459 45.0912 16.2628 44.9939 15.9831 44.7993C15.7095 44.5987 15.527 44.3281 15.4358 43.9875C15.3446 43.647 15.3324 43.2639 15.3993 42.8383L15.4814 42.3731C15.5787 41.7772 15.8067 41.2998 16.1655 40.9411C16.5304 40.5762 16.9895 40.3938 17.5428 40.3938C17.8164 40.3938 18.0718 40.4424 18.309 40.5397C18.5522 40.637 18.7468 40.7891 18.8927 40.9958C19.0387 41.2025 19.1117 41.4671 19.1117 41.7893C19.1117 41.9657 19.0843 42.1542 19.0296 42.3549C18.9809 42.5494 18.8867 42.7623 18.7468 42.9933H16.1108C16.0561 43.4129 16.1047 43.7565 16.2567 44.024C16.4087 44.2855 16.7219 44.4162 17.1962 44.4162C17.3665 44.4162 17.5611 44.398 17.78 44.3615C17.9989 44.319 18.2269 44.2581 18.464 44.1791L18.5826 44.8176ZM17.5154 41.0596C17.1688 41.0596 16.883 41.1752 16.6581 41.4063C16.4331 41.6312 16.2871 41.9474 16.2202 42.3549H18.2634C18.312 42.2515 18.3424 42.1542 18.3546 42.063C18.3728 41.9718 18.382 41.8866 18.382 41.8076C18.382 41.5522 18.2999 41.3637 18.1357 41.2421C17.9715 41.1205 17.7648 41.0596 17.5154 41.0596ZM20.0501 43.8599L21.0352 38.2503H21.7831L20.798 43.869C20.7737 44.0392 20.7767 44.1639 20.8071 44.2429C20.8436 44.322 20.947 44.3615 21.1172 44.3615H21.2541L21.1264 45.0456H20.9713C20.5517 45.0456 20.2781 44.9362 20.1504 44.7172C20.0227 44.4923 19.9893 44.2065 20.0501 43.8599ZM26.2677 42.6467L26.1948 43.1028C26.0975 43.7474 25.8664 44.2399 25.5015 44.5804C25.1428 44.9209 24.6746 45.0912 24.0969 45.0912C23.6712 45.0912 23.3185 44.9939 23.0388 44.7993C22.7652 44.6047 22.5736 44.3372 22.4642 43.9967C22.3547 43.6561 22.3334 43.27 22.4003 42.8383L22.4733 42.3731C22.5767 41.7529 22.8047 41.2694 23.1574 40.9228C23.5162 40.5701 23.9874 40.3938 24.5712 40.3938C25.0029 40.3938 25.3556 40.4941 25.6292 40.6948C25.9029 40.8955 26.0944 41.1661 26.2039 41.5066C26.3133 41.841 26.3346 42.2211 26.2677 42.6467ZM25.4924 42.6285C25.5654 42.1724 25.5228 41.8015 25.3647 41.5157C25.2066 41.2238 24.9391 41.0779 24.5621 41.0779C24.2094 41.0779 23.9175 41.1904 23.6864 41.4154C23.4614 41.6404 23.3155 41.9596 23.2486 42.3731L23.1756 42.8565C23.1027 43.3247 23.1452 43.7018 23.3033 43.9875C23.4675 44.2733 23.7351 44.4162 24.106 44.4162C24.4587 44.4162 24.7475 44.3068 24.9725 44.0879C25.2036 43.8629 25.3526 43.5345 25.4194 43.1028L25.4924 42.6285ZM29.1406 45.0912C28.9339 45.0912 28.7362 45.0669 28.5477 45.0182C28.3592 44.9696 28.1738 44.9027 27.9913 44.8176L27.6174 46.9428H26.8694L28.0187 40.485H28.721L28.5751 41.3059C28.867 40.9654 29.1436 40.7282 29.4051 40.5945C29.6666 40.4607 29.9129 40.3938 30.1439 40.3938C30.448 40.3938 30.6973 40.4881 30.8919 40.6766C31.0865 40.8651 31.2202 41.1235 31.2932 41.4519C31.3723 41.7802 31.3814 42.1542 31.3206 42.5738L31.2567 43.0116C31.1594 43.6744 30.9314 44.1882 30.5726 44.5531C30.2139 44.9118 29.7365 45.0912 29.1406 45.0912ZM29.9342 41.0779C29.7456 41.0779 29.5267 41.163 29.2774 41.3333C29.0281 41.5035 28.7514 41.7985 28.4474 42.218L28.1099 44.1517C28.4444 44.3281 28.7697 44.4162 29.0859 44.4162C29.4994 44.4162 29.8186 44.2916 30.0436 44.0423C30.2747 43.7869 30.4206 43.4433 30.4814 43.0116L30.5453 42.5738C30.6122 42.0934 30.5939 41.7255 30.4905 41.4701C30.3872 41.2086 30.2017 41.0779 29.9342 41.0779ZM34.2089 45.0912C34.0022 45.0912 33.8045 45.0669 33.616 45.0182C33.4275 44.9696 33.2421 44.9027 33.0597 44.8176L32.6857 46.9428H31.9377L33.087 40.485H33.7893L33.6434 41.3059C33.9353 40.9654 34.212 40.7282 34.4734 40.5945C34.7349 40.4607 34.9812 40.3938 35.2123 40.3938C35.5163 40.3938 35.7656 40.4881 35.9602 40.6766C36.1548 40.8651 36.2885 41.1235 36.3615 41.4519C36.4406 41.7802 36.4497 42.1542 36.3889 42.5738L36.325 43.0116C36.2277 43.6744 35.9997 44.1882 35.6409 44.5531C35.2822 44.9118 34.8048 45.0912 34.2089 45.0912ZM35.0025 41.0779C34.814 41.0779 34.5951 41.163 34.3457 41.3333C34.0964 41.5035 33.8197 41.7985 33.5157 42.218L33.1782 44.1517C33.5127 44.3281 33.838 44.4162 34.1542 44.4162C34.5677 44.4162 34.8869 44.2916 35.1119 44.0423C35.343 43.7869 35.4889 43.4433 35.5497 43.0116L35.6136 42.5738C35.6805 42.0934 35.6622 41.7255 35.5589 41.4701C35.4555 41.2086 35.27 41.0779 35.0025 41.0779ZM40.6819 44.8176C40.4204 44.9149 40.1681 44.9848 39.9248 45.0274C39.6816 45.0699 39.4505 45.0912 39.2316 45.0912C38.7452 45.0912 38.3621 44.9939 38.0824 44.7993C37.8087 44.5987 37.6263 44.3281 37.5351 43.9875C37.4439 43.647 37.4317 43.2639 37.4986 42.8383L37.5807 42.3731C37.678 41.7772 37.906 41.2998 38.2648 40.9411C38.6296 40.5762 39.0887 40.3938 39.6421 40.3938C39.9157 40.3938 40.1711 40.4424 40.4083 40.5397C40.6515 40.637 40.8461 40.7891 40.992 40.9958C41.138 41.2025 41.2109 41.4671 41.2109 41.7893C41.2109 41.9657 41.1836 42.1542 41.1288 42.3549C41.0802 42.5494 40.9859 42.7623 40.8461 42.9933H38.2101C38.1553 43.4129 38.204 43.7565 38.356 44.024C38.508 44.2855 38.8212 44.4162 39.2955 44.4162C39.4657 44.4162 39.6603 44.398 39.8792 44.3615C40.0981 44.319 40.3262 44.2581 40.5633 44.1791L40.6819 44.8176ZM39.6147 41.0596C39.2681 41.0596 38.9823 41.1752 38.7573 41.4063C38.5323 41.6312 38.3864 41.9474 38.3195 42.3549H40.3627C40.4113 42.2515 40.4417 42.1542 40.4539 42.063C40.4721 41.9718 40.4812 41.8866 40.4812 41.8076C40.4812 41.5522 40.3991 41.3637 40.235 41.2421C40.0708 41.1205 39.864 41.0596 39.6147 41.0596ZM44.8036 41.0961C44.6333 41.0961 44.4205 41.163 44.1651 41.2968C43.9158 41.4245 43.5996 41.6951 43.2165 42.1086L42.7057 45H41.9578L42.7605 40.485H43.4628L43.326 41.3059C43.6787 40.935 43.9918 40.6918 44.2654 40.5762C44.5391 40.4546 44.7854 40.3938 45.0043 40.3938C45.3022 40.3938 45.5424 40.4789 45.7248 40.6492C45.9073 40.8195 46.0198 41.0505 46.0623 41.3424C46.4211 40.9593 46.7464 40.707 47.0383 40.5853C47.3302 40.4577 47.5886 40.3938 47.8136 40.3938C48.221 40.3938 48.5159 40.5428 48.6983 40.8407C48.8868 41.1387 48.9385 41.5309 48.8534 42.0174L48.3244 45H47.5764L48.0963 42.0812C48.1572 41.7529 48.142 41.5066 48.0507 41.3424C47.9595 41.1782 47.8136 41.0961 47.6129 41.0961C47.5035 41.0961 47.3727 41.1235 47.2207 41.1782C47.0748 41.233 46.9045 41.3333 46.7099 41.4792C46.5153 41.6191 46.2873 41.8289 46.0258 42.1086L45.5151 45H44.7671L45.2779 42.0812C45.3387 41.7529 45.3235 41.5066 45.2323 41.3424C45.1472 41.1782 45.0043 41.0961 44.8036 41.0961ZM53.2146 44.8176C52.9531 44.9149 52.7008 44.9848 52.4576 45.0274C52.2143 45.0699 51.9833 45.0912 51.7643 45.0912C51.2779 45.0912 50.8948 44.9939 50.6151 44.7993C50.3414 44.5987 50.159 44.3281 50.0678 43.9875C49.9766 43.647 49.9644 43.2639 50.0313 42.8383L50.1134 42.3731C50.2107 41.7772 50.4387 41.2998 50.7975 40.9411C51.1623 40.5762 51.6214 40.3938 52.1748 40.3938C52.4484 40.3938 52.7038 40.4424 52.941 40.5397C53.1842 40.637 53.3788 40.7891 53.5247 40.9958C53.6707 41.2025 53.7436 41.4671 53.7436 41.7893C53.7436 41.9657 53.7163 42.1542 53.6615 42.3549C53.6129 42.5494 53.5187 42.7623 53.3788 42.9933H50.7428C50.688 43.4129 50.7367 43.7565 50.8887 44.024C51.0407 44.2855 51.3539 44.4162 51.8282 44.4162C51.9985 44.4162 52.193 44.398 52.4119 44.3615C52.6309 44.319 52.8589 44.2581 53.096 44.1791L53.2146 44.8176ZM52.1474 41.0596C51.8008 41.0596 51.515 41.1752 51.29 41.4063C51.0651 41.6312 50.9191 41.9474 50.8522 42.3549H52.8954C52.944 42.2515 52.9744 42.1542 52.9866 42.063C53.0048 41.9718 53.0139 41.8866 53.0139 41.8076C53.0139 41.5522 52.9319 41.3637 52.7677 41.2421C52.6035 41.1205 52.3967 41.0596 52.1474 41.0596ZM57.3819 41.0961C57.2664 41.0961 57.1326 41.1235 56.9806 41.1782C56.8286 41.2269 56.6522 41.3242 56.4516 41.4701C56.2509 41.61 56.0198 41.8197 55.7584 42.0995L55.2384 45H54.4905L55.2932 40.485H55.9955L55.8587 41.315C56.2175 40.938 56.5367 40.6918 56.8164 40.5762C57.1022 40.4546 57.3576 40.3938 57.5826 40.3938C57.9961 40.3938 58.3001 40.5458 58.4947 40.8499C58.6954 41.1478 58.7531 41.537 58.668 42.0174L58.139 45H57.391L57.9018 42.0812C58.0235 41.4245 57.8501 41.0961 57.3819 41.0961ZM62.2279 44.8449C61.8387 45.0091 61.4709 45.0912 61.1242 45.0912C60.8141 45.0912 60.5739 45.0243 60.4037 44.8905C60.2334 44.7507 60.124 44.5713 60.0753 44.3524C60.0267 44.1335 60.0236 43.8994 60.0662 43.6501L60.504 41.1417H59.7196L59.829 40.485H60.6226L60.8415 39.2263H61.5894L61.3705 40.485H62.8482L62.7296 41.1417H61.2519L60.805 43.6501C60.7564 43.9298 60.7776 44.1274 60.8689 44.2429C60.9601 44.3524 61.0938 44.4071 61.2702 44.4071C61.3675 44.4071 61.483 44.395 61.6168 44.3706C61.7566 44.3402 61.9056 44.2885 62.0637 44.2156L62.2279 44.8449Z" fill="#DBFF00"/>
<path d="M73.7762 8.68602C75.2254 7.58852 76.9946 6.99657 78.8125 7.00094C79.4403 6.98686 80.0616 7.13136 80.6187 7.42108C81.1759 7.71079 81.651 8.13636 82 8.65839C82.349 8.13636 82.8241 7.71079 83.3813 7.42108C83.9384 7.13136 84.5597 6.98686 85.1875 7.00094C87.0054 6.99657 88.7746 7.58852 90.2237 8.68602C91.3394 9.55299 92.2 10.7536 92.5039 12.2049C93.2009 12.258 93.8384 12.547 94.3739 12.9826C95.1856 13.6414 95.7764 14.6295 96.1483 15.6749C96.7305 17.3005 96.8878 19.3723 96.2843 21.136C96.4373 21.2083 96.5881 21.2933 96.7348 21.391C97.3191 21.7799 97.7633 22.3366 98.0905 22.9932C98.7344 24.2788 99 26.0723 99 28.2504C99 30.6749 98.0756 32.3026 96.9026 33.3077C96.254 33.8639 95.4885 34.2669 94.6629 34.4871C94.4504 35.6728 93.8554 37.0455 92.9225 38.21C91.7113 39.7293 89.8328 41 87.3125 41C85.315 41 83.7255 39.895 82.6928 38.8113C82.4458 38.5526 82.2145 38.2794 82 37.9932C81.7855 38.2794 81.5542 38.5526 81.3072 38.8113C80.2745 39.895 78.6871 41 76.6875 41C74.1672 41 72.2909 39.7293 71.0775 38.21C70.2057 37.1274 69.6086 35.8502 69.3371 34.4871C68.5115 34.2669 67.746 33.8639 67.0974 33.3077C65.9244 32.3026 65 30.6728 65 28.2504C65 26.0723 65.2677 24.2767 65.9095 22.9932C66.2136 22.3493 66.6811 21.7962 67.2652 21.3889C67.4088 21.2939 67.5594 21.2101 67.7158 21.1382C67.1123 19.3702 67.2695 17.3005 67.8517 15.6749C68.2236 14.6295 68.8144 13.6414 69.6261 12.9826C70.1616 12.547 70.7991 12.2602 71.4961 12.2049C71.8021 10.7536 72.6606 9.55299 73.7762 8.68602ZM80.9375 12.3133V12.292L80.9333 12.1858C80.902 11.6318 80.7918 11.0852 80.606 10.5623C80.4737 10.1677 80.2485 9.81055 79.9494 9.52112C79.6355 9.24781 79.2282 9.10622 78.8125 9.12588C77.4673 9.12127 76.1572 9.55545 75.081 10.3626C74.095 11.1297 73.5 12.1688 73.5 13.3758C73.4999 13.544 73.4598 13.7098 73.383 13.8596C73.3063 14.0093 73.1951 14.1387 73.0585 14.237C72.922 14.3354 72.7641 14.3999 72.5977 14.4253C72.4314 14.4507 72.2614 14.4362 72.1017 14.383C71.7023 14.2512 71.3453 14.3256 70.9649 14.6316C70.5484 14.9716 70.1425 15.5751 69.8514 16.3889C69.2585 18.0506 69.3201 20.063 70.134 21.2869C70.2502 21.4612 70.3123 21.666 70.3125 21.8755H71.9062C73.1743 21.8755 74.3904 22.3793 75.2871 23.2759C76.1838 24.1725 76.6875 25.3886 76.6875 26.6566V27.3685C77.3964 27.6191 77.9939 28.1123 78.3744 28.7608C78.7548 29.4094 78.8937 30.1716 78.7666 30.9126C78.6394 31.6537 78.2544 32.3259 77.6795 32.8106C77.1046 33.2952 76.3769 33.561 75.625 33.561C74.8731 33.561 74.1454 33.2952 73.5705 32.8106C72.9956 32.3259 72.6106 31.6537 72.4834 30.9126C72.3563 30.1716 72.4952 29.4094 72.8756 28.7608C73.2561 28.1123 73.8536 27.6191 74.5625 27.3685V26.6566C74.5625 25.1904 73.3725 24.0005 71.9062 24.0005H68.1875C68.0605 24.0003 67.9345 23.9772 67.8156 23.9325L67.8093 23.9452C67.3885 24.7846 67.125 26.1785 67.125 28.2504C67.125 30.0757 67.7944 31.1041 68.4808 31.6928C69.2181 32.326 70.0363 32.5002 70.3125 32.5002C70.5943 32.5002 70.8645 32.6122 71.0638 32.8114C71.2631 33.0107 71.375 33.2809 71.375 33.5627C71.375 34.3447 71.8 35.711 72.735 36.884C73.6466 38.0208 74.9578 38.8751 76.6875 38.8751C77.8775 38.8751 78.9442 38.21 79.7687 37.3451C80.1746 36.9201 80.4913 36.4802 80.6974 36.119C80.7912 35.9588 80.8715 35.7911 80.9375 35.6175V18.6881H78.6319C78.3812 19.397 77.8881 19.9945 77.2395 20.3749C76.5909 20.7554 75.8287 20.8943 75.0877 20.7672C74.3466 20.64 73.6743 20.255 73.1896 19.6801C72.705 19.1052 72.4392 18.3775 72.4392 17.6256C72.4392 16.8737 72.705 16.1461 73.1896 15.5712C73.6743 14.9963 74.3466 14.6113 75.0877 14.4841C75.8287 14.357 76.5909 14.4959 77.2395 14.8764C77.8881 15.2568 78.3812 15.8543 78.6319 16.5632H80.9375V12.3133ZM83.0625 33.5606V35.6154C83.1285 35.7889 83.2088 35.9567 83.3026 36.1169C83.5109 36.4781 83.8254 36.918 84.2291 37.343C85.0557 38.2078 86.1246 38.8729 87.3125 38.8729C89.0422 38.8729 90.3534 38.0187 91.265 36.8819C92.2 35.7089 92.625 34.3426 92.625 33.5606C92.625 33.2788 92.7369 33.0086 92.9362 32.8093C93.1355 32.61 93.4057 32.4981 93.6875 32.4981C93.9638 32.4981 94.7819 32.3239 95.5192 31.6906C96.2056 31.102 96.875 30.0736 96.875 28.2482C96.875 26.1764 96.6094 24.7846 96.1907 23.9431C96.0507 23.6298 95.8309 23.3587 95.5533 23.1569C95.314 23.0039 95.0338 22.9276 94.75 22.938C94.5578 22.9379 94.3692 22.8857 94.2044 22.7869C94.0395 22.6881 93.9046 22.5464 93.8139 22.377C93.7231 22.2076 93.6801 22.0167 93.6893 21.8248C93.6984 21.6328 93.7595 21.4469 93.866 21.2869C94.682 20.063 94.7415 18.0506 94.1486 16.3889C93.8575 15.5751 93.4516 14.9695 93.0351 14.6316C92.6547 14.3256 92.2978 14.2491 91.8983 14.383C91.7386 14.4362 91.5686 14.4507 91.4023 14.4253C91.2359 14.3999 91.078 14.3354 90.9415 14.237C90.8049 14.1387 90.6937 14.0093 90.617 13.8596C90.5402 13.7098 90.5001 13.544 90.5 13.3758C90.5 12.1688 89.905 11.1297 88.9169 10.3626C87.8413 9.55589 86.532 9.12173 85.1875 9.12588C84.7718 9.10622 84.3645 9.24781 84.0506 9.52112C83.7506 9.81021 83.5246 10.1674 83.3919 10.5623C83.1896 11.1174 83.0783 11.7015 83.0625 12.292V31.4378H84.6562C86.1225 31.4378 87.3125 30.2478 87.3125 28.7816V24.8823C86.6036 24.6317 86.0061 24.1385 85.6256 23.49C85.2452 22.8414 85.1063 22.0793 85.2334 21.3382C85.3606 20.5971 85.7456 19.9249 86.3205 19.4402C86.8954 18.9556 87.6231 18.6898 88.375 18.6898C89.1269 18.6898 89.8546 18.9556 90.4295 19.4402C91.0044 19.9249 91.3894 20.5971 91.5166 21.3382C91.6437 22.0793 91.5048 22.8414 91.1244 23.49C90.7439 24.1385 90.1464 24.6317 89.4375 24.8823V28.7816C89.4375 30.0496 88.9338 31.2657 88.0371 32.1623C87.1404 33.059 85.9243 33.5627 84.6562 33.5627H83.0625V33.5606ZM74.5625 17.6256C74.5625 17.9074 74.6744 18.1777 74.8737 18.3769C75.073 18.5762 75.3432 18.6881 75.625 18.6881C75.9068 18.6881 76.177 18.5762 76.3763 18.3769C76.5756 18.1777 76.6875 17.9074 76.6875 17.6256C76.6875 17.3439 76.5756 17.0736 76.3763 16.8744C76.177 16.6751 75.9068 16.5632 75.625 16.5632C75.3432 16.5632 75.073 16.6751 74.8737 16.8744C74.6744 17.0736 74.5625 17.3439 74.5625 17.6256ZM88.375 22.938C88.6568 22.938 88.927 22.8261 89.1263 22.6268C89.3256 22.4276 89.4375 22.1573 89.4375 21.8755C89.4375 21.5937 89.3256 21.3235 89.1263 21.1242C88.927 20.925 88.6568 20.8131 88.375 20.8131C88.0932 20.8131 87.823 20.925 87.6237 21.1242C87.4244 21.3235 87.3125 21.5937 87.3125 21.8755C87.3125 22.1573 87.4244 22.4276 87.6237 22.6268C87.823 22.8261 88.0932 22.938 88.375 22.938ZM75.625 29.3128C75.3432 29.3128 75.073 29.4248 74.8737 29.624C74.6744 29.8233 74.5625 30.0935 74.5625 30.3753C74.5625 30.6571 74.6744 30.9273 74.8737 31.1266C75.073 31.3258 75.3432 31.4378 75.625 31.4378C75.9068 31.4378 76.177 31.3258 76.3763 31.1266C76.5756 30.9273 76.6875 30.6571 76.6875 30.3753C76.6875 30.0935 76.5756 29.8233 76.3763 29.624C76.177 29.4248 75.9068 29.3128 75.625 29.3128Z" fill="#0852BF"/>
</svg>
