<svg width="1352" height="450" viewBox="0 0 1352 450" fill="none" xmlns="http://www.w3.org/2000/svg">
<path d="M696.526 254.097C697.069 255.424 697.314 256.731 697.343 257.852L695.462 252.093C692.622 247.821 686.119 244.257 673.014 247.296C653.891 251.729 637.444 233.836 631.61 224.334C626.204 218.88 614.708 204.91 611.976 192.664C608.561 177.357 605.787 158.354 607.921 154.132C609.628 150.753 607.352 144.982 606 142.519C608.49 143.311 613.512 146.003 613.683 150.437C613.896 155.979 609.628 167.328 615.817 187.913C620.769 204.382 631.397 216.945 636.092 221.167C638.44 226.71 648.556 237.953 670.239 238.586C691.922 239.22 694.355 242.545 692.861 244.129L695.462 252.093C695.9 252.751 696.251 253.427 696.526 254.097Z" fill="url(#paint0_linear_23_233)"/>
<path d="M618.134 205.73C618.511 206.1 618.681 206.464 618.702 206.776L617.396 205.172C615.425 203.982 610.911 202.989 601.814 203.835C588.541 205.071 577.124 200.086 573.075 197.439C569.323 195.92 561.343 192.028 559.447 188.617C557.077 184.352 555.151 179.059 556.632 177.883C557.817 176.941 556.237 175.334 555.299 174.648C557.027 174.868 560.513 175.618 560.632 176.853C560.78 178.397 557.817 181.559 562.113 187.293C565.55 191.881 572.927 195.38 576.186 196.557C577.816 198.101 584.837 201.233 599.888 201.409C614.939 201.586 616.628 202.512 615.591 202.953L617.396 205.172C617.7 205.355 617.944 205.543 618.134 205.73Z" fill="url(#paint1_linear_23_233)"/>
<path d="M804.416 310.823C808.716 310.823 815.167 311.934 817.855 312.49H821.081C839.834 312.49 885.053 321.656 914.62 329.156C944.187 336.655 964.615 343.322 1012.46 334.572C1060.3 325.823 1085.38 337.419 1127.5 352.488C1148.5 360 1152 364.286 1199 369.988H1351.5V450H0V369.988H119C156.272 358.183 235.44 336.322 253.933 343.322C277.049 352.072 330.269 352.488 367.9 343.322C405.531 334.156 429.722 335.822 439.398 335.822C449.075 335.822 464.127 334.572 479.717 339.572C495.307 344.572 515.197 344.572 531.862 343.322C548.527 342.072 544.227 347.905 550.14 329.156C556.053 310.406 584.007 295.824 596.372 285.407C608.736 274.991 652.818 257.075 667.333 247.908C681.847 238.742 711.414 219.993 717.328 216.659C723.241 213.326 766.785 204.16 773.774 185.827C780.762 167.494 797.965 160.828 805.491 156.245C813.017 151.662 825.381 145.412 812.479 137.079C799.577 128.746 797.965 115.413 790.976 100.413C783.988 85.4138 805.491 77.4974 814.092 67.0811C822.693 56.6648 808.179 54.9982 797.965 45.4152C787.751 35.8321 790.439 27.0824 793.126 15.4162C795.277 6.08313 788.288 1.24996 784.525 0H799.04C797.786 0 796.029 0.416653 799.04 2.08326L799.096 2.11422C802.856 4.19554 808.165 7.13458 805.491 17.4994C802.803 27.9157 799.04 28.749 814.092 42.0819C829.144 55.4148 823.769 56.6648 821.081 72.9142C818.393 89.1637 809.791 84.1639 808.179 96.6635C806.566 109.163 818.93 138.329 825.381 127.079C831.832 115.829 840.971 112.913 858.174 103.747C875.376 94.5802 868.925 95.4135 868.925 85.8305C868.925 78.1641 861.758 70.1366 858.174 67.0811C851.544 60.2758 836.993 44.9985 831.832 38.3321C825.381 29.999 833.445 18.7494 835.058 12.0829C836.348 6.74978 832.011 1.8055 829.682 0H840.971C842.763 4.72206 845.272 15.9161 840.971 22.9159C835.595 31.6656 840.971 42.0819 861.937 57.4981C882.902 72.9142 875.914 93.3302 883.44 90.4137C890.966 87.4971 912.469 60.8313 887.203 46.6651C866.99 35.3322 856.203 10.833 853.336 0H868.925C875.376 17.4994 889.461 48.7484 894.192 33.7489C898.922 18.7494 925.909 4.99983 938.811 0H959.239C957.268 1.38884 951.068 4.74984 942.036 7.0831C930.747 9.99967 899.567 29.5824 909.781 42.0819C919.996 54.5815 918.92 96.6635 883.44 106.246C847.96 115.829 840.971 131.246 840.971 138.329C840.971 145.412 834.52 165.411 821.081 167.494C807.641 169.578 800.115 183.327 799.04 197.493C797.965 211.66 780.762 216.659 766.785 223.326C755.603 228.659 749.582 233.048 747.97 234.576C682.385 256.658 714.41 258.683 682.385 276.657C666.795 285.407 624.326 319.573 623.251 329.156C622.176 338.739 642.604 336.239 670.558 334.572C698.512 332.906 799.04 310.823 804.416 310.823Z" fill="url(#paint2_linear_23_233)"/>
<path d="M347.449 272.587C348.816 274.657 349.432 276.697 349.507 278.448L344.772 269.459C337.621 262.792 321.249 257.229 288.254 261.971C240.11 268.891 198.701 240.964 184.015 226.136C170.403 217.623 141.46 195.82 134.582 176.707C125.985 152.817 119 123.16 124.373 116.569C128.672 111.297 122.94 102.29 119.537 98.4453C125.806 99.681 138.451 103.882 138.88 110.802C139.418 119.452 128.671 137.164 144.254 169.293C156.719 194.996 183.477 214.602 195.298 221.193C201.209 229.843 226.677 247.39 281.268 248.379C335.86 249.367 341.985 254.557 338.224 257.029L344.772 269.459C345.874 270.487 346.758 271.541 347.449 272.587Z" fill="url(#paint3_linear_23_233)"/>
<path d="M152.364 175.733C147.5 177.119 149.607 181.735 149.5 184.533L146.5 181.238C145.375 180.412 138.126 171.522 154.453 171.192C170.779 170.862 178.396 164.999 180.163 162.11C183.698 159.908 191.701 153.357 195.429 144.77C200.089 134.036 196.875 128.118 197.036 125.228C197.164 122.917 200.946 121.513 202.821 121.1C201.803 122.384 200.089 125.394 201.375 127.155C202.981 129.357 200.892 139.265 198.321 147.247C196.265 153.632 187.609 160.917 183.538 163.761C179.146 168.715 166.227 171.784 152.364 175.733Z" fill="url(#paint4_linear_23_233)"/>
<path d="M714.634 166.232C716.215 192.006 751.183 202.385 740.646 214.19L766 207.304C754.476 199.762 730.768 182.415 728.134 173.364C724.841 162.051 719.902 133.767 711.341 127.373C704.493 122.257 690.927 115.567 685 112.862C694.22 119.912 713.054 140.457 714.634 166.232Z" fill="url(#paint5_linear_23_233)"/>
<path d="M367.748 348.471H423.857C410.278 320.262 382.506 250.202 380.046 195.642C376.972 127.441 389.654 147.055 395.418 138.393C405.026 123.956 455.37 144.367 509.174 104.541C531.552 87.9768 548.757 56.2533 559.134 28.8734C567.435 6.96944 602.304 0.497826 618.701 1.13392e-05H568.741C553.753 6.96944 522.778 26.4838 518.781 48.786C513.785 76.6637 506.868 80.6462 484.962 100.559C463.057 120.472 403.105 100.559 403.105 100.559C403.105 100.559 416.94 73.179 423.857 70.6899C430.775 68.2009 468.821 56.2532 484.962 35.8428C497.875 19.5144 490.342 5.14411 484.962 1.13392e-05H450.759C453.577 5.31005 458.445 18.5188 455.37 28.8734C451.527 41.8166 410.022 56.2532 423.857 43.8078C434.925 33.8515 419.245 10.4542 410.022 1.13392e-05H360.062C381.327 6.13974 399.763 40.7748 385.042 62.227C363.522 93.5894 351.223 88.6113 354.298 133.415C356.757 169.258 362.24 198.629 349.302 214.061C327.781 180.707 316.636 122.961 305.106 100.559C278.871 49.5838 256.043 5.64193 271.672 1.13392e-05H243.617C238.237 3.75774e-06 242.848 67.2052 260.911 88.6113C278.973 110.017 310.871 149.42 310.871 195.642C310.871 205.598 334.314 264.34 343.921 281.764C363.905 318.006 371.463 337.022 367.748 348.471Z" fill="url(#paint6_linear_23_233)"/>
<defs>
<linearGradient id="paint0_linear_23_233" x1="651.672" y1="142.519" x2="651.672" y2="257.852" gradientUnits="userSpaceOnUse">
<stop stop-color="#7BB0FF"/>
<stop offset="1" stop-color="#3184FD"/>
</linearGradient>
<linearGradient id="paint1_linear_23_233" x1="587" y1="174.648" x2="587" y2="206.776" gradientUnits="userSpaceOnUse">
<stop stop-color="#7BB0FF"/>
<stop offset="1" stop-color="#528EE8"/>
</linearGradient>
<linearGradient id="paint2_linear_23_233" x1="659" y1="0" x2="659" y2="370.714" gradientUnits="userSpaceOnUse">
<stop stop-color="#7BB0FF"/>
<stop offset="1" stop-color="#0D6EFD"/>
</linearGradient>
<linearGradient id="paint3_linear_23_233" x1="234.522" y1="98.4453" x2="234.522" y2="278.448" gradientUnits="userSpaceOnUse">
<stop stop-color="#7BB0FF"/>
<stop offset="1" stop-color="#3183FE"/>
</linearGradient>
<linearGradient id="paint4_linear_23_233" x1="169.558" y1="121.1" x2="169.558" y2="186.181" gradientUnits="userSpaceOnUse">
<stop stop-color="#7BB0FF"/>
<stop offset="1" stop-color="#5C9DFE"/>
</linearGradient>
<linearGradient id="paint5_linear_23_233" x1="725.5" y1="112.862" x2="725.5" y2="214.19" gradientUnits="userSpaceOnUse">
<stop stop-color="#78AEFF"/>
<stop offset="1" stop-color="#3D8AFE"/>
<stop offset="1" stop-color="#3D8AFE"/>
</linearGradient>
<linearGradient id="paint6_linear_23_233" x1="430.104" y1="0" x2="430.104" y2="348.471" gradientUnits="userSpaceOnUse">
<stop stop-color="#7BB0FF"/>
<stop offset="1" stop-color="#1673FD"/>
</linearGradient>
</defs>
</svg>
