<svg width="2189" height="338" viewBox="0 0 2189 338" fill="none" xmlns="http://www.w3.org/2000/svg">
<rect width="2189" height="338" fill="white"/>
<path d="M0 337.785V144.877C22.7848 144.877 70 167.626 138.225 108.075C164.668 84.9951 175.5 77.9355 215.5 96.9376C164.5 120.214 188 144.876 261.706 144.876C283.016 144.876 294.686 141.213 326 133.285C405 113.285 426 81.3074 464.5 108.075C404.5 118.367 467.498 140.417 507.162 153.555C542.195 165.158 686.5 84.112 743.5 99.3968C686 144.876 763.844 157.347 772.5 156.143C787.5 154.055 795.082 156.143 814.394 148.992C842.767 138.487 874.5 134.22 899.5 125.278C928 117.517 1003 76 1048 99.3968C1022.98 113.783 926.844 145.981 1138.5 148.992C1212.99 150.052 1408 37.5002 1594.5 76C1533 134.817 1549.98 150.254 1594.5 139.5C1594.5 139.5 1579.54 139.238 1711.5 120C1792 89.8963 2048.24 70.8564 2040 76C1835 204 2188.5 148.992 2188.5 148.992V337.785H0Z" fill="url(#paint0_linear_75_241)"/>
<defs>
<linearGradient id="paint0_linear_75_241" x1="1094.25" y1="74.6665" x2="1094.25" y2="337.785" gradientUnits="userSpaceOnUse">
<stop stop-color="#0D6EFD" stop-opacity="0.1"/>
<stop offset="0.302083" stop-color="#0D6EFD" stop-opacity="0.12"/>
<stop offset="0.776042" stop-color="#0D6EFD"/>
<stop offset="1" stop-color="#0D6EFD"/>
</linearGradient>
</defs>
</svg>
