<svg width="37" height="41" viewBox="0 0 37 41" fill="none" xmlns="http://www.w3.org/2000/svg">
<path d="M32.5001 32.3907H24.1401C23.8414 31.5509 23.3599 30.7882 22.7303 30.1579C22.1007 29.5276 21.3389 29.0454 20.5001 28.7464V22.3789H34.5001C35.0305 22.3789 35.5392 22.168 35.9143 21.7925C36.2893 21.4169 36.5001 20.9076 36.5001 20.3766C36.5001 19.8455 36.2893 19.3362 35.9143 18.9607C35.5392 18.5852 35.0305 18.3742 34.5001 18.3742H32.5001V6.36009C32.5001 4.76692 31.8679 3.239 30.7427 2.11246C29.6175 0.985913 28.0914 0.353027 26.5001 0.353027H10.5001C8.90877 0.353027 7.38265 0.985913 6.25743 2.11246C5.13221 3.239 4.50007 4.76692 4.50007 6.36009V18.3742H2.50007C1.96964 18.3742 1.46093 18.5852 1.08586 18.9607C0.710783 19.3362 0.50007 19.8455 0.50007 20.3766C0.50007 20.9076 0.710783 21.4169 1.08586 21.7925C1.46093 22.168 1.96964 22.3789 2.50007 22.3789H16.5001V28.7464C15.6613 29.0454 14.8995 29.5276 14.2699 30.1579C13.6403 30.7882 13.1587 31.5509 12.8601 32.3907H4.58241C4.05198 32.3907 3.54327 32.6017 3.1682 32.9772C2.79312 33.3527 2.58241 33.862 2.58241 34.3931C2.58241 34.9241 2.79312 35.4334 3.1682 35.8089C3.54327 36.1845 4.05198 36.3954 4.58241 36.3954H12.8601C13.2805 37.5551 14.0473 38.557 15.0564 39.2651C16.0655 39.9732 17.2678 40.353 18.5001 40.353C19.7323 40.353 20.9347 39.9732 21.9437 39.2651C22.9528 38.557 23.7197 37.5551 24.1401 36.3954H32.5001C33.0305 36.3954 33.5392 36.1845 33.9143 35.8089C34.2893 35.4334 34.5001 34.9241 34.5001 34.3931C34.5001 33.862 34.2893 33.3527 33.9143 32.9772C33.5392 32.6017 33.0305 32.3907 32.5001 32.3907ZM8.50007 18.3742V6.36009C8.50007 5.82903 8.71079 5.31973 9.08586 4.94421C9.46093 4.5687 9.96964 4.35774 10.5001 4.35774H26.5001C27.0305 4.35774 27.5392 4.5687 27.9143 4.94421C28.2894 5.31973 28.5001 5.82903 28.5001 6.36009V18.3742H8.50007ZM18.5001 36.3954C18.1045 36.3954 17.7178 36.278 17.3889 36.058C17.06 35.8379 16.8037 35.5252 16.6523 35.1593C16.5009 34.7934 16.4613 34.3908 16.5385 34.0024C16.6157 33.614 16.8062 33.2572 17.0859 32.9772C17.3656 32.6972 17.7219 32.5064 18.1099 32.4292C18.4979 32.3519 18.9 32.3916 19.2654 32.5431C19.6309 32.6947 19.9432 32.9513 20.163 33.2806C20.3828 33.6099 20.5001 33.997 20.5001 34.3931C20.5001 34.9241 20.2894 35.4334 19.9143 35.8089C19.5392 36.1845 19.0305 36.3954 18.5001 36.3954Z" fill="#DBFF00"/>
</svg>
