<svg width="36" height="34" viewBox="0 0 36 34" fill="none" xmlns="http://www.w3.org/2000/svg">
<mask id="path-1-outside-1_26_330" maskUnits="userSpaceOnUse" x="0.672363" y="0.720154" width="36" height="33" fill="black">
<rect fill="white" x="0.672363" y="0.720154" width="36" height="33"/>
<path d="M10.2228 3.24505C11.6347 2.25243 13.3583 1.71705 15.1294 1.721C15.7411 1.70827 16.3463 1.83896 16.8891 2.10099C17.432 2.36302 17.8948 2.74792 18.2349 3.22007C18.5749 2.74792 19.0378 2.36302 19.5806 2.10099C20.1234 1.83896 20.7287 1.70827 21.3403 1.721C23.1114 1.71705 24.8351 2.25243 26.247 3.24505C27.3339 4.02917 28.1724 5.11503 28.4684 6.42767C29.1475 6.47572 29.7686 6.7371 30.2903 7.13108C31.0812 7.72686 31.6567 8.62053 32.019 9.5661C32.5863 11.0363 32.7395 12.9102 32.1515 14.5053C32.3006 14.5707 32.4476 14.6475 32.5904 14.7359C33.1597 15.0876 33.5924 15.5912 33.9113 16.185C34.5386 17.3478 34.7974 18.9698 34.7974 20.9398C34.7974 23.1326 33.8968 24.6048 32.754 25.5138C32.122 26.0168 31.3762 26.3814 30.5719 26.5805C30.3648 27.6529 29.7851 28.8944 28.8763 29.9476C27.6962 31.3217 25.866 32.471 23.4106 32.471C21.4646 32.471 19.916 31.4716 18.9098 30.4915C18.6692 30.2574 18.4439 30.0104 18.2349 29.7515C18.0259 30.0104 17.8005 30.2575 17.5599 30.4915C16.5538 31.4716 15.0072 32.471 13.0591 32.471C10.6037 32.471 8.77561 31.3217 7.59346 29.9476C6.74413 28.9685 6.16241 27.8133 5.89787 26.5805C5.09351 26.3814 4.34772 26.0168 3.71576 25.5138C2.57295 24.6048 1.67236 23.1307 1.67236 20.9398C1.67236 18.9698 1.93322 17.3458 2.55846 16.185C2.85478 15.6026 3.31016 15.1024 3.87932 14.734C4.01914 14.6481 4.16588 14.5723 4.31822 14.5072C3.73025 12.9082 3.88346 11.0363 4.45072 9.5661C4.81303 8.62053 5.38857 7.72686 6.17943 7.13108C6.70115 6.7371 7.32225 6.47764 8.00131 6.42767C8.29943 5.11503 9.13584 4.02917 10.2228 3.24505ZM17.1997 6.52569V6.50647L17.1956 6.41038C17.1651 5.90935 17.0577 5.41493 16.8767 4.94207C16.7479 4.5851 16.5285 4.26212 16.237 4.00035C15.9312 3.75315 15.5344 3.6251 15.1294 3.64288C13.8188 3.63871 12.5424 4.0314 11.4939 4.76141C10.5333 5.45521 9.95361 6.395 9.95361 7.48663C9.95349 7.63881 9.91443 7.78879 9.83965 7.92421C9.76488 8.05964 9.65652 8.17665 9.52351 8.2656C9.39049 8.35455 9.23662 8.4129 9.07456 8.43585C8.9125 8.4588 8.74688 8.44569 8.59135 8.3976C8.20213 8.27844 7.85432 8.34571 7.48373 8.62246C7.07795 8.92996 6.68252 9.47577 6.39889 10.2118C5.82127 11.7148 5.88131 13.5348 6.67424 14.6418C6.78748 14.7994 6.84799 14.9846 6.84814 15.1741H8.40088C9.63631 15.1741 10.8211 15.6297 11.6947 16.4407C12.5683 17.2516 13.0591 18.3515 13.0591 19.4983V20.1422C13.7498 20.3689 14.3319 20.8149 14.7025 21.4015C15.0732 21.988 15.2085 22.6774 15.0847 23.3476C14.9608 24.0179 14.5857 24.6259 14.0256 25.0642C13.4655 25.5025 12.7565 25.7429 12.0239 25.7429C11.2914 25.7429 10.5824 25.5025 10.0223 25.0642C9.4622 24.6259 9.08706 24.0179 8.96318 23.3476C8.8393 22.6774 8.97466 21.988 9.34532 21.4015C9.71599 20.8149 10.2981 20.3689 10.9888 20.1422V19.4983C10.9888 18.1723 9.82939 17.096 8.40088 17.096H4.77783C4.65407 17.0958 4.53135 17.075 4.41553 17.0345L4.40932 17.046C3.99939 17.8052 3.74268 19.0659 3.74268 20.9398C3.74268 22.5906 4.39482 23.5208 5.06354 24.0532C5.78193 24.6259 6.579 24.7835 6.84814 24.7835C7.12269 24.7835 7.38598 24.8847 7.58011 25.065C7.77424 25.2452 7.8833 25.4896 7.8833 25.7444C7.8833 26.4517 8.29736 27.6875 9.2083 28.7483C10.0965 29.7765 11.3738 30.5491 13.0591 30.5491C14.2185 30.5491 15.2578 29.9476 16.061 29.1654C16.4565 28.781 16.7649 28.3832 16.9658 28.0565C17.0572 27.9116 17.1354 27.7599 17.1997 27.6029V12.2913H14.9534C14.7092 12.9325 14.2287 13.4728 13.5969 13.8169C12.965 14.161 12.2224 14.2867 11.5004 14.1717C10.7784 14.0567 10.1234 13.7084 9.65124 13.1885C9.17906 12.6686 8.92008 12.0104 8.92008 11.3304C8.92008 10.6503 9.17906 9.99219 9.65124 9.47225C10.1234 8.95232 10.7784 8.60408 11.5004 8.48908C12.2224 8.37409 12.965 8.49974 13.5969 8.84383C14.2287 9.18792 14.7092 9.72829 14.9534 10.3694H17.1997V6.52569ZM19.27 25.7425V27.601C19.3343 27.7579 19.4126 27.9096 19.504 28.0545C19.7069 28.3813 20.0133 28.7791 20.4066 29.1635C21.212 29.9457 22.2533 30.5472 23.4106 30.5472C25.0959 30.5472 26.3733 29.7746 27.2614 28.7464C28.1724 27.6855 28.5864 26.4498 28.5864 25.7425C28.5864 25.4877 28.6955 25.2432 28.8896 25.063C29.0837 24.8828 29.347 24.7816 29.6216 24.7816C29.8907 24.7816 30.6878 24.624 31.4062 24.0513C32.0749 23.5189 32.7271 22.5887 32.7271 20.9378C32.7271 19.064 32.4683 17.8052 32.0604 17.0441C31.924 16.7607 31.7098 16.5155 31.4393 16.333C31.2062 16.1947 30.9332 16.1256 30.6567 16.1351C30.4695 16.135 30.2858 16.0877 30.1252 15.9984C29.9646 15.909 29.8331 15.7809 29.7447 15.6277C29.6563 15.4745 29.6144 15.3018 29.6233 15.1282C29.6322 14.9546 29.6918 14.7865 29.7955 14.6418C30.5905 13.5348 30.6485 11.7148 30.0708 10.2118C29.7872 9.47577 29.3918 8.92803 28.986 8.62246C28.6154 8.34571 28.2676 8.27652 27.8784 8.3976C27.7228 8.44569 27.5572 8.4588 27.3952 8.43585C27.2331 8.4129 27.0792 8.35455 26.9462 8.2656C26.8132 8.17665 26.7048 8.05964 26.6301 7.92421C26.5553 7.78879 26.5162 7.63881 26.5161 7.48663C26.5161 6.395 25.9364 5.45521 24.9737 4.76141C23.9258 4.0318 22.6503 3.63912 21.3403 3.64288C20.9353 3.6251 20.5385 3.75315 20.2327 4.00035C19.9404 4.26181 19.7202 4.58484 19.5909 4.94207C19.3938 5.44407 19.2855 5.97235 19.27 6.50647V23.8226H20.8228C22.2513 23.8226 23.4106 22.7463 23.4106 21.4202V17.8936C22.72 17.6669 22.1379 17.2209 21.7672 16.6343C21.3965 16.0477 21.2612 15.3584 21.3851 14.6881C21.5089 14.0179 21.8841 13.4099 22.4442 12.9716C23.0043 12.5332 23.7132 12.2928 24.4458 12.2928C25.1784 12.2928 25.8874 12.5332 26.4474 12.9716C27.0075 13.4099 27.3827 14.0179 27.5065 14.6881C27.6304 15.3584 27.4951 16.0477 27.1244 16.6343C26.7537 17.2209 26.1716 17.6669 25.481 17.8936V21.4202C25.481 22.5671 24.9902 23.667 24.1166 24.4779C23.243 25.2889 22.0582 25.7444 20.8228 25.7444H19.27V25.7425ZM10.9888 11.3304C10.9888 11.5852 11.0978 11.8297 11.292 12.0099C11.4861 12.1901 11.7494 12.2913 12.0239 12.2913C12.2985 12.2913 12.5618 12.1901 12.7559 12.0099C12.95 11.8297 13.0591 11.5852 13.0591 11.3304C13.0591 11.0755 12.95 10.8311 12.7559 10.6509C12.5618 10.4707 12.2985 10.3694 12.0239 10.3694C11.7494 10.3694 11.4861 10.4707 11.292 10.6509C11.0978 10.8311 10.9888 11.0755 10.9888 11.3304ZM24.4458 16.1351C24.7203 16.1351 24.9836 16.0338 25.1778 15.8536C25.3719 15.6734 25.481 15.429 25.481 15.1741C25.481 14.9193 25.3719 14.6749 25.1778 14.4946C24.9836 14.3144 24.7203 14.2132 24.4458 14.2132C24.1713 14.2132 23.908 14.3144 23.7138 14.4946C23.5197 14.6749 23.4106 14.9193 23.4106 15.1741C23.4106 15.429 23.5197 15.6734 23.7138 15.8536C23.908 16.0338 24.1713 16.1351 24.4458 16.1351ZM12.0239 21.9007C11.7494 21.9007 11.4861 22.0019 11.292 22.1821C11.0978 22.3624 10.9888 22.6068 10.9888 22.8616C10.9888 23.1165 11.0978 23.3609 11.292 23.5411C11.4861 23.7213 11.7494 23.8226 12.0239 23.8226C12.2985 23.8226 12.5618 23.7213 12.7559 23.5411C12.95 23.3609 13.0591 23.1165 13.0591 22.8616C13.0591 22.6068 12.95 22.3624 12.7559 22.1821C12.5618 22.0019 12.2985 21.9007 12.0239 21.9007Z"/>
</mask>
<path d="M10.2228 3.24505C11.6347 2.25243 13.3583 1.71705 15.1294 1.721C15.7411 1.70827 16.3463 1.83896 16.8891 2.10099C17.432 2.36302 17.8948 2.74792 18.2349 3.22007C18.5749 2.74792 19.0378 2.36302 19.5806 2.10099C20.1234 1.83896 20.7287 1.70827 21.3403 1.721C23.1114 1.71705 24.8351 2.25243 26.247 3.24505C27.3339 4.02917 28.1724 5.11503 28.4684 6.42767C29.1475 6.47572 29.7686 6.7371 30.2903 7.13108C31.0812 7.72686 31.6567 8.62053 32.019 9.5661C32.5863 11.0363 32.7395 12.9102 32.1515 14.5053C32.3006 14.5707 32.4476 14.6475 32.5904 14.7359C33.1597 15.0876 33.5924 15.5912 33.9113 16.185C34.5386 17.3478 34.7974 18.9698 34.7974 20.9398C34.7974 23.1326 33.8968 24.6048 32.754 25.5138C32.122 26.0168 31.3762 26.3814 30.5719 26.5805C30.3648 27.6529 29.7851 28.8944 28.8763 29.9476C27.6962 31.3217 25.866 32.471 23.4106 32.471C21.4646 32.471 19.916 31.4716 18.9098 30.4915C18.6692 30.2574 18.4439 30.0104 18.2349 29.7515C18.0259 30.0104 17.8005 30.2575 17.5599 30.4915C16.5538 31.4716 15.0072 32.471 13.0591 32.471C10.6037 32.471 8.77561 31.3217 7.59346 29.9476C6.74413 28.9685 6.16241 27.8133 5.89787 26.5805C5.09351 26.3814 4.34772 26.0168 3.71576 25.5138C2.57295 24.6048 1.67236 23.1307 1.67236 20.9398C1.67236 18.9698 1.93322 17.3458 2.55846 16.185C2.85478 15.6026 3.31016 15.1024 3.87932 14.734C4.01914 14.6481 4.16588 14.5723 4.31822 14.5072C3.73025 12.9082 3.88346 11.0363 4.45072 9.5661C4.81303 8.62053 5.38857 7.72686 6.17943 7.13108C6.70115 6.7371 7.32225 6.47764 8.00131 6.42767C8.29943 5.11503 9.13584 4.02917 10.2228 3.24505ZM17.1997 6.52569V6.50647L17.1956 6.41038C17.1651 5.90935 17.0577 5.41493 16.8767 4.94207C16.7479 4.5851 16.5285 4.26212 16.237 4.00035C15.9312 3.75315 15.5344 3.6251 15.1294 3.64288C13.8188 3.63871 12.5424 4.0314 11.4939 4.76141C10.5333 5.45521 9.95361 6.395 9.95361 7.48663C9.95349 7.63881 9.91443 7.78879 9.83965 7.92421C9.76488 8.05964 9.65652 8.17665 9.52351 8.2656C9.39049 8.35455 9.23662 8.4129 9.07456 8.43585C8.9125 8.4588 8.74688 8.44569 8.59135 8.3976C8.20213 8.27844 7.85432 8.34571 7.48373 8.62246C7.07795 8.92996 6.68252 9.47577 6.39889 10.2118C5.82127 11.7148 5.88131 13.5348 6.67424 14.6418C6.78748 14.7994 6.84799 14.9846 6.84814 15.1741H8.40088C9.63631 15.1741 10.8211 15.6297 11.6947 16.4407C12.5683 17.2516 13.0591 18.3515 13.0591 19.4983V20.1422C13.7498 20.3689 14.3319 20.8149 14.7025 21.4015C15.0732 21.988 15.2085 22.6774 15.0847 23.3476C14.9608 24.0179 14.5857 24.6259 14.0256 25.0642C13.4655 25.5025 12.7565 25.7429 12.0239 25.7429C11.2914 25.7429 10.5824 25.5025 10.0223 25.0642C9.4622 24.6259 9.08706 24.0179 8.96318 23.3476C8.8393 22.6774 8.97466 21.988 9.34532 21.4015C9.71599 20.8149 10.2981 20.3689 10.9888 20.1422V19.4983C10.9888 18.1723 9.82939 17.096 8.40088 17.096H4.77783C4.65407 17.0958 4.53135 17.075 4.41553 17.0345L4.40932 17.046C3.99939 17.8052 3.74268 19.0659 3.74268 20.9398C3.74268 22.5906 4.39482 23.5208 5.06354 24.0532C5.78193 24.6259 6.579 24.7835 6.84814 24.7835C7.12269 24.7835 7.38598 24.8847 7.58011 25.065C7.77424 25.2452 7.8833 25.4896 7.8833 25.7444C7.8833 26.4517 8.29736 27.6875 9.2083 28.7483C10.0965 29.7765 11.3738 30.5491 13.0591 30.5491C14.2185 30.5491 15.2578 29.9476 16.061 29.1654C16.4565 28.781 16.7649 28.3832 16.9658 28.0565C17.0572 27.9116 17.1354 27.7599 17.1997 27.6029V12.2913H14.9534C14.7092 12.9325 14.2287 13.4728 13.5969 13.8169C12.965 14.161 12.2224 14.2867 11.5004 14.1717C10.7784 14.0567 10.1234 13.7084 9.65124 13.1885C9.17906 12.6686 8.92008 12.0104 8.92008 11.3304C8.92008 10.6503 9.17906 9.99219 9.65124 9.47225C10.1234 8.95232 10.7784 8.60408 11.5004 8.48908C12.2224 8.37409 12.965 8.49974 13.5969 8.84383C14.2287 9.18792 14.7092 9.72829 14.9534 10.3694H17.1997V6.52569ZM19.27 25.7425V27.601C19.3343 27.7579 19.4126 27.9096 19.504 28.0545C19.7069 28.3813 20.0133 28.7791 20.4066 29.1635C21.212 29.9457 22.2533 30.5472 23.4106 30.5472C25.0959 30.5472 26.3733 29.7746 27.2614 28.7464C28.1724 27.6855 28.5864 26.4498 28.5864 25.7425C28.5864 25.4877 28.6955 25.2432 28.8896 25.063C29.0837 24.8828 29.347 24.7816 29.6216 24.7816C29.8907 24.7816 30.6878 24.624 31.4062 24.0513C32.0749 23.5189 32.7271 22.5887 32.7271 20.9378C32.7271 19.064 32.4683 17.8052 32.0604 17.0441C31.924 16.7607 31.7098 16.5155 31.4393 16.333C31.2062 16.1947 30.9332 16.1256 30.6567 16.1351C30.4695 16.135 30.2858 16.0877 30.1252 15.9984C29.9646 15.909 29.8331 15.7809 29.7447 15.6277C29.6563 15.4745 29.6144 15.3018 29.6233 15.1282C29.6322 14.9546 29.6918 14.7865 29.7955 14.6418C30.5905 13.5348 30.6485 11.7148 30.0708 10.2118C29.7872 9.47577 29.3918 8.92803 28.986 8.62246C28.6154 8.34571 28.2676 8.27652 27.8784 8.3976C27.7228 8.44569 27.5572 8.4588 27.3952 8.43585C27.2331 8.4129 27.0792 8.35455 26.9462 8.2656C26.8132 8.17665 26.7048 8.05964 26.6301 7.92421C26.5553 7.78879 26.5162 7.63881 26.5161 7.48663C26.5161 6.395 25.9364 5.45521 24.9737 4.76141C23.9258 4.0318 22.6503 3.63912 21.3403 3.64288C20.9353 3.6251 20.5385 3.75315 20.2327 4.00035C19.9404 4.26181 19.7202 4.58484 19.5909 4.94207C19.3938 5.44407 19.2855 5.97235 19.27 6.50647V23.8226H20.8228C22.2513 23.8226 23.4106 22.7463 23.4106 21.4202V17.8936C22.72 17.6669 22.1379 17.2209 21.7672 16.6343C21.3965 16.0477 21.2612 15.3584 21.3851 14.6881C21.5089 14.0179 21.8841 13.4099 22.4442 12.9716C23.0043 12.5332 23.7132 12.2928 24.4458 12.2928C25.1784 12.2928 25.8874 12.5332 26.4474 12.9716C27.0075 13.4099 27.3827 14.0179 27.5065 14.6881C27.6304 15.3584 27.4951 16.0477 27.1244 16.6343C26.7537 17.2209 26.1716 17.6669 25.481 17.8936V21.4202C25.481 22.5671 24.9902 23.667 24.1166 24.4779C23.243 25.2889 22.0582 25.7444 20.8228 25.7444H19.27V25.7425ZM10.9888 11.3304C10.9888 11.5852 11.0978 11.8297 11.292 12.0099C11.4861 12.1901 11.7494 12.2913 12.0239 12.2913C12.2985 12.2913 12.5618 12.1901 12.7559 12.0099C12.95 11.8297 13.0591 11.5852 13.0591 11.3304C13.0591 11.0755 12.95 10.8311 12.7559 10.6509C12.5618 10.4707 12.2985 10.3694 12.0239 10.3694C11.7494 10.3694 11.4861 10.4707 11.292 10.6509C11.0978 10.8311 10.9888 11.0755 10.9888 11.3304ZM24.4458 16.1351C24.7203 16.1351 24.9836 16.0338 25.1778 15.8536C25.3719 15.6734 25.481 15.429 25.481 15.1741C25.481 14.9193 25.3719 14.6749 25.1778 14.4946C24.9836 14.3144 24.7203 14.2132 24.4458 14.2132C24.1713 14.2132 23.908 14.3144 23.7138 14.4946C23.5197 14.6749 23.4106 14.9193 23.4106 15.1741C23.4106 15.429 23.5197 15.6734 23.7138 15.8536C23.908 16.0338 24.1713 16.1351 24.4458 16.1351ZM12.0239 21.9007C11.7494 21.9007 11.4861 22.0019 11.292 22.1821C11.0978 22.3624 10.9888 22.6068 10.9888 22.8616C10.9888 23.1165 11.0978 23.3609 11.292 23.5411C11.4861 23.7213 11.7494 23.8226 12.0239 23.8226C12.2985 23.8226 12.5618 23.7213 12.7559 23.5411C12.95 23.3609 13.0591 23.1165 13.0591 22.8616C13.0591 22.6068 12.95 22.3624 12.7559 22.1821C12.5618 22.0019 12.2985 21.9007 12.0239 21.9007Z" fill="#0852BF"/>
<path d="M10.2228 3.24505C11.6347 2.25243 13.3583 1.71705 15.1294 1.721C15.7411 1.70827 16.3463 1.83896 16.8891 2.10099C17.432 2.36302 17.8948 2.74792 18.2349 3.22007C18.5749 2.74792 19.0378 2.36302 19.5806 2.10099C20.1234 1.83896 20.7287 1.70827 21.3403 1.721C23.1114 1.71705 24.8351 2.25243 26.247 3.24505C27.3339 4.02917 28.1724 5.11503 28.4684 6.42767C29.1475 6.47572 29.7686 6.7371 30.2903 7.13108C31.0812 7.72686 31.6567 8.62053 32.019 9.5661C32.5863 11.0363 32.7395 12.9102 32.1515 14.5053C32.3006 14.5707 32.4476 14.6475 32.5904 14.7359C33.1597 15.0876 33.5924 15.5912 33.9113 16.185C34.5386 17.3478 34.7974 18.9698 34.7974 20.9398C34.7974 23.1326 33.8968 24.6048 32.754 25.5138C32.122 26.0168 31.3762 26.3814 30.5719 26.5805C30.3648 27.6529 29.7851 28.8944 28.8763 29.9476C27.6962 31.3217 25.866 32.471 23.4106 32.471C21.4646 32.471 19.916 31.4716 18.9098 30.4915C18.6692 30.2574 18.4439 30.0104 18.2349 29.7515C18.0259 30.0104 17.8005 30.2575 17.5599 30.4915C16.5538 31.4716 15.0072 32.471 13.0591 32.471C10.6037 32.471 8.77561 31.3217 7.59346 29.9476C6.74413 28.9685 6.16241 27.8133 5.89787 26.5805C5.09351 26.3814 4.34772 26.0168 3.71576 25.5138C2.57295 24.6048 1.67236 23.1307 1.67236 20.9398C1.67236 18.9698 1.93322 17.3458 2.55846 16.185C2.85478 15.6026 3.31016 15.1024 3.87932 14.734C4.01914 14.6481 4.16588 14.5723 4.31822 14.5072C3.73025 12.9082 3.88346 11.0363 4.45072 9.5661C4.81303 8.62053 5.38857 7.72686 6.17943 7.13108C6.70115 6.7371 7.32225 6.47764 8.00131 6.42767C8.29943 5.11503 9.13584 4.02917 10.2228 3.24505ZM17.1997 6.52569V6.50647L17.1956 6.41038C17.1651 5.90935 17.0577 5.41493 16.8767 4.94207C16.7479 4.5851 16.5285 4.26212 16.237 4.00035C15.9312 3.75315 15.5344 3.6251 15.1294 3.64288C13.8188 3.63871 12.5424 4.0314 11.4939 4.76141C10.5333 5.45521 9.95361 6.395 9.95361 7.48663C9.95349 7.63881 9.91443 7.78879 9.83965 7.92421C9.76488 8.05964 9.65652 8.17665 9.52351 8.2656C9.39049 8.35455 9.23662 8.4129 9.07456 8.43585C8.9125 8.4588 8.74688 8.44569 8.59135 8.3976C8.20213 8.27844 7.85432 8.34571 7.48373 8.62246C7.07795 8.92996 6.68252 9.47577 6.39889 10.2118C5.82127 11.7148 5.88131 13.5348 6.67424 14.6418C6.78748 14.7994 6.84799 14.9846 6.84814 15.1741H8.40088C9.63631 15.1741 10.8211 15.6297 11.6947 16.4407C12.5683 17.2516 13.0591 18.3515 13.0591 19.4983V20.1422C13.7498 20.3689 14.3319 20.8149 14.7025 21.4015C15.0732 21.988 15.2085 22.6774 15.0847 23.3476C14.9608 24.0179 14.5857 24.6259 14.0256 25.0642C13.4655 25.5025 12.7565 25.7429 12.0239 25.7429C11.2914 25.7429 10.5824 25.5025 10.0223 25.0642C9.4622 24.6259 9.08706 24.0179 8.96318 23.3476C8.8393 22.6774 8.97466 21.988 9.34532 21.4015C9.71599 20.8149 10.2981 20.3689 10.9888 20.1422V19.4983C10.9888 18.1723 9.82939 17.096 8.40088 17.096H4.77783C4.65407 17.0958 4.53135 17.075 4.41553 17.0345L4.40932 17.046C3.99939 17.8052 3.74268 19.0659 3.74268 20.9398C3.74268 22.5906 4.39482 23.5208 5.06354 24.0532C5.78193 24.6259 6.579 24.7835 6.84814 24.7835C7.12269 24.7835 7.38598 24.8847 7.58011 25.065C7.77424 25.2452 7.8833 25.4896 7.8833 25.7444C7.8833 26.4517 8.29736 27.6875 9.2083 28.7483C10.0965 29.7765 11.3738 30.5491 13.0591 30.5491C14.2185 30.5491 15.2578 29.9476 16.061 29.1654C16.4565 28.781 16.7649 28.3832 16.9658 28.0565C17.0572 27.9116 17.1354 27.7599 17.1997 27.6029V12.2913H14.9534C14.7092 12.9325 14.2287 13.4728 13.5969 13.8169C12.965 14.161 12.2224 14.2867 11.5004 14.1717C10.7784 14.0567 10.1234 13.7084 9.65124 13.1885C9.17906 12.6686 8.92008 12.0104 8.92008 11.3304C8.92008 10.6503 9.17906 9.99219 9.65124 9.47225C10.1234 8.95232 10.7784 8.60408 11.5004 8.48908C12.2224 8.37409 12.965 8.49974 13.5969 8.84383C14.2287 9.18792 14.7092 9.72829 14.9534 10.3694H17.1997V6.52569ZM19.27 25.7425V27.601C19.3343 27.7579 19.4126 27.9096 19.504 28.0545C19.7069 28.3813 20.0133 28.7791 20.4066 29.1635C21.212 29.9457 22.2533 30.5472 23.4106 30.5472C25.0959 30.5472 26.3733 29.7746 27.2614 28.7464C28.1724 27.6855 28.5864 26.4498 28.5864 25.7425C28.5864 25.4877 28.6955 25.2432 28.8896 25.063C29.0837 24.8828 29.347 24.7816 29.6216 24.7816C29.8907 24.7816 30.6878 24.624 31.4062 24.0513C32.0749 23.5189 32.7271 22.5887 32.7271 20.9378C32.7271 19.064 32.4683 17.8052 32.0604 17.0441C31.924 16.7607 31.7098 16.5155 31.4393 16.333C31.2062 16.1947 30.9332 16.1256 30.6567 16.1351C30.4695 16.135 30.2858 16.0877 30.1252 15.9984C29.9646 15.909 29.8331 15.7809 29.7447 15.6277C29.6563 15.4745 29.6144 15.3018 29.6233 15.1282C29.6322 14.9546 29.6918 14.7865 29.7955 14.6418C30.5905 13.5348 30.6485 11.7148 30.0708 10.2118C29.7872 9.47577 29.3918 8.92803 28.986 8.62246C28.6154 8.34571 28.2676 8.27652 27.8784 8.3976C27.7228 8.44569 27.5572 8.4588 27.3952 8.43585C27.2331 8.4129 27.0792 8.35455 26.9462 8.2656C26.8132 8.17665 26.7048 8.05964 26.6301 7.92421C26.5553 7.78879 26.5162 7.63881 26.5161 7.48663C26.5161 6.395 25.9364 5.45521 24.9737 4.76141C23.9258 4.0318 22.6503 3.63912 21.3403 3.64288C20.9353 3.6251 20.5385 3.75315 20.2327 4.00035C19.9404 4.26181 19.7202 4.58484 19.5909 4.94207C19.3938 5.44407 19.2855 5.97235 19.27 6.50647V23.8226H20.8228C22.2513 23.8226 23.4106 22.7463 23.4106 21.4202V17.8936C22.72 17.6669 22.1379 17.2209 21.7672 16.6343C21.3965 16.0477 21.2612 15.3584 21.3851 14.6881C21.5089 14.0179 21.8841 13.4099 22.4442 12.9716C23.0043 12.5332 23.7132 12.2928 24.4458 12.2928C25.1784 12.2928 25.8874 12.5332 26.4474 12.9716C27.0075 13.4099 27.3827 14.0179 27.5065 14.6881C27.6304 15.3584 27.4951 16.0477 27.1244 16.6343C26.7537 17.2209 26.1716 17.6669 25.481 17.8936V21.4202C25.481 22.5671 24.9902 23.667 24.1166 24.4779C23.243 25.2889 22.0582 25.7444 20.8228 25.7444H19.27V25.7425ZM10.9888 11.3304C10.9888 11.5852 11.0978 11.8297 11.292 12.0099C11.4861 12.1901 11.7494 12.2913 12.0239 12.2913C12.2985 12.2913 12.5618 12.1901 12.7559 12.0099C12.95 11.8297 13.0591 11.5852 13.0591 11.3304C13.0591 11.0755 12.95 10.8311 12.7559 10.6509C12.5618 10.4707 12.2985 10.3694 12.0239 10.3694C11.7494 10.3694 11.4861 10.4707 11.292 10.6509C11.0978 10.8311 10.9888 11.0755 10.9888 11.3304ZM24.4458 16.1351C24.7203 16.1351 24.9836 16.0338 25.1778 15.8536C25.3719 15.6734 25.481 15.429 25.481 15.1741C25.481 14.9193 25.3719 14.6749 25.1778 14.4946C24.9836 14.3144 24.7203 14.2132 24.4458 14.2132C24.1713 14.2132 23.908 14.3144 23.7138 14.4946C23.5197 14.6749 23.4106 14.9193 23.4106 15.1741C23.4106 15.429 23.5197 15.6734 23.7138 15.8536C23.908 16.0338 24.1713 16.1351 24.4458 16.1351ZM12.0239 21.9007C11.7494 21.9007 11.4861 22.0019 11.292 22.1821C11.0978 22.3624 10.9888 22.6068 10.9888 22.8616C10.9888 23.1165 11.0978 23.3609 11.292 23.5411C11.4861 23.7213 11.7494 23.8226 12.0239 23.8226C12.2985 23.8226 12.5618 23.7213 12.7559 23.5411C12.95 23.3609 13.0591 23.1165 13.0591 22.8616C13.0591 22.6068 12.95 22.3624 12.7559 22.1821C12.5618 22.0019 12.2985 21.9007 12.0239 21.9007Z" stroke="white" stroke-width="2" mask="url(#path-1-outside-1_26_330)"/>
</svg>
