<svg width="34" height="31" viewBox="0 0 34 31" fill="none" xmlns="http://www.w3.org/2000/svg">
<path d="M8.55039 1.5249C9.96229 0.532275 11.6859 -0.00309944 13.457 0.000848835C14.0687 -0.011884 14.6739 0.11881 15.2168 0.380839C15.7596 0.642867 16.2224 1.02776 16.5625 1.49991C16.9026 1.02776 17.3654 0.642867 17.9082 0.380839C18.4511 0.11881 19.0563 -0.011884 19.668 0.000848835C21.4391 -0.00309944 23.1627 0.532275 24.5746 1.5249C25.6615 2.30902 26.5 3.39488 26.7961 4.70752C27.4751 4.75557 28.0962 5.01694 28.6179 5.41093C29.4088 6.00671 29.9843 6.90038 30.3466 7.84594C30.9139 9.31618 31.0671 11.19 30.4791 12.7852C30.6282 12.8505 30.7752 12.9274 30.918 13.0158C31.4874 13.3675 31.9201 13.871 32.2389 14.4649C32.8662 15.6276 33.125 17.2497 33.125 19.2196C33.125 21.4125 32.2244 22.8846 31.0816 23.7937C30.4496 24.2967 29.7038 24.6612 28.8995 24.8603C28.6925 25.9327 28.1128 27.1742 27.2039 28.2274C26.0238 29.6016 24.1937 30.7509 21.7383 30.7509C19.7922 30.7509 18.2436 29.7515 17.2374 28.7713C16.9969 28.5373 16.7715 28.2902 16.5625 28.0314C16.3535 28.2902 16.1282 28.5373 15.8876 28.7713C14.8814 29.7515 13.3349 30.7509 11.3867 30.7509C8.93133 30.7509 7.10324 29.6016 5.92109 28.2274C5.07177 27.2483 4.49004 26.0932 4.22551 24.8603C3.42115 24.6612 2.67536 24.2967 2.0434 23.7937C0.900586 22.8846 0 21.4105 0 19.2196C0 17.2497 0.260859 15.6257 0.886094 14.4649C1.18242 13.8825 1.63779 13.3822 2.20695 13.0139C2.34678 12.9279 2.49351 12.8521 2.64586 12.7871C2.05789 11.1881 2.21109 9.31618 2.77836 7.84594C3.14066 6.90038 3.71621 6.00671 4.50707 5.41093C5.02879 5.01694 5.64988 4.75749 6.32895 4.70752C6.62707 3.39488 7.46348 2.30902 8.55039 1.5249ZM15.5273 4.80554V4.78632L15.5232 4.69022C15.4927 4.1892 15.3854 3.69477 15.2044 3.22191C15.0755 2.86494 14.8561 2.54196 14.5646 2.28019C14.2589 2.033 13.8621 1.90494 13.457 1.92272C12.1464 1.91855 10.8701 2.31125 9.82156 3.04126C8.86094 3.73505 8.28125 4.67485 8.28125 5.76647C8.28113 5.91866 8.24207 6.06863 8.16729 6.20406C8.09251 6.33949 7.98416 6.45649 7.85114 6.54544C7.71813 6.63439 7.56425 6.69274 7.40219 6.71569C7.24013 6.73864 7.07452 6.72553 6.91898 6.67744C6.52977 6.55829 6.18195 6.62555 5.81137 6.9023C5.40559 7.2098 5.01016 7.75562 4.72652 8.49169C4.14891 9.9946 4.20895 11.8146 5.00187 12.9216C5.11512 13.0793 5.17562 13.2645 5.17578 13.454H6.72852C7.96395 13.454 9.14878 13.9096 10.0224 14.7205C10.8959 15.5315 11.3867 16.6313 11.3867 17.7782V18.422C12.0774 18.6487 12.6595 19.0947 13.0302 19.6813C13.4008 20.2679 13.5362 20.9572 13.4123 21.6275C13.2884 22.2977 12.9133 22.9057 12.3532 23.344C11.7931 23.7824 11.0841 24.0228 10.3516 24.0228C9.619 24.0228 8.91001 23.7824 8.34992 23.344C7.78983 22.9057 7.4147 22.2977 7.29082 21.6275C7.16694 20.9572 7.30229 20.2679 7.67296 19.6813C8.04363 19.0947 8.62574 18.6487 9.31641 18.422V17.7782C9.31641 16.4521 8.15703 15.3758 6.72852 15.3758H3.10547C2.98171 15.3757 2.85899 15.3548 2.74316 15.3144L2.73695 15.3259C2.32703 16.085 2.07031 17.3458 2.07031 19.2196C2.07031 20.8705 2.72246 21.8007 3.39117 22.333C4.10957 22.9058 4.90664 23.0634 5.17578 23.0634C5.45032 23.0634 5.71362 23.1646 5.90775 23.3448C6.10188 23.525 6.21094 23.7694 6.21094 24.0243C6.21094 24.7315 6.625 25.9673 7.53594 27.0282C8.4241 28.0564 9.70148 28.829 11.3867 28.829C12.5461 28.829 13.5854 28.2274 14.3887 27.4452C14.7841 27.0609 15.0926 26.663 15.2934 26.3363C15.3848 26.1914 15.4631 26.0397 15.5273 25.8827V10.5712H13.2811C13.0369 11.2123 12.5564 11.7527 11.9245 12.0968C11.2926 12.4409 10.5501 12.5665 9.82805 12.4515C9.10603 12.3365 8.45105 11.9883 7.97888 11.4684C7.5067 10.9484 7.24772 10.2903 7.24772 9.61022C7.24772 8.93018 7.5067 8.27203 7.97888 7.7521C8.45105 7.23216 9.10603 6.88392 9.82805 6.76893C10.5501 6.65393 11.2926 6.77958 11.9245 7.12367C12.5564 7.46776 13.0369 8.00814 13.2811 8.64929H15.5273V4.80554ZM17.5977 24.0224V25.8808C17.662 26.0378 17.7402 26.1895 17.8316 26.3344C18.0345 26.6611 18.3409 27.0589 18.7343 27.4433C19.5396 28.2255 20.581 28.8271 21.7383 28.8271C23.4235 28.8271 24.7009 28.0545 25.5891 27.0263C26.5 25.9654 26.9141 24.7296 26.9141 24.0224C26.9141 23.7675 27.0231 23.5231 27.2173 23.3429C27.4114 23.1627 27.6747 23.0614 27.9492 23.0614C28.2184 23.0614 29.0154 22.9038 29.7338 22.3311C30.4025 21.7988 31.0547 20.8686 31.0547 19.2177C31.0547 17.3438 30.7959 16.085 30.388 15.324C30.2516 15.0406 30.0374 14.7954 29.767 14.6129C29.5339 14.4745 29.2609 14.4055 28.9844 14.4149C28.7971 14.4148 28.6134 14.3676 28.4528 14.2782C28.2922 14.1889 28.1607 14.0608 28.0723 13.9075C27.9839 13.7543 27.942 13.5817 27.9509 13.4081C27.9599 13.2344 28.0194 13.0663 28.1231 12.9216C28.9181 11.8146 28.9761 9.9946 28.3985 8.49169C28.1148 7.75562 27.7194 7.20788 27.3136 6.9023C26.943 6.62555 26.5952 6.55636 26.206 6.67744C26.0505 6.72553 25.8849 6.73864 25.7228 6.71569C25.5607 6.69274 25.4069 6.63439 25.2739 6.54544C25.1408 6.45649 25.0325 6.33949 24.9577 6.20406C24.8829 6.06863 24.8439 5.91866 24.8438 5.76647C24.8438 4.67485 24.2641 3.73505 23.3014 3.04126C22.2534 2.31164 20.9779 1.91897 19.668 1.92272C19.2629 1.90494 18.8661 2.033 18.5604 2.28019C18.268 2.54166 18.0479 2.86469 17.9186 3.22191C17.7215 3.72392 17.6131 4.2522 17.5977 4.78632V22.1024H19.1504C20.5789 22.1024 21.7383 21.0262 21.7383 19.7001V16.1734C21.0476 15.9467 20.4655 15.5007 20.0948 14.9141C19.7242 14.3276 19.5888 13.6382 19.7127 12.968C19.8366 12.2977 20.2117 11.6897 20.7718 11.2514C21.3319 10.8131 22.0409 10.5727 22.7734 10.5727C23.506 10.5727 24.215 10.8131 24.7751 11.2514C25.3352 11.6897 25.7103 12.2977 25.8342 12.968C25.9581 13.6382 25.8227 14.3276 25.452 14.9141C25.0814 15.5007 24.4993 15.9467 23.8086 16.1734V19.7001C23.8086 20.8469 23.3178 21.9468 22.4442 22.7578C21.5707 23.5687 20.3858 24.0243 19.1504 24.0243H17.5977V24.0224ZM9.31641 9.61022C9.31641 9.86508 9.42547 10.1095 9.6196 10.2897C9.81373 10.4699 10.077 10.5712 10.3516 10.5712C10.6261 10.5712 10.8894 10.4699 11.0835 10.2897C11.2777 10.1095 11.3867 9.86508 11.3867 9.61022C11.3867 9.35537 11.2777 9.11095 11.0835 8.93074C10.8894 8.75053 10.6261 8.64929 10.3516 8.64929C10.077 8.64929 9.81373 8.75053 9.6196 8.93074C9.42547 9.11095 9.31641 9.35537 9.31641 9.61022ZM22.7734 14.4149C23.048 14.4149 23.3113 14.3137 23.5054 14.1335C23.6995 13.9532 23.8086 13.7088 23.8086 13.454C23.8086 13.1991 23.6995 12.9547 23.5054 12.7745C23.3113 12.5943 23.048 12.493 22.7734 12.493C22.4989 12.493 22.2356 12.5943 22.0415 12.7745C21.8473 12.9547 21.7383 13.1991 21.7383 13.454C21.7383 13.7088 21.8473 13.9532 22.0415 14.1335C22.2356 14.3137 22.4989 14.4149 22.7734 14.4149ZM10.3516 20.1805C10.077 20.1805 9.81373 20.2818 9.6196 20.462C9.42547 20.6422 9.31641 20.8866 9.31641 21.1415C9.31641 21.3963 9.42547 21.6408 9.6196 21.821C9.81373 22.0012 10.077 22.1024 10.3516 22.1024C10.6261 22.1024 10.8894 22.0012 11.0835 21.821C11.2777 21.6408 11.3867 21.3963 11.3867 21.1415C11.3867 20.8866 11.2777 20.6422 11.0835 20.462C10.8894 20.2818 10.6261 20.1805 10.3516 20.1805Z" fill="#DBFF00"/>
</svg>
