<svg width="35" height="34" viewBox="0 0 35 34" fill="none" xmlns="http://www.w3.org/2000/svg">
<path d="M7.39286 24.1818V8.91379H12.9045L10.7998 10.8227L10.3915 11.1931L10.7998 11.5635L12.4498 13.06L12.7857 13.3647L13.1216 13.06L19.0145 7.71518L19.4228 7.34483L19.0145 6.97447L13.1216 1.62964L12.7857 1.32497L12.4498 1.62965L10.7998 3.1262L10.3915 3.49655L10.7998 3.86691L12.9045 5.77586H6.89286C5.36733 5.77586 4.03571 6.91698 4.03571 8.41379V24.1672C2.02115 24.7682 0.5 26.5699 0.5 28.7241C0.5 31.3968 2.89233 33.5 5.71429 33.5C8.02604 33.5 9.9012 32.1444 10.6596 30.2931H24.0714V30.8621C24.0714 32.3589 25.403 33.5 26.9286 33.5H31.6429C33.1684 33.5 34.5 32.3589 34.5 30.8621V18.0345C34.5 16.5377 33.1684 15.3966 31.6429 15.3966H30.9643V8.41379C30.9643 6.91698 29.6327 5.77586 28.1071 5.77586H21.0357H20.5357V6.27586V8.41379V8.91379H21.0357H27.6071V15.3966H26.9286C25.403 15.3966 24.0714 16.5377 24.0714 18.0345V27.1552H10.6621C10.0998 25.7634 8.89285 24.6801 7.39286 24.1818ZM5.71429 30.3621C4.64696 30.3621 3.85714 29.5791 3.85714 28.7241C3.85714 27.8692 4.64696 27.0862 5.71429 27.0862C6.78162 27.0862 7.57143 27.8692 7.57143 28.7241C7.57143 29.5791 6.78161 30.3621 5.71429 30.3621ZM27.4286 30.3621V18.5345H31.1429V30.3621H27.4286Z" fill="#0852BF" stroke="white"/>
</svg>
